<svg width="816" height="264" xmlns="http://www.w3.org/2000/svg" xmlns:xlink="http://www.w3.org/1999/xlink"><defs><path id="a" d="M0 .21h354.544V262H0z"/><path id="c" d="M.544.136H253.56V263H.544z"/><path id="e" d="M.626.21h228.842V262H.626z"/></defs><g fill="none" fill-rule="evenodd"><g transform="translate(0 1.864)"><mask id="b" fill="#fff"><use xlink:href="#a"/></mask><path d="M287.933 262h-63.21L189.27 124.48c-1.315-4.894-3.553-15.011-6.715-30.351-3.164-15.338-4.985-25.634-5.461-30.889-.716 6.447-2.507 16.804-5.372 31.068-2.865 14.266-5.075 24.442-6.625 30.53L129.82 262H66.79L0 .21h54.614l33.485 142.892c5.847 26.384 10.086 49.242 12.713 68.581.717-6.804 2.356-17.338 4.924-31.604 2.566-14.264 4.984-25.338 7.253-33.216L151.129.21h52.465l38.14 146.653c1.67 6.566 3.76 16.594 6.268 30.082 2.507 13.492 4.415 25.069 5.73 34.738 1.192-9.311 3.103-20.919 5.73-34.827 2.625-13.906 5.013-25.159 7.163-33.754L299.93.21h54.614L287.933 262z" fill="#FFF" mask="url(#b)"/></g><g transform="translate(354 .864)"><mask id="d" fill="#fff"><use xlink:href="#c"/></mask><path d="M161.522 154.13c-17.548-56.464-27.428-88.396-29.635-95.8-2.21-7.4-3.791-13.25-4.745-17.547-3.94 15.282-15.22 53.065-33.843 113.347h68.223zM193.752 263l-18.98-62.314h-95.44L60.352 263H.544L92.94.136h20.135c28.602 0 54.096 18.038 63.613 45.01L253.56 263h-59.808z" fill="#FFF" mask="url(#d)"/></g><g transform="translate(586 1.864)"><mask id="f" fill="#fff"><use xlink:href="#e"/></mask><path fill="#FFF" mask="url(#f)" d="M115.047 108.006L169.662.21h59.806l-86.845 159.903V262H87.472V161.904L.626.21h60.166z"/></g></g></svg>