<svg width="361" height="391" xmlns="http://www.w3.org/2000/svg" xmlns:xlink="http://www.w3.org/1999/xlink"><defs><path id="a" d="M.194.958h265.103v168.938H.194z"/><path id="c" d="M.977.74h267.32v171.156H.977z"/><path id="e" d="M.228.377h61.374v111.519H.228z"/><path id="g" d="M.966.16h65.838v113.736H.966z"/><path id="i" d="M.573.011H47.55v13.885H.573z"/></defs><g fill="none" fill-rule="evenodd"><g transform="translate(116 221.105)"><mask id="b" fill="#fff"><use xlink:href="#a"/></mask><path d="M261.152 258.497l-21.73 8.879c-11.672 4.77-25.085.45-31.781-10.235l-24.53-39.15s-11.508-22.77-38.862-11.591c-27.355 11.179-21.896 37.944-21.896 37.944l12.777 39.806c4.139 12.896-2.343 26.805-14.88 31.928l-26.38 10.78c-14.42 5.893-30.745-2.17-34.83-17.203L.194 57.968 139.698.958l134.268 220.865c7.613 13.592 1.607 30.78-12.814 36.674" fill="#C60C30" mask="url(#b)"/></g><g transform="translate(113 219.105)"><mask id="d" fill="#fff"><use xlink:href="#c"/></mask><path d="M5.782 61.304L64.197 311.15c1.762 6.476 6.275 11.96 12.363 14.967a23.725 23.725 0 0 0 19.473.69l26.38-10.782c11.39-4.654 17.368-17.48 13.606-29.198l-12.777-39.805c-.119-.52-5.555-28.935 23.168-40.673 28.91-11.82 41.554 12.396 41.68 12.642l24.43 38.972a23.662 23.662 0 0 0 29.065 9.361l21.728-8.879.838 2.052-.838-2.052a23.728 23.728 0 0 0 13.416-14.129 23.728 23.728 0 0 0-1.697-19.412L141.787 5.725 5.782 61.305zm83.9 271.574a28.166 28.166 0 0 1-15.085-2.787A28.163 28.163 0 0 1 59.9 312.236L1.035 60.472a2.217 2.217 0 0 1 1.32-2.556L141.86.906a2.216 2.216 0 0 1 2.732.901L278.86 222.67c3.98 7.101 4.713 15.5 2.054 23.108a28.162 28.162 0 0 1-15.923 16.771l-21.728 8.88a28.093 28.093 0 0 1-34.499-11.113l-24.53-39.149c-.535-1.025-11.076-20.959-36.146-10.716-25.27 10.327-20.766 34.434-20.562 35.455l12.715 39.566c4.464 13.908-2.63 29.131-16.152 34.658L97.71 330.91a28.162 28.162 0 0 1-8.029 1.968z" fill="#FFF" mask="url(#d)"/></g><g transform="translate(99 279.105)"><mask id="f" fill="#fff"><use xlink:href="#e"/></mask><path d="M59.568 14.624c-13.04 42.296-12.238 86.566.9 126.71 3.9 15.1-2.404 32.065-16.653 38.511-14.168 6.452-32.698-3.977-37.994-24.1C-5.267 103.06.283 48.8 21.122.376" fill="#C60C30" mask="url(#f)"/></g><g transform="translate(96 277.105)"><mask id="h" fill="#fff"><use xlink:href="#g"/></mask><path d="M40.183 185.87c-4.566.427-9.332-.458-13.933-2.64-9.45-4.486-16.584-13.569-19.572-24.922C-4.521 105.113.816 50.927 22.087 1.501a2.217 2.217 0 0 1 4.072 1.751C5.25 51.835.005 105.1 10.99 157.287c2.629 9.98 8.893 18.014 17.16 21.938 6.025 2.858 12.325 3.072 17.747.602 12.614-5.706 19.244-21.155 15.425-35.939-13.567-41.44-13.882-85.72-.872-127.916a2.215 2.215 0 1 1 4.236 1.306c-12.738 41.316-12.433 84.666.888 125.366 4.39 16.977-3.299 34.64-17.846 41.22a23.379 23.379 0 0 1-7.545 2.006" fill="#FFF" mask="url(#h)"/></g><path d="M233.55 301.377l-39.827 16.599 5.344 12.82c3.716 8.915 10.338 8.352 15.24 6.309 4.182-1.743 8.226-4.266 7.73-9.49 2.532 2.533 6.586 3.659 10.871 1.873 9.436-3.933 7.826-10.871 6.003-15.244l-5.362-12.867zm-1.973 14.62c.855 2.05-.706 3.66-3.324 4.752-3.335 1.39-4.95.848-5.56-.613l-1.186-2.844 9.04-3.768 1.03 2.474zM215.57 322.4c1.21 2.9-.084 4.105-3.667 5.598-5.058 2.108-5.995-.14-6.58-1.544l-.858-2.058 10.17-4.24.935 2.244zm28.904 5.19l-39.825 16.599 5.343 12.82c3.716 8.915 10.338 8.35 15.24 6.308 4.184-1.744 8.226-4.266 7.731-9.488 2.532 2.53 6.586 3.658 10.871 1.872 9.436-3.933 7.825-10.872 6.002-15.245l-5.362-12.866zm-1.972 14.62c.855 2.05-.706 3.66-3.324 4.75-3.336 1.39-4.951.849-5.559-.612l-1.186-2.844 9.039-3.767 1.03 2.473zm-16.007 6.4c1.209 2.902-.083 4.107-3.667 5.6-5.057 2.108-5.995-.141-6.579-1.545l-.858-2.058 10.169-4.238.935 2.242zm34.81 19.364s-14.962 2.152-17.737 2.382c2.145-1.77 14.304-10.619 14.304-10.619l-3.605-8.65s-22.575 18.6-22.684 18.698l-13.858 5.775 3.871 9.29 13.853-5.774c.16-.006 29.252-2.955 29.252-2.955l-3.396-8.147z" fill="#FFF"/><g transform="translate(228 377.105)"><mask id="j" fill="#fff"><use xlink:href="#i"/></mask><path d="M44.154 16.898s-14.961 2.152-17.737 2.381C28.562 17.51 40.72 8.661 40.72 8.661L37.116.01S14.542 18.611 14.43 18.71L.573 24.485l3.872 9.29L18.298 28c.159-.007 29.252-2.957 29.252-2.957l-3.396-8.146z" fill="#FFF" mask="url(#j)"/></g><path d="M189.715 308.356l3.307 7.933 36.474-24.642-4.497-10.79-43.18 8.555 3.308 7.934 9.193-1.822 3.16 7.585-7.765 5.247zm12.068-14.31l12.895-2.556-10.893 7.36-2.002-4.805z" fill="#FFF"/><path d="M203.186 264.42l-60.615 20.076c-54.925 18.19-114.795-13.392-133.723-70.542v-.001c-18.928-57.15 10.254-118.226 65.18-136.417l60.615-20.075c54.925-18.191 114.795 13.392 133.723 70.542 18.927 57.15-10.255 118.227-65.18 136.418" fill="#C60C30"/><path d="M172.624 54.75a98.472 98.472 0 0 0-37.285 4.814L74.726 79.64c-25.987 8.606-46.935 27.233-58.983 52.45-12.062 25.247-13.764 54.072-4.791 81.166 8.974 27.095 27.545 49.206 52.293 62.261 24.718 13.04 52.64 15.481 78.629 6.875l60.614-20.075c53.678-17.777 82.287-77.718 63.775-133.617-14.256-43.043-52.36-71.332-93.64-73.95m-68.467 236.926c-14.738-.935-29.327-5.037-42.98-12.239-25.765-13.592-45.096-36.6-54.43-64.787-19.283-58.219 10.588-120.672 66.586-139.218l60.613-20.075c27.145-8.989 56.298-6.446 82.093 7.162 25.765 13.592 45.096 36.601 54.432 64.788 9.335 28.186 7.559 58.185-5 84.47-12.573 26.315-34.445 45.758-61.588 54.748l-.696-2.104.696 2.104-60.613 20.075c-12.778 4.231-26.005 5.907-39.113 5.076" fill="#FFF"/><path d="M76.86 121.583l5.41-102.545c.136-2.57 2.703-4.288 5.131-3.433l93.147 32.807" fill="#C60C30"/><path d="M76.719 123.795a2.217 2.217 0 0 1-2.073-2.329l5.41-102.545a6.023 6.023 0 0 1 2.687-4.726 6.026 6.026 0 0 1 5.395-.68l93.147 32.806a2.217 2.217 0 0 1-1.473 4.182L86.665 17.695a1.621 1.621 0 0 0-1.456.184c-.434.29-.698.755-.725 1.276L79.073 121.7a2.216 2.216 0 0 1-2.33 2.096h-.024" fill="#FFF"/><path d="M232.124 79.08l-27.268-66.227c-.944-2.293-3.853-2.993-5.737-1.38l-54.006 46.23" fill="#C60C30"/><path d="M231.984 81.292a2.216 2.216 0 0 1-1.91-1.369l-27.268-66.227a1.41 1.41 0 0 0-.985-.844 1.419 1.419 0 0 0-1.262.304l-54.005 46.231a2.214 2.214 0 0 1-3.124-.243 2.215 2.215 0 0 1 .241-3.125l54.006-46.23a5.803 5.803 0 0 1 5.182-1.246 5.801 5.801 0 0 1 4.047 3.466l27.267 66.227a2.215 2.215 0 0 1-2.189 3.056" fill="#FFF"/><path d="M185.905 74.737l48.826-28.506c2.829-1.652 6.46-.28 7.49 2.83l26.737 80.728" fill="#C60C30"/><path d="M268.819 132.002a2.215 2.215 0 0 1-1.964-1.516l-26.737-80.729a2.924 2.924 0 0 0-1.751-1.823 2.926 2.926 0 0 0-2.52.211l-48.825 28.506a2.216 2.216 0 1 1-2.234-3.827l48.826-28.507a7.345 7.345 0 0 1 6.32-.53 7.335 7.335 0 0 1 4.39 4.577l26.737 80.729a2.214 2.214 0 0 1-2.242 2.909" fill="#FFF"/><path d="M100.341 10.484c6.116 8.145 4.472 19.707-3.674 25.823-8.145 6.116-19.706 4.471-25.823-3.674-6.116-8.145-4.47-19.707 3.674-25.823 8.145-6.116 19.707-4.471 25.823 3.674" fill="#C60C30"/><path d="M86.607 5.37c-3.724-.236-7.547.8-10.757 3.212-7.155 5.373-8.606 15.565-3.233 22.72a16.124 16.124 0 0 0 10.69 6.322c4.28.61 8.564-.487 12.03-3.09a16.126 16.126 0 0 0 6.322-10.69 16.123 16.123 0 0 0-3.09-12.03C95.608 7.87 91.183 5.66 86.608 5.37M84.32 42.18a21.614 21.614 0 0 1-1.635-.168 20.525 20.525 0 0 1-13.612-8.049c-6.84-9.109-4.993-22.085 4.116-28.926 9.108-6.84 22.085-4.994 28.925 4.116h.002a20.517 20.517 0 0 1 3.93 15.315A20.515 20.515 0 0 1 98 38.078c-3.972 2.983-8.776 4.413-13.68 4.102m20.609 147.244c2.722 5.805.22 12.708-5.579 15.427-5.798 2.718-12.704.226-15.426-5.58-2.717-5.795-.219-12.707 5.579-15.425 5.799-2.72 12.709-.217 15.426 5.578m91.023-42.673c2.72 5.805.22 12.708-5.58 15.427-5.798 2.718-12.705.226-15.426-5.58-2.716-5.795-.22-12.707 5.578-15.425 5.8-2.719 12.71-.217 15.428 5.578m-53.296 101.605c-4.013-.255-8.132-.855-12.36-1.803a2.216 2.216 0 1 1 .97-4.325c24.577 5.51 44.518-1.09 60.95-20.186a2.217 2.217 0 1 1 3.36 2.891c-14.528 16.884-32.289 24.731-52.92 23.423" fill="#FFF"/><path d="M199.879 73.527c2.37 7.154-1.51 14.875-8.664 17.244-7.154 2.37-14.875-1.509-17.244-8.663-2.37-7.155 1.509-14.875 8.663-17.245 7.155-2.369 14.875 1.51 17.245 8.664" fill="#C60C30"/><path d="M187.634 66.41a11.349 11.349 0 0 0-4.303.558 11.348 11.348 0 0 0-6.62 5.719 11.36 11.36 0 0 0-.637 8.724c1.982 5.983 8.46 9.237 14.443 7.257 5.984-1.981 9.24-8.461 7.258-14.444h.001c-1.509-4.554-5.624-7.528-10.142-7.814m-1.694 27.24c-6.269-.398-11.98-4.525-14.073-10.845a15.766 15.766 0 0 1 .883-12.11 15.763 15.763 0 0 1 9.187-7.935c8.305-2.748 17.296 1.768 20.045 10.07h.002c2.75 8.304-1.77 17.297-10.072 20.046a15.81 15.81 0 0 1-5.972.774M32.335 195.283c12.67-12.098 55.778-30.471 74.182-29.66 21.477.947 22.394 39.385 19.207 53.977-4.139 18.952-46.168 41.107-66.747 31.067-6.652-3.245-14.584-12.448-19.023-18.624-4.438-6.176-11.949-19.442-12.437-26.581-.489-7.14 4.818-10.18 4.818-10.18m197.515-93.09s5.722-2.157 10.918 2.764c5.194 4.92 10.646 19.157 12.584 26.51 1.94 7.355 3.988 19.33 2.258 26.527-5.355 22.263-49.194 40.577-66.446 31.707-13.283-6.83-42.347-32.002-29.407-49.17 11.088-14.71 52.698-36.265 70.093-38.337m-111.522 56.065c-1.585-.692-6.352-2.97-11.762-2.455-25.42 2.414-83.98 33.979-98.078 45.505-1.816 1.485-2.072 1.515-1.634 3.017.438 1.5 4.246 9.77 5.497 10.709 1.251.939 4.655-.037 9.39 2.764 8.488 5.02 20.766 31.98 38.715 39.039 18.586 7.308 65.78-14.346 70.233-37.846 2.941-15.522 1.035-30.347-.295-44.851 1.403-4.077 3.652-5.406 5.647-6.706a27.597 27.597 0 0 1 3.053-1.718c.687-.318 1.86-.821 3.27-1.262 2.27-.711 4.728-1.6 8.765-.087 10.34 10.258 20.561 21.164 34.405 28.775 20.96 11.523 67.7-11.094 73.893-30.082 5.981-18.335-6.999-44.966-5.469-54.707.853-5.435 3.773-7.44 3.845-9.002.073-1.562-3.882-9.763-4.76-11.056-.88-1.294-1.067-1.116-3.369-.66-17.86 3.537-79.48 28.613-97.522 46.683-3.84 3.845-5.118 8.972-5.592 10.634-1.484 1.554-4.274 3.274-13.729 7.476-9.259 4.618-12.36 5.674-14.503 5.83" fill="#FFF"/><path d="M247.35 261.746c13.042-42.296 12.238-86.566-.899-126.709-3.9-15.1 2.403-32.066 16.652-38.512 14.17-6.452 32.698 3.978 37.994 24.101 11.088 52.684 5.538 106.944-15.3 155.367" fill="#C60C30"/><path d="M286 278.2a2.216 2.216 0 0 1-2.24-3.084c20.907-48.58 26.153-101.844 15.168-154.033-2.629-9.98-8.893-18.015-17.159-21.937-6.023-2.859-12.327-3.073-17.748-.604-12.614 5.706-19.243 21.156-15.424 35.94 13.567 41.443 13.881 85.722.871 127.917a2.218 2.218 0 0 1-4.237-1.306c12.741-41.314 12.434-84.665-.886-125.367-4.389-16.977 3.3-34.64 17.844-41.22 6.627-3.017 14.258-2.792 21.48.635 9.45 4.484 16.583 13.568 19.571 24.922 11.2 53.196 5.863 107.381-15.408 156.806A2.216 2.216 0 0 1 286 278.2" fill="#FFF"/><path d="M252.074 136.69a43.406 43.406 0 0 1-4.041.165 2.215 2.215 0 1 1 .002-4.432c7.73.006 11.805-1.305 14.089-8.752a2.218 2.218 0 0 1 4.238 1.3c-2.564 8.356-7.396 11.075-14.288 11.718" fill="#FFF"/></g></svg>