<svg width="391" height="390" xmlns="http://www.w3.org/2000/svg" xmlns:xlink="http://www.w3.org/1999/xlink"><defs><path id="a" d="M.319.146h222.78v121.089H.318z"/><path id="c" d="M.24.067h226.942v123.168H.24z"/><path id="e" d="M.986.585H123.58v98.65H.986z"/><path id="g" d="M.889.512h107.863v100.723H.89z"/><path id="i" d="M.629.65h42.244v23.585H.629z"/><path id="k" d="M.5 393H391V.001H.5z"/></defs><g fill="none" fill-rule="evenodd"><g transform="translate(105 243)"><mask id="b" fill="#fff"><use xlink:href="#a"/></mask><path d="M189.645 244.583l-21.784 3.144c-11.704 1.69-17.881-69.858-69.466-57.345-26.928 6.532-28.535 29.55-28.535 29.55l2.638 40.328c.838 12.672-5.38 20.35-17.95 22.165l-26.445 3.817C13.643 288.33.622 277.288.319 262.683L3.925 20.34 143.788.146c14.214 36.806-1.746 66.495 24.946 109.314 27.978 44.884 59.05 88.906 53.774 110.453 3.84 14.093-18.405 22.581-32.863 24.67" fill="#C60C30" mask="url(#b)"/></g><g transform="translate(103 241)"><mask id="d" fill="#fff"><use xlink:href="#c"/></mask><path d="M7.975 24.144l-3.578 240.57c.132 6.29 2.993 12.305 7.85 16.427a22.247 22.247 0 0 0 17.558 5.045l26.446-3.82c11.498-1.656 16.938-8.376 16.172-19.968l-2.637-40.332c.02-.524 2.038-24.891 30.12-31.704 36.852-8.941 51.782 23.54 60.711 42.939 3.011 6.544 6.747 14.748 8.946 14.37l21.785-3.147c10.957-1.578 24.953-6.638 29.794-14.014 1.69-2.577 2.134-5.21 1.36-8.05a2.082 2.082 0 0 1-.012-1.043c4.318-17.634-17.963-52.731-41.55-89.888-3.978-6.264-8.005-12.607-11.97-18.965-15.895-25.503-16.937-46.444-17.947-66.698-.69-13.9-1.345-27.06-6.594-41.423L7.975 24.143zm16.491 266.339a26.402 26.402 0 0 1-14.908-6.174A26.417 26.417 0 0 1 .24 264.727L3.846 22.31a2.077 2.077 0 0 1 1.781-2.024L145.49.09a2.063 2.063 0 0 1 2.236 1.308c6.024 15.592 6.75 30.167 7.451 44.258.982 19.727 1.998 40.12 17.322 64.705 3.958 6.353 7.978 12.687 11.95 18.939 24.9 39.223 46.434 73.148 42.198 92.588.898 3.813.216 7.479-2.03 10.902-6.373 9.71-23.537 14.53-32.674 15.847l-21.784 3.148c-5.28.81-8.466-6.207-13.317-16.747-8.94-19.42-22.442-48.758-55.957-40.637-25.052 6.075-26.885 26.8-26.95 27.679l2.636 40.043c.911 13.738-6.095 22.39-19.725 24.356l-26.446 3.82c-1.98.285-3.97.346-5.933.184z" fill="#FFF" mask="url(#d)"/></g><g transform="translate(11 265)"><mask id="f" fill="#fff"><use xlink:href="#e"/></mask><path d="M123.58 32.927c-33.608 24.351-57.952 57.984-70.727 95.474-5.586 13.516-19.87 22.678-34.182 19.48-14.255-3.148-22.265-21.406-14.895-39.473C25.153 62.674 59.888 25.134 102.793.585" fill="#C60C30" mask="url(#f)"/></g><g transform="translate(9 263)"><mask id="h" fill="#fff"><use xlink:href="#g"/></mask><path d="M24.01 152.487a27.572 27.572 0 0 1-3.793-.577c-6.668-1.473-12.258-5.944-15.742-12.584-4.553-8.687-4.78-19.51-.625-29.704C25.439 63.44 59.973 25.836 103.76.783c1-.565 2.27-.22 2.837.771a2.08 2.08 0 0 1-.77 2.837C62.784 29.016 28.837 65.98 7.657 111.288c-3.65 8.96-3.485 18.512.5 26.11 2.904 5.537 7.506 9.251 12.962 10.457 12.679 2.81 26.345-5.017 31.813-18.247 12.506-36.716 20.278-53.226 52.392-80.693a2.085 2.085 0 0 1 2.93.225 2.078 2.078 0 0 1-.23 2.93C76.703 78.864 69.107 95.015 56.82 131.072c-5.736 13.888-19.355 22.522-32.81 21.415" fill="#FFF" mask="url(#h)"/></g><path d="M232.618 280.539c41.368 9.67 77.67 31.77 104.58 62.096 10.626 10.544 27.738 13.533 39.98 4.846 12.207-8.62 12.535-29.025-1.579-43.16-38.294-34.697-85.952-56.37-136.174-62.543" fill="#C60C30"/><path d="M358.05 354.492c-8.039-.661-16.079-4.194-22.316-10.38-25.337-28.548-45.2-41.378-85.108-55.005a2.075 2.075 0 0 1-1.296-2.636c.37-1.085 1.545-1.681 2.637-1.294 40.705 13.897 60.981 27 86.785 56.08 10.327 10.24 26.37 12.233 37.224 4.528 4.687-3.308 7.568-8.65 8.116-15.04.751-8.763-2.878-17.86-9.963-24.954-37.869-34.311-84.562-55.758-134.956-61.948a2.082 2.082 0 0 1-1.809-2.32 2.073 2.073 0 0 1 2.315-1.81c51.251 6.302 98.733 28.112 137.316 63.072 8.025 8.032 12.096 18.328 11.238 28.313-.654 7.635-4.156 14.055-9.857 18.082-5.899 4.186-13.112 5.906-20.327 5.312" fill="#FFF"/><path d="M333.926 340.966a2.068 2.068 0 0 1-1.662-1.09c-4.105-7.644-5.249-13.794 1.733-20.835a2.084 2.084 0 0 1 2.94-.011c.814.809.82 2.124.011 2.942-5.286 5.327-4.543 9.388-1.024 15.94a2.078 2.078 0 0 1-1.998 3.054m-127.443-26.624l-39.971 6.255 2.014 12.868c1.4 8.948 7.558 9.908 12.478 9.138 4.198-.657 8.442-2.054 9.153-6.922 1.742 2.87 5.185 4.798 9.486 4.125 9.47-1.483 9.548-8.161 8.86-12.55l-2.02-12.914zm-5.05 12.88c.322 2.057-1.458 3.176-4.085 3.587-3.348.524-4.7-.329-4.93-1.796l-.446-2.855 9.073-1.419.388 2.483zm-16.006 2.268c.456 2.911-.99 3.72-4.586 4.282-5.077.795-5.43-1.462-5.65-2.871l-.323-2.066 10.207-1.597.352 2.252z" fill="#FFF"/><g transform="translate(170 340)"><mask id="j" fill="#fff"><use xlink:href="#i"/></mask><path d="M40.6.65L.629 6.907l2.014 12.868c1.4 8.948 7.558 9.908 12.477 9.138 4.2-.657 8.443-2.055 9.154-6.922 1.743 2.869 5.185 4.798 9.486 4.125 9.47-1.483 9.548-8.162 8.86-12.551L40.6.65zm-5.05 12.88c.322 2.057-1.458 3.176-4.085 3.587-3.348.524-4.7-.33-4.928-1.796l-.447-2.854 9.072-1.42.388 2.483zm-16.006 2.267c.456 2.912-.99 3.72-4.586 4.284-5.076.794-5.43-1.463-5.65-2.871l-.323-2.066 10.207-1.597.352 2.25z" fill="#FFF" mask="url(#j)"/></g><path d="M216.943 381.183s-14.108-1.37-16.687-1.778c2.348-1.135 15.393-6.489 15.393-6.489l-1.358-8.68s-24.703 11.916-24.826 11.98l-13.908 2.177 1.46 9.324 13.903-2.176c.146.03 27.303 3.82 27.303 3.82l-1.28-8.178zM165 310.943l1.247 7.962 38.709-14.328-1.695-10.83-41.235-1.817 1.246 7.962 8.78.388 1.19 7.612-8.241 3.051zm14.179-10.35l12.315.543-11.56 4.28-.755-4.823z" fill="#FFF"/><path d="M194.557 270.156l-59.132 9.394c-53.583 8.513-104.2-29.782-113.059-85.535-8.858-55.752 27.398-107.85 80.981-116.363l59.132-9.395c53.582-8.514 104.2 29.781 113.058 85.535 8.86 55.752-27.397 107.85-80.98 116.364" fill="#C60C30"/><path d="M185.096 69.453a93.356 93.356 0 0 0-22.29.854l-59.133 9.394c-52.366 8.321-87.919 59.455-79.253 113.987 8.662 54.532 58.317 92.106 110.678 83.813l59.134-9.398c52.365-8.32 87.917-59.455 79.252-113.983-4.199-26.435-18.033-49.707-38.956-65.54-14.75-11.159-31.779-17.675-49.432-19.127m-72.448 213.031c-45.44-3.739-84.598-39.455-92.334-88.14C11.29 137.547 48.392 84.28 103.021 75.6l59.133-9.394c26.49-4.21 53.072 2.562 74.88 19.062 21.784 16.482 36.188 40.702 40.556 68.197 9.024 56.797-28.077 110.061-82.706 118.741l-59.133 9.398a96.553 96.553 0 0 1-23.103.881" fill="#FFF"/><path d="M103.286 122.832l13.375-95.356c.335-2.39 2.873-3.787 5.07-2.791l84.355 38.205" fill="#C60C30"/><path d="M103.117 124.901a2.076 2.076 0 0 1-1.889-2.359l13.375-95.354a5.637 5.637 0 0 1 2.893-4.197 5.598 5.598 0 0 1 5.093-.2l84.356 38.204a2.075 2.075 0 0 1 1.034 2.75 2.071 2.071 0 0 1-2.75 1.035l-84.355-38.204a1.51 1.51 0 0 0-1.375.054 1.528 1.528 0 0 0-.781 1.133l-13.375 95.354a2.076 2.076 0 0 1-2.226 1.784" fill="#FFF"/><path d="M253.547 94.926l-28.145-60.977c-.974-2.111-3.727-2.652-5.429-1.068L171.19 78.312" fill="#C60C30"/><path d="M253.38 96.997a2.073 2.073 0 0 1-1.718-1.2L223.518 34.82a1.33 1.33 0 0 0-.957-.75 1.33 1.33 0 0 0-1.173.33l-48.781 45.432c-.836.787-2.15.74-2.937-.107a2.075 2.075 0 0 1 .105-2.936l48.782-45.432a5.424 5.424 0 0 1 4.808-1.368 5.439 5.439 0 0 1 3.925 3.09l28.144 60.976a2.078 2.078 0 0 1-2.054 2.942" fill="#FFF"/><path d="M207.3 92.009l49.5-18.983c2.868-1.1 6.02.72 6.502 3.753l12.513 78.755" fill="#C60C30"/><path d="M275.643 157.604a2.083 2.083 0 0 1-1.88-1.743l-12.514-78.755a2.74 2.74 0 0 0-1.342-1.955 2.77 2.77 0 0 0-2.363-.186l-49.5 18.983a2.077 2.077 0 1 1-1.49-3.878l49.5-18.983a6.856 6.856 0 0 1 5.93.468 6.873 6.873 0 0 1 3.37 4.9l12.514 78.75a2.079 2.079 0 0 1-2.225 2.4" fill="#FFF"/><path d="M134.236 20.95c5.053 8.105 2.578 18.772-5.527 23.825-8.106 5.053-18.772 2.578-23.825-5.527-5.053-8.105-2.578-18.772 5.527-23.825 8.105-5.053 18.772-2.578 23.825 5.527" fill="#C60C30"/><path d="M120.776 14.928a15.109 15.109 0 0 0-9.266 2.26 15.102 15.102 0 0 0-6.772 9.473c-.92 3.96-.242 8.04 1.91 11.487 4.438 7.122 13.84 9.304 20.962 4.865 7.118-4.44 9.3-13.844 4.86-20.96a15.11 15.11 0 0 0-9.47-6.776 15.489 15.489 0 0 0-2.223-.35m-2.78 34.474c-5.901-.486-11.51-3.655-14.877-9.052a19.248 19.248 0 0 1-2.43-14.629 19.246 19.246 0 0 1 8.623-12.062c9.07-5.652 21.037-2.863 26.688 6.191 5.65 9.066 2.873 21.04-6.192 26.691a19.268 19.268 0 0 1-11.811 2.861m5.412 131.936c1.506 5.82-1.992 11.75-7.806 13.254-5.813 1.504-11.748-1.986-13.254-7.806-1.503-5.811 1.993-11.75 7.806-13.254 5.814-1.504 11.75 1.996 13.254 7.806m107.522-32.292c1.506 5.821-1.992 11.75-7.806 13.254-5.813 1.504-11.748-1.986-13.254-7.806-1.503-5.81 1.993-11.75 7.806-13.254 5.814-1.504 11.751 1.996 13.254 7.806m-70.624 105.041c-12.11-.996-23.209-5.872-33.836-14.716a2.078 2.078 0 1 1 2.658-3.194c17.741 14.764 36.103 17.7 59.543 9.53a2.066 2.066 0 0 1 2.646 1.275 2.08 2.08 0 0 1-1.279 2.648c-10.66 3.717-20.493 5.217-29.732 4.457" fill="#FFF"/><path d="M220.414 93.006c1.109 6.979-3.65 13.536-10.63 14.645S196.249 104 195.14 97.02c-1.11-6.98 3.65-13.536 10.63-14.644 6.979-1.11 13.536 3.65 14.645 10.629" fill="#C60C30"/><path d="M208.676 84.332a10.884 10.884 0 0 0-2.582.097 10.666 10.666 0 0 0-6.993 4.29 10.63 10.63 0 0 0-1.908 7.973 10.63 10.63 0 0 0 4.29 6.995 10.63 10.63 0 0 0 7.974 1.915c5.835-.93 9.831-6.433 8.904-12.267a10.642 10.642 0 0 0-4.289-6.995 10.645 10.645 0 0 0-5.396-2.008m-2.146 25.509a14.77 14.77 0 0 1-7.49-2.791 14.766 14.766 0 0 1-5.953-9.706c-.625-3.92.318-7.85 2.651-11.067a14.766 14.766 0 0 1 9.704-5.95 14.728 14.728 0 0 1 11.071 2.65 14.785 14.785 0 0 1 5.954 9.701v.005c1.285 8.095-4.257 15.731-12.357 17.02-1.199.19-2.4.234-3.58.138m-159.682 67.4c13.843-8.843 56.828-17.96 73.615-13.89 19.591 4.751 13.49 40.286 7.921 53.136-7.232 16.69-49.906 29.483-67.028 16.527-5.534-4.187-11.17-14.088-14.138-20.573-2.968-6.485-7.483-20.048-6.642-26.704.84-6.657 6.272-8.496 6.272-8.496m198.555-49.972s5.656-.953 9.547 4.514c3.891 5.466 6.335 19.55 6.79 26.667.455 7.117.178 18.506-2.715 24.815-8.948 19.517-52.594 28.45-66.866 17.171-10.988-8.683-33.183-37.096-18.175-50.555 12.86-11.533 55.04-23.849 71.42-22.612M132.66 158.71c-1.333-.923-5.308-3.88-10.379-4.385-23.826-2.37-83.41 16.094-98.464 24.152-1.94 1.04-2.18 1.021-2.05 2.481.132 1.461 2.142 9.758 3.124 10.847.981 1.09 4.29.807 8.141 4.24 6.902 6.152 13.33 33.178 28.57 42.915 15.781 10.082 63.117-1.317 71.46-22.135 5.511-13.75 6.435-27.737 7.831-41.323 2.028-3.497 4.338-4.314 6.407-5.149a25.735 25.735 0 0 1 3.12-1.03c.69-.168 1.86-.419 3.236-.57 2.218-.244 4.64-.617 8.082 1.503 7.66 11.307 15.095 23.188 26.458 32.692 17.204 14.39 64.297 2.022 73.425-14.33 8.816-15.79 1.684-42.639 4.851-51.325 1.767-4.847 4.816-6.165 5.165-7.589.35-1.424-1.809-9.684-2.384-11.033-.575-1.349-.78-1.219-2.979-1.215-17.075.028-78.302 11.97-98.167 25.336-4.228 2.845-6.329 7.331-7.067 8.774-1.646 1.162-4.523 2.24-13.982 4.4-9.353 2.575-12.398 2.987-14.398 2.743" fill="#FFF"/><mask id="l" fill="#fff"><use xlink:href="#k"/></mask><path fill="#F2F2F2" mask="url(#l)" d="M-561 1189h1924V304H-561z"/><path d="M292.923 305.417a199.375 199.375 0 0 1 44.275 37.217c10.627 10.545 27.739 13.534 39.98 4.846 12.208-8.619 12.536-29.025-1.578-43.158-25.178-22.814-43.348-35.577-67.115-43.399" fill="#C60C30"/><path d="M376.995 302.785c-24.455-22.159-52.488-39.026-82.787-50.018a16.975 16.975 0 0 1-2.118 3.653c30.055 10.796 57.85 27.454 82.039 49.371 7.085 7.095 10.715 16.19 9.964 24.954-.55 6.39-3.43 11.732-8.117 15.04-10.854 7.704-26.897 5.712-37.223-4.529-25.701-28.963-45.925-42.078-86.306-55.913-.973.943-1.976 1.86-2.977 2.775.239.448.637.812 1.156.988 39.909 13.628 59.772 26.458 85.109 55.005 6.237 6.187 14.277 9.72 22.315 10.381 7.214.593 14.428-1.127 20.327-5.313 5.7-4.027 9.202-10.446 9.857-18.082.858-9.984-3.213-20.28-11.24-28.312" fill="#FFF"/><path d="M333.926 340.966a2.068 2.068 0 0 1-1.662-1.09c-4.105-7.644-5.249-13.794 1.733-20.835a2.084 2.084 0 0 1 2.94-.011c.814.809.82 2.124.011 2.942-5.286 5.327-4.543 9.388-1.024 15.94a2.078 2.078 0 0 1-1.998 3.054" fill="#FFF"/></g></svg>