<svg xmlns="http://www.w3.org/2000/svg" xmlns:xlink="http://www.w3.org/1999/xlink" width="44" height="41"><defs><path id="a" d="M0 .847h43.476V40H0z"/></defs><g fill="none" fill-rule="evenodd"><path fill="#C62032" d="M5.168 28.5h17.29a.72.72 0 1 0 0-1.44H5.889V4.007A1.44 1.44 0 0 1 7.33 2.566h30.658c-.26.436-.398.934-.401 1.44V27.06h-2.161a.72.72 0 0 0 0 1.44h1.967c-.257.447-.732.72-1.247.722h-2.161V28.5h-.71a.73.73 0 0 0-.731.73v8.337l-3.093-3.092a.718.718 0 0 0-1.018 0l-3.093 3.092v-8.222a.845.845 0 0 0-.845-.845h-.596v.72H3.007a1.441 1.441 0 0 1-1.247-.72h3.408zM41.716 3.287h-2.494a1.44 1.44 0 0 1 2.494 0zM3.007 30.662h20.892v8.645a.72.72 0 0 0 1.23.509l3.813-3.813 3.813 3.813a.717.717 0 0 0 .786.157.72.72 0 0 0 .444-.666v-8.645h2.161a2.881 2.881 0 0 0 2.882-2.881V4.727h3.602a.72.72 0 0 0 .721-.72 2.882 2.882 0 0 0-2.882-2.882H7.33a2.882 2.882 0 0 0-2.882 2.882V27.06H.846a.721.721 0 0 0-.721.72 2.882 2.882 0 0 0 2.882 2.882z"/><g transform="translate(0 .153)"><mask id="b" fill="#fff"><use xlink:href="#a"/></mask><path fill="#C62032" d="M39.46 3.008h2.016a1.307 1.307 0 0 0-1.347-.424c-.265.07-.496.218-.668.424zm2.473.25h-2.928l.108-.188c.21-.36.548-.62.952-.728a1.562 1.562 0 0 1 1.759.728l.109.188zm-18.16 24.965h.722a.97.97 0 0 1 .97.97v7.92l2.879-2.879a.867.867 0 0 1 1.196 0l2.879 2.88v-8.035c0-.472.384-.856.856-.856h.835v.721h2.036c.39 0 .76-.177 1.007-.47h-1.727a.847.847 0 0 1 0-1.692h2.036V3.854c.002-.458.11-.909.315-1.316H7.33c-.726 0-1.316.59-1.316 1.316v22.928h16.444c.466 0 .846.38.846.846 0 .465-.38.845-.846.845H2c.247.294.616.47 1.007.471h20.767v-.72zm8.896 9.494l-3.306-3.306a.61.61 0 0 0-.842 0l-3.306 3.306v-8.524a.72.72 0 0 0-.72-.72h-.471v.721H3.007a1.573 1.573 0 0 1-1.356-.784l-.107-.187h20.914a.596.596 0 1 0 0-1.19H5.764V3.853c0-.864.702-1.566 1.566-1.566h30.878l-.113.19c-.248.415-.38.891-.383 1.376v23.178h-2.286a.596.596 0 0 0 0 1.191h2.183l-.107.187a1.573 1.573 0 0 1-1.356.784H33.86v-.72h-.585a.607.607 0 0 0-.606.605v8.638zm-3.727-2.043l3.902 3.901a.597.597 0 0 0 1.016-.42v-8.77h2.286a2.76 2.76 0 0 0 2.757-2.757V4.45h3.727a.596.596 0 0 0 .596-.595 2.76 2.76 0 0 0-2.757-2.757H7.329a2.76 2.76 0 0 0-2.756 2.757v23.178H.846a.596.596 0 0 0-.596.596 2.76 2.76 0 0 0 2.757 2.756h21.017v8.77a.59.59 0 0 0 .175.421.594.594 0 0 0 .842 0l3.9-3.9zM33.265 40a.842.842 0 0 1-.598-.248l-3.725-3.725-3.725 3.725a.84.84 0 0 1-.597.247h-.001a.842.842 0 0 1-.845-.845v-8.52H3.007A3.01 3.01 0 0 1 0 27.628c0-.467.379-.846.846-.846h3.477V3.854A3.01 3.01 0 0 1 7.33.847h33.139a3.01 3.01 0 0 1 3.007 3.007c0 .466-.38.845-.846.845h-3.477v22.93a3.01 3.01 0 0 1-3.007 3.005H34.11v8.52a.843.843 0 0 1-.845.846z" mask="url(#b)"/></g><path fill="#C62032" d="M24.527 21.668l-.74-1.323 1.376-.632a.723.723 0 0 0 .415-.57l.177-1.508 1.49.295a.714.714 0 0 0 .668-.217l1.03-1.117 1.027 1.114a.71.71 0 0 0 .67.216l1.488-.295.177 1.508a.72.72 0 0 0 .415.57l1.378.633-.74 1.322a.72.72 0 0 0 0 .705l.74 1.322-1.378.632a.724.724 0 0 0-.415.57l-.177 1.509-1.489-.295a.71.71 0 0 0-.669.216l-1.028 1.116-1.029-1.114a.718.718 0 0 0-.669-.217l-1.489.294-.177-1.507a.723.723 0 0 0-.415-.571l-1.377-.632.741-1.322a.707.707 0 0 0 0-.705v.003zm-.11 5.68a.72.72 0 0 0 .854.622l1.858-.368 1.284 1.39a.72.72 0 0 0 1.018.04.503.503 0 0 0 .04-.04l1.284-1.39 1.857.368a.717.717 0 0 0 .852-.622l.222-1.88 1.72-.79a.72.72 0 0 0 .327-1.008l-.923-1.653.926-1.652a.72.72 0 0 0-.327-1.008l-1.72-.788-.222-1.88a.72.72 0 0 0-.8-.63l-.055.008-1.857.369-1.285-1.392a.742.742 0 0 0-1.049-.008l-.008.008-1.284 1.392-1.858-.37a.722.722 0 0 0-.855.623l-.222 1.88-1.72.789a.72.72 0 0 0-.327 1.009l.926 1.65-.926 1.652a.719.719 0 0 0 .327 1.009l1.72.789.222 1.88z"/><path fill="#C62032" d="M27.384 25.968a.85.85 0 0 1 .621.271l.937 1.015.937-1.016a.844.844 0 0 1 .785-.254l1.356.27.161-1.375a.854.854 0 0 1 .487-.67l1.255-.575-.675-1.205a.834.834 0 0 1 0-.826l.675-1.204-1.255-.576a.851.851 0 0 1-.487-.669l-.16-1.374-1.358.268a.84.84 0 0 1-.785-.254l-.936-1.014-.937 1.018a.843.843 0 0 1-.786.254l-1.356-.269-.16 1.374a.852.852 0 0 1-.487.67l-1.255.575.674 1.2c.147.252.147.57.001.83l-.675 1.203 1.255.575a.852.852 0 0 1 .486.67l.161 1.373 1.357-.268a.807.807 0 0 1 .164-.017zm1.558 1.654l-1.12-1.213a.595.595 0 0 0-.552-.179l-1.623.321-.193-1.642a.597.597 0 0 0-.343-.47l-1.5-.69.807-1.44a.587.587 0 0 0 .024-.538l-.83-1.483 1.5-.689a.596.596 0 0 0 .342-.47l.193-1.643 1.622.321a.592.592 0 0 0 .552-.178l1.121-1.218 1.12 1.214c.14.152.35.221.551.178l1.624-.32.192 1.641a.601.601 0 0 0 .344.472l1.5.688-.807 1.441a.587.587 0 0 0 0 .582l.807 1.441-1.5.69a.6.6 0 0 0-.344.47l-.192 1.643-1.623-.322a.589.589 0 0 0-.55.178l-1.122 1.215zm-1.769-.156l1.332 1.442c.223.241.6.256.841.033l.033-.033 1.332-1.442 1.925.381a.595.595 0 0 0 .704-.513l.23-1.95 1.783-.819a.596.596 0 0 0 .294-.789l-.023-.045-.957-1.714.961-1.713a.592.592 0 0 0 .054-.453.592.592 0 0 0-.28-.358l-.045-.023-1.784-.816-.23-1.95a.595.595 0 0 0-.66-.522l-.049.008-1.923.382-1.332-1.443a.617.617 0 0 0-.87-.004l-1.336 1.447-1.926-.382a.594.594 0 0 0-.7.468l-.006.044-.23 1.952-1.784.818a.595.595 0 0 0-.294.79l.023.044.961 1.711-.96 1.713a.586.586 0 0 0-.056.452.585.585 0 0 0 .326.382l1.783.818.23 1.951a.592.592 0 0 0 .708.514l1.925-.38zm1.77 1.882a.844.844 0 0 1-.622-.27l-1.237-1.34-1.788.355-.066.01a.83.83 0 0 1-.62-.176.838.838 0 0 1-.318-.564l-.214-1.812-1.656-.76-.062-.03a.84.84 0 0 1-.4-.51.84.84 0 0 1 .078-.644l.891-1.59-.89-1.59a.846.846 0 0 1 .384-1.183l1.655-.759.214-1.81a.84.84 0 0 1 .369-.602.84.84 0 0 1 .635-.128l1.788.354 1.237-1.34a.872.872 0 0 1 1.238-.003L30.8 16.3l1.788-.354a.851.851 0 0 1 1.004.729l.213 1.811 1.656.758a.839.839 0 0 1 .462.54.84.84 0 0 1-.078.643l-.892 1.591.89 1.592.031.063a.848.848 0 0 1-.416 1.121l-1.657.76-.213 1.81a.85.85 0 0 1-.338.584.846.846 0 0 1-.663.146l-1.787-.355-1.238 1.34a.842.842 0 0 1-.62.27z"/><path fill="#C62032" d="M28.942 19.856a2.161 2.161 0 1 1 0 4.322 2.161 2.161 0 0 1 0-4.322m0 5.763a3.602 3.602 0 1 0 0-7.204 3.602 3.602 0 0 0 0 7.204"/><path fill="#C62032" d="M28.942 19.98a2.039 2.039 0 0 0-2.036 2.037c0 1.123.913 2.037 2.036 2.037a2.039 2.039 0 0 0 2.036-2.037 2.039 2.039 0 0 0-2.036-2.036m0 4.323a2.289 2.289 0 0 1-2.286-2.287 2.288 2.288 0 0 1 2.286-2.286 2.288 2.288 0 0 1 2.286 2.286 2.289 2.289 0 0 1-2.286 2.287m0-5.764a3.481 3.481 0 0 0-3.477 3.477 3.486 3.486 0 0 0 3.477 3.477 3.48 3.48 0 0 0 3.477-3.477 3.481 3.481 0 0 0-3.477-3.477m0 7.204a3.736 3.736 0 0 1-3.727-3.727 3.731 3.731 0 0 1 3.727-3.727 3.731 3.731 0 0 1 3.727 3.727 3.731 3.731 0 0 1-3.727 3.727M16.695 5.448H26.78a.72.72 0 1 1 0 1.44H16.695a.72.72 0 0 1 0-1.44"/><path fill="#C62032" d="M16.695 5.573a.596.596 0 0 0 0 1.19H26.78a.596.596 0 0 0 0-1.19H16.695zm10.086 1.44H16.695a.846.846 0 0 1 0-1.69H26.78a.846.846 0 0 1 0 1.69zM9.49 9.77h24.495a.721.721 0 0 1 0 1.441H9.49a.72.72 0 1 1 0-1.441"/><path fill="#C62032" d="M9.49 9.895a.596.596 0 0 0 0 1.191h24.495a.596.596 0 1 0 0-1.191H9.49zm24.495 1.441H9.49a.847.847 0 0 1 0-1.691h24.494a.847.847 0 0 1 0 1.691zM9.49 12.652h24.495a.72.72 0 1 1 0 1.44H9.49a.721.721 0 0 1 0-1.44"/><path fill="#C62032" d="M9.49 12.777a.596.596 0 1 0 0 1.19h24.495a.596.596 0 0 0 0-1.19H9.49zm24.495 1.44H9.49a.847.847 0 0 1 0-1.691h24.494a.847.847 0 0 1 0 1.692zm-23.775 7.8h7.926a.72.72 0 0 1 0 1.441H10.21a.72.72 0 1 1 0-1.44"/><path fill="#C62032" d="M10.21 22.142a.596.596 0 0 0 0 1.191h7.926a.596.596 0 0 0 0-1.19H10.21zm7.926 1.441H10.21a.846.846 0 0 1 0-1.69h7.925a.846.846 0 0 1 0 1.69z"/></g></svg>