<svg xmlns="http://www.w3.org/2000/svg" xmlns:xlink="http://www.w3.org/1999/xlink" width="46" height="47"><defs><path id="a" d="M0 .096h45.536V41H0z"/><path id="c" d="M.652.443h12.803V13.24H.652z"/></defs><g fill="none" fill-rule="evenodd"><path fill="#FFF" d="M-1025-1704H895v8229h-1920z"/><g transform="translate(0 6)"><mask id="b" fill="#fff"><use xlink:href="#a"/></mask><path fill="#C62032" d="M43.501 25.447v2.013c0 1.588-1.3 2.878-2.898 2.878H4.933c-1.598 0-2.898-1.29-2.898-2.878v-2.013h41.466zM28.487 38.979H17.05l1.334-6.62h8.772l1.332 6.62zM40.603.096h-9.306l-.006 2.02h9.312c1.598 0 2.898 1.291 2.898 2.879v18.43H2.035V4.996c0-1.588 1.3-2.879 2.898-2.879h11.061l-.022-2.02H4.933C2.213.096 0 2.293 0 4.995V27.46c0 2.702 2.213 4.9 4.933 4.9h11.374l-1.333 6.619h-4.387c-.56 0-1.017.453-1.017 1.01 0 .557.457 1.01 1.017 1.01H34.95c.561 0 1.016-.453 1.016-1.01 0-.557-.455-1.01-1.016-1.01h-4.387l-1.333-6.62h11.374c2.721 0 4.934-2.197 4.934-4.899V4.995c0-2.702-2.213-4.9-4.934-4.9z" mask="url(#b)"/></g><path fill="#C62032" d="M23 34a1.001 1.001 0 0 0 0-2 1 1 0 0 0 0 2"/><g transform="translate(17)"><mask id="d" fill="#fff"><use xlink:href="#c"/></mask><path fill="#C62032" d="M8.651 6a.901.901 0 0 0-.266.643.9.9 0 0 0 .266.64l2.615 2.616-1.159 1.158-2.615-2.614a.909.909 0 0 0-.642-.258.907.907 0 0 0-.638.257l-1.693 1.692L2.77 2.562l7.574 1.747-1.692 1.692zm-4.9 6.805a.904.904 0 0 0 .89-.231l2.21-2.207 2.614 2.614a.917.917 0 0 0 .641.259h.001a.902.902 0 0 0 .64-.259l2.443-2.442a.9.9 0 0 0 .265-.641.895.895 0 0 0-.265-.641l-2.615-2.614 2.208-2.209a.904.904 0 0 0-.438-1.525L1.765.467A.897.897 0 0 0 .919.71a.9.9 0 0 0-.243.845l2.442 10.581a.909.909 0 0 0 .633.669z" mask="url(#d)"/></g></g></svg>