<svg width="108" height="92" xmlns="http://www.w3.org/2000/svg" xmlns:xlink="http://www.w3.org/1999/xlink"><defs><path id="a" d="M0 0h107.172v91.251H0z"/></defs><g fill="none" fill-rule="evenodd"><path fill="#FFF" d="M-369-2311h1920V7786H-369z"/><mask id="b" fill="#fff"><use xlink:href="#a"/></mask><path d="M31.765 35.707h43.642V60.27l-3.967 1.984V45.626c0-6.614-11.903-6.614-11.903 0V68.37l-7.935 5.29V45.626v.034c.118-6.635-11.902-6.672-11.902-.034v-.036l-.599 35.08-7.336 4.891V35.707zm-1.984-3.968c-1.096 0-1.984.89-1.984 1.984v55.545a1.984 1.984 0 0 0 3.085 1.65l11.284-7.524c.542-.36.871-.965.883-1.616l.618-36.12v-.032c0-1.302 3.991-1.339 3.968-.036v31.775a1.982 1.982 0 0 0 3.084 1.651l11.902-7.935c.552-.368.884-.988.884-1.65V45.625c0-1.325 3.967-1.325 3.967 0v19.837c0 1.096.89 1.984 1.986 1.984.306 0 .61-.072.885-.212l7.935-3.967a1.98 1.98 0 0 0 1.097-1.773V33.723a1.984 1.984 0 0 0-1.984-1.984h-47.61zM7.961 3.967h91.251V5.13l-6.773 6.772H14.733L7.96 5.13V3.967zM5.975 0a1.983 1.983 0 0 0-1.983 1.983v3.968c0 .527.21 1.03.581 1.402l7.935 7.935c.372.372.875.582 1.402.582h79.35c.526 0 1.03-.21 1.402-.582l7.935-7.935a1.98 1.98 0 0 0 .581-1.402V1.983A1.985 1.985 0 0 0 101.196 0H5.976zm7.47 19.846c-7.75.618-14.115 7.41-13.39 15.382.622 6.847 6.674 12.465 13.758 11.713 5.94-.63 10.812-5.949 10.024-12.143-.642-5.03-5.237-9.165-10.544-8.32-4.123.655-7.53 4.55-6.589 8.983a6.52 6.52 0 0 0 2.574 3.944c1.314.945 3.145 1.408 4.927.841a4.805 4.805 0 0 0 2.733-2.19c.632-1.075.837-2.746-.009-4.073-.68-1.07-1.306-1.283-2.287-1.448-.492-.08-1.178-.112-1.906.363-.73.475-1.117 1.456-1.117 2.15a1.975 1.975 0 0 0 .571 1.418 1.796 1.796 0 0 1-.593-.28c-.478-.346-.89-.97-1.013-1.548-.42-1.983 1.281-3.916 3.33-4.243 2.916-.463 5.612 1.964 5.986 4.903.488 3.838-2.675 7.29-6.507 7.697-4.75.504-8.956-3.4-9.386-8.127-.515-5.659 4.132-10.618 9.754-11.066l.15-.009h79.35l.148.01c5.622.447 10.27 5.406 9.754 11.067-.43 4.725-4.636 8.63-9.386 8.125-3.832-.407-6.996-3.859-6.507-7.695.374-2.939 3.07-5.368 5.986-4.903 2.05.325 3.75 2.258 3.33 4.241-.122.58-.535 1.204-1.013 1.548a1.876 1.876 0 0 1-.59.282c.371-.378.574-.889.568-1.418 0-.696-.387-1.676-1.115-2.152-.73-.475-1.417-.444-1.907-.36-.982.164-1.608.375-2.29 1.447-.844 1.327-.639 2.998-.006 4.07a4.8 4.8 0 0 0 2.732 2.191c1.784.567 3.613.104 4.927-.84a6.52 6.52 0 0 0 2.574-3.945c.941-4.43-2.468-8.326-6.588-8.983-5.308-.845-9.904 3.291-10.545 8.322-.788 6.194 4.086 11.511 10.025 12.141 7.083.752 13.135-4.864 13.757-11.71.724-7.976-5.64-14.767-13.39-15.385-.16-.023-.31-.013-.465-.017H13.91c-.153-.009-.315.008-.465.02v-.003z" fill="#C60C30" mask="url(#b)"/></g></svg>