<svg xmlns="http://www.w3.org/2000/svg" xmlns:xlink="http://www.w3.org/1999/xlink" width="42" height="43"><defs><path id="a" d="M0 .616h19.445v19.446H0z"/></defs><g fill="none" fill-rule="evenodd"><path fill="#C62032" d="M24.24 36.967c-.238.234-.9.248-1.176.036.007-.055.036-.18.156-.378a2.28 2.28 0 0 1 .616-.665c.157.205.288.442.359.653.068.203.06.326.046.354m-.282-2.706c-.905 0-1.96 1.026-2.342 1.946-.305.74-.21 1.433.262 1.905.433.432 1.072.68 1.755.68.682 0 1.322-.248 1.755-.68.49-.49.613-1.205.343-2.012a4.01 4.01 0 0 0-.934-1.498 1.177 1.177 0 0 0-.84-.34M6.96 18.554a.807.807 0 0 0 .753-.514.803.803 0 0 0-.01-.62.801.801 0 0 0-.447-.431 6.76 6.76 0 0 1-3.8-3.801.8.8 0 0 0-.43-.447.799.799 0 0 0-.62-.012.801.801 0 0 0-.447.43.801.801 0 0 0-.01.622 8.386 8.386 0 0 0 4.714 4.717.822.822 0 0 0 .296.056m26.829 7.347c.407 0 .699.094.893.288.03.031.053.057.069.077-.09.138-.398.434-.543.573-.527.504-1.184 1.132-1.495 2.067-.311.933-1.378.981-1.59.981-.383 0-.594-.102-.613-.116-.544-.544-1.415-1.035-2.388-1.533.136.038.273.057.41.057.818 0 1.317-.609 1.764-1.155.275-.335.586-.714.823-.714.263 0 .567-.087.955-.198.51-.146 1.146-.327 1.715-.327m-7.167 3.396c1.103.552 2.243 1.122 2.74 1.62.376.375 1.018.59 1.762.59 1.122 0 2.613-.546 3.127-2.088.185-.555.639-.989 1.08-1.41.542-.52 1.053-1.009 1.06-1.739.006-.435-.184-.848-.563-1.227-.507-.507-1.193-.763-2.04-.763-.794 0-1.582.225-2.157.388l.029.122-.035-.12c-.136.04-.455.131-.506.135-1.006 0-1.628.76-2.083 1.315-.352.43-.5.512-.543.527a2.275 2.275 0 0 0-.991-.229c-.865 0-1.617.522-1.786 1.24-.121.513.052 1.213.906 1.64"/><g transform="translate(0 .384)"><mask id="b" fill="#fff"><use xlink:href="#a"/></mask><path fill="#C62032" d="M5.734 10.339A3.993 3.993 0 0 1 9.722 6.35a3.993 3.993 0 0 1 3.99 3.988 3.994 3.994 0 0 1-3.956 3.989l-.033-.001h-.039a3.995 3.995 0 0 1-3.95-3.988m3.18 5.547v3.365a.81.81 0 0 0 1.62 0v-3.365a5.6 5.6 0 0 0 4.735-4.737h3.366a.81.81 0 0 0 0-1.621H15.27a5.6 5.6 0 0 0-4.736-4.735V1.426a.812.812 0 0 0-1.621 0v3.367a5.598 5.598 0 0 0-4.736 4.735H.81a.811.811 0 0 0 0 1.62h3.366a5.597 5.597 0 0 0 4.737 4.738" mask="url(#b)"/></g><path fill="#C62032" d="M41.213 21.95a.81.81 0 0 0-1.45-.378.799.799 0 0 0-.156.6c.103.744.155 1.506.155 2.262 0 8.885-7.216 16.202-16.094 16.328-2.355-1.508-4.615-3.359-3.626-5.665 1.86-4.347.116-5.98-.63-6.677l-.133-.127c-.214-.213-.45-.356-.673-.49-.488-.293-.55-.33-.312-1.045.168-.508.384-.737.66-1.03.654-.69 1.154-1.377 1.154-3.362 0-1.18-.6-2.122-1.645-2.584-1.173-.52-2.744-.333-3.578.424-.538.49-.718 1.154-.495 1.825.472 1.413-.626 3.471-2.671 5.005-.46.344-.567.22-.647.13-.567-.654-.53-2.582-.067-3.045.374-.374.484-.856.292-1.288-.591-1.342-4.205-1.237-4.921-1.204a.283.283 0 0 0-.092.023.795.795 0 0 0-.15.036.836.836 0 0 0-.15.077.702.702 0 0 0-.22.208.778.778 0 0 0-.072.12c-.027.054-.042.108-.06.171-.007.017-.018.043-.023.076a16.387 16.387 0 0 0-.125 2.094A17.907 17.907 0 0 0 19.113 41.86a.808.808 0 0 0 .982-.592.797.797 0 0 0-.092-.612.804.804 0 0 0-.5-.369A16.29 16.29 0 0 1 7.106 24.434c0-.42.014-.804.044-1.198 1.05.005 1.876.121 2.339.237-.74 1.337-.578 3.675.359 4.755.736.85 1.799.89 2.844.105 2.678-2.009 3.948-4.684 3.235-6.815-.014-.047-.017-.054.049-.113.325-.297 1.195-.422 1.83-.14.465.205.68.555.68 1.101 0 1.498-.282 1.796-.712 2.251-.33.348-.737.781-1.02 1.63-.647 1.947.436 2.597 1.02 2.947.145.087.282.17.358.245.047.047.1.096.174.166.58.543 1.659 1.553.246 4.852-1.685 3.931 2.614 6.644 4.45 7.802a.815.815 0 0 0 .432.125c9.898 0 17.95-8.052 17.95-17.95 0-.823-.058-1.659-.171-2.484"/><path fill="#C62032" d="M19.2 8.511a.803.803 0 0 0 .61.082c1.155-.302 2.889-.488 3.624-.488 1.12 0 2.237.114 3.323.34.006.968.435 1.65.695 2.062l.072.114.1.161c-.003 1.942-.327 2.555-.432 2.703-1.15.034-2.977 1.043-3.67 2.337-.444.828-.407 1.704.102 2.468.327.491.61 1.04.885 1.572.592 1.146 1.263 2.444 2.353 2.444a1.7 1.7 0 0 0 .754-.194c.837-.419 1.419-1.574 1.982-2.69.207-.41.543-1.08.752-1.342.593.118.903.703 1.334 1.638.348.753.707 1.531 1.434 1.895 1.189.594 5.052-.015 7.178-.917.033-.014.056-.033.098-.063.045-.028.087-.054.123-.087a.719.719 0 0 0 .1-.116.771.771 0 0 0 .085-.129.696.696 0 0 0 .05-.146.875.875 0 0 0 .03-.15c.003-.06-.004-.117-.01-.18 0-.022 0-.053-.01-.088-1.448-5.358-5.385-9.813-10.53-11.919a.81.81 0 1 0-.613 1.5c4.414 1.807 7.907 5.592 9.365 10.141-2.103.714-4.717.912-5.14.704-.218-.109-.478-.67-.688-1.124-.491-1.065-1.164-2.522-2.912-2.6h-.06c-.897 0-1.39.976-2.01 2.205l-.026.052c-.324.643-.858 1.702-1.258 1.96-.228-.155-.76-1.189-.942-1.54-.28-.544-.597-1.158-.975-1.725-.176-.263-.183-.504-.022-.804.435-.81 1.793-1.482 2.302-1.482 1.322 0 1.993-1.466 1.993-4.357 0-.434-.214-.775-.422-1.104-.29-.46-.563-.894-.396-1.657a.807.807 0 0 0-.593-.959 18.02 18.02 0 0 0-4.401-.544c-.933 0-2.82.222-4.033.541a.805.805 0 0 0-.494.375.805.805 0 0 0-.084.614.805.805 0 0 0 .377.497M8.477 10.724c0-.687.56-1.246 1.246-1.246.687 0 1.246.559 1.246 1.246 0 .687-.559 1.246-1.246 1.246a1.247 1.247 0 0 1-1.246-1.246m1.246 2.867a2.87 2.87 0 0 0 2.867-2.867 2.87 2.87 0 0 0-2.867-2.867 2.87 2.87 0 0 0-2.868 2.867 2.87 2.87 0 0 0 2.868 2.867m7.325-.891a.806.806 0 0 0-.62.015.803.803 0 0 0-.43.448 6.758 6.758 0 0 1-3.805 3.824.808.808 0 0 0-.457 1.052.808.808 0 0 0 1.051.456 8.383 8.383 0 0 0 4.721-4.744.797.797 0 0 0-.013-.621.804.804 0 0 0-.447-.43M2.407 8.71a.812.812 0 0 0 1.052-.457A6.768 6.768 0 0 1 7.24 4.466a.812.812 0 0 0 .022-1.498.812.812 0 0 0-.62-.009A8.393 8.393 0 0 0 1.95 7.66a.813.813 0 0 0 .457 1.05m9.797-4.245A6.754 6.754 0 0 1 16 8.288a.818.818 0 0 0 1.05.464.814.814 0 0 0 .462-1.05 8.388 8.388 0 0 0-4.708-4.744.815.815 0 0 0-1.053.454.813.813 0 0 0 .454 1.053"/></g></svg>