<svg xmlns="http://www.w3.org/2000/svg" xmlns:xlink="http://www.w3.org/1999/xlink" width="49" height="49"><defs><path id="a" d="M0 .647h14.791v11.565H0z"/></defs><g fill="none" fill-rule="evenodd"><path fill="#FFF" d="M-607-1702h1920v8229H-607z"/><path fill="#C62032" d="M21.071 4.18a2.417 2.417 0 0 1 2.414-2.414h1.608a2.417 2.417 0 0 1 2.414 2.413v2.412a3.22 3.22 0 0 1-3.218 3.218 3.22 3.22 0 0 1-3.218-3.218V4.18zm3.218 7.239a4.83 4.83 0 0 0 4.826-4.828V4.18A4.026 4.026 0 0 0 25.093.157h-1.608a4.026 4.026 0 0 0-4.022 4.022v2.412a4.83 4.83 0 0 0 4.826 4.828z"/><path fill="#C62032" d="M21.228 4.18v2.41a3.064 3.064 0 0 0 3.06 3.061 3.064 3.064 0 0 0 3.062-3.06V4.178a2.26 2.26 0 0 0-2.257-2.256h-1.608a2.26 2.26 0 0 0-2.257 2.256zm3.06 5.786a3.379 3.379 0 0 1-3.374-3.375V4.18a2.574 2.574 0 0 1 2.57-2.57h1.609a2.574 2.574 0 0 1 2.57 2.57v2.412a3.379 3.379 0 0 1-3.374 3.375zM23.486.314A3.87 3.87 0 0 0 19.62 4.18v2.412a4.674 4.674 0 0 0 4.669 4.67 4.674 4.674 0 0 0 4.669-4.67V4.18A3.87 3.87 0 0 0 25.093.314h-1.608zm.804 11.262a4.989 4.989 0 0 1-4.983-4.985V4.18A4.183 4.183 0 0 1 23.485 0h1.608a4.183 4.183 0 0 1 4.179 4.18v2.41a4.989 4.989 0 0 1-4.983 4.985zm3.216 17.539a3.22 3.22 0 0 1-3.218 3.218 3.222 3.222 0 0 1-3.217-3.218v-2.413a2.416 2.416 0 0 1 2.413-2.413h1.61a2.415 2.415 0 0 1 2.412 2.413v2.413zm-2.412-6.435h-1.61a4.026 4.026 0 0 0-4.021 4.022v2.413a4.831 4.831 0 0 0 4.825 4.826 4.831 4.831 0 0 0 4.828-4.826v-2.413a4.026 4.026 0 0 0-4.022-4.022z"/><path fill="#C62032" d="M23.485 24.446a2.26 2.26 0 0 0-2.257 2.255v2.414a3.064 3.064 0 0 0 3.06 3.06 3.064 3.064 0 0 0 3.061-3.06V26.7a2.259 2.259 0 0 0-2.256-2.255h-1.608zm.804 8.044a3.379 3.379 0 0 1-3.375-3.375V26.7a2.573 2.573 0 0 1 2.57-2.569h1.609a2.573 2.573 0 0 1 2.57 2.57v2.413a3.379 3.379 0 0 1-3.374 3.375zm-.804-9.653A3.87 3.87 0 0 0 19.62 26.7v2.414a4.674 4.674 0 0 0 4.669 4.67 4.674 4.674 0 0 0 4.669-4.67V26.7a3.868 3.868 0 0 0-3.865-3.864h-1.608zm.804 11.262a4.99 4.99 0 0 1-4.983-4.984V26.7a4.183 4.183 0 0 1 4.179-4.178h1.608a4.183 4.183 0 0 1 4.179 4.178v2.414a4.99 4.99 0 0 1-4.983 4.984zM28.31 15.44a2.415 2.415 0 0 1 2.413-2.412h1.61a2.416 2.416 0 0 1 2.413 2.412v2.414a3.22 3.22 0 0 1-3.217 3.216 3.22 3.22 0 0 1-3.218-3.216V15.44zm-1.607 0v2.414a4.83 4.83 0 0 0 4.826 4.826 4.83 4.83 0 0 0 4.825-4.826V15.44a4.026 4.026 0 0 0-4.021-4.022h-1.61a4.026 4.026 0 0 0-4.02 4.022z"/><path fill="#C62032" d="M30.724 13.184a2.258 2.258 0 0 0-2.256 2.256v2.413a3.064 3.064 0 0 0 3.061 3.06 3.064 3.064 0 0 0 3.06-3.06V15.44a2.258 2.258 0 0 0-2.256-2.256h-1.61zm.805 8.044a3.379 3.379 0 0 1-3.375-3.375V15.44a2.572 2.572 0 0 1 2.57-2.57h1.61a2.572 2.572 0 0 1 2.569 2.57v2.413a3.378 3.378 0 0 1-3.374 3.375zm-.805-9.652a3.869 3.869 0 0 0-3.865 3.864v2.413a4.674 4.674 0 0 0 4.669 4.67 4.675 4.675 0 0 0 4.67-4.67V15.44a3.869 3.869 0 0 0-3.865-3.864h-1.61zm.804 11.261a4.99 4.99 0 0 1-4.983-4.984V15.44a4.182 4.182 0 0 1 4.179-4.178h1.61a4.182 4.182 0 0 1 4.178 4.178v2.413a4.99 4.99 0 0 1-4.984 4.984zm4.022 3.865a2.415 2.415 0 0 1 2.413-2.412h1.61a2.416 2.416 0 0 1 2.413 2.412v2.413a3.22 3.22 0 0 1-3.218 3.217 3.22 3.22 0 0 1-3.217-3.217v-2.413zm3.218 7.24a4.831 4.831 0 0 0 4.826-4.827v-2.413a4.026 4.026 0 0 0-4.022-4.022h-1.61a4.026 4.026 0 0 0-4.02 4.022v2.413a4.831 4.831 0 0 0 4.826 4.826z"/><path fill="#C62032" d="M37.963 24.446a2.258 2.258 0 0 0-2.255 2.255v2.414a3.063 3.063 0 0 0 3.06 3.06 3.064 3.064 0 0 0 3.06-3.06V26.7a2.258 2.258 0 0 0-2.255-2.255h-1.61zm.805 8.044a3.378 3.378 0 0 1-3.374-3.375V26.7a2.572 2.572 0 0 1 2.57-2.569h1.609a2.572 2.572 0 0 1 2.57 2.57v2.413a3.379 3.379 0 0 1-3.375 3.375zm-.805-9.653A3.87 3.87 0 0 0 34.1 26.7v2.414a4.674 4.674 0 0 0 4.669 4.67 4.675 4.675 0 0 0 4.67-4.67V26.7a3.87 3.87 0 0 0-3.865-3.864h-1.61zm.805 11.262a4.99 4.99 0 0 1-4.983-4.984V26.7a4.183 4.183 0 0 1 4.178-4.178h1.61a4.183 4.183 0 0 1 4.179 4.178v2.414a4.99 4.99 0 0 1-4.984 4.984zM26.736 35.56c-.36.008-.699.223-.805.573l-1.642 5.47-1.643-5.468a.803.803 0 0 0-.769-.573c-2.79-.01-4.843.595-6.037 1.785-.788.787-1.204 1.834-1.204 3.03v7.239a.805.805 0 0 0 1.609 0v-7.24c0-.769.246-1.406.732-1.89.792-.79 2.273-1.238 4.303-1.307l2.238 7.451a.806.806 0 0 0 1.541 0l2.238-7.451c2.03.069 3.512.516 4.305 1.308.485.483.73 1.12.73 1.89v7.239a.805.805 0 0 0 1.609 0v-7.24c0-1.195-.416-2.242-1.204-3.029-1.187-1.185-3.207-1.787-6.001-1.787"/><path fill="#C62032" d="M27.182 37.017l.12.004c2.069.071 3.593.539 4.41 1.354.516.515.779 1.189.779 2.002v7.239a.647.647 0 0 0 1.294 0v-7.24c0-1.152-.401-2.16-1.159-2.917-1.157-1.156-3.138-1.741-5.889-1.741-.311.006-.575.192-.655.46l-1.793 5.97-1.793-5.97a.642.642 0 0 0-.618-.459h-.06c-2.736 0-4.71.585-5.867 1.74-.757.756-1.158 1.765-1.158 2.918v7.239a.647.647 0 0 0 1.294 0v-7.24c0-.812.262-1.486.779-2.001.816-.815 2.34-1.283 4.409-1.353l.121-.005 2.272 7.567a.655.655 0 0 0 .62.461c.285 0 .538-.19.621-.46l2.273-7.568zm5.954 11.56a.96.96 0 0 1-.96-.961v-7.24c0-.726-.23-1.324-.686-1.779-.745-.742-2.152-1.176-4.077-1.257l-2.203 7.336a.969.969 0 0 1-.921.683.968.968 0 0 1-.921-.683l-2.203-7.336c-1.925.081-3.333.515-4.077 1.257-.456.455-.687 1.053-.687 1.78v7.239a.962.962 0 0 1-1.922 0v-7.24c0-1.237.432-2.323 1.25-3.14 1.218-1.215 3.266-1.831 6.088-1.831h.06c.428 0 .797.275.92.683l1.492 4.968 1.492-4.968c.12-.4.503-.676.951-.684h.004c2.837 0 4.894.617 6.113 1.833.818.816 1.25 1.902 1.25 3.14v7.239c0 .53-.431.961-.963.961zM13.832 15.44a2.415 2.415 0 0 1 2.413-2.412h1.609a2.416 2.416 0 0 1 2.414 2.412v2.414a3.22 3.22 0 0 1-3.218 3.216 3.22 3.22 0 0 1-3.218-3.216V15.44zm3.218 7.24a4.83 4.83 0 0 0 4.826-4.826V15.44a4.026 4.026 0 0 0-4.022-4.022h-1.61a4.026 4.026 0 0 0-4.021 4.022v2.414a4.83 4.83 0 0 0 4.827 4.826z"/><path fill="#C62032" d="M16.245 13.184a2.258 2.258 0 0 0-2.255 2.256v2.413a3.063 3.063 0 0 0 3.06 3.06 3.064 3.064 0 0 0 3.06-3.06V15.44a2.258 2.258 0 0 0-2.256-2.256h-1.609zm.804 8.044a3.378 3.378 0 0 1-3.373-3.375V15.44a2.572 2.572 0 0 1 2.569-2.57h1.61a2.572 2.572 0 0 1 2.569 2.57v2.413a3.379 3.379 0 0 1-3.375 3.375zm-.804-9.652a3.869 3.869 0 0 0-3.865 3.864v2.413a4.674 4.674 0 0 0 4.67 4.67 4.674 4.674 0 0 0 4.668-4.67V15.44a3.868 3.868 0 0 0-3.864-3.864h-1.609zm.804 11.261a4.99 4.99 0 0 1-4.983-4.984V15.44a4.182 4.182 0 0 1 4.179-4.178h1.61a4.181 4.181 0 0 1 4.177 4.178v2.413a4.99 4.99 0 0 1-4.983 4.984zm30.167 14.511c-1.187-1.186-3.206-1.788-6-1.788-.356.008-.7.223-.806.573l-1.642 5.47-1.643-5.469a.804.804 0 0 0-.768-.572 21.22 21.22 0 0 0-1.646.071.805.805 0 0 0-.724.878.808.808 0 0 0 .877.724c.287-.028.587-.046.895-.056l2.239 7.451a.804.804 0 0 0 1.541 0l2.237-7.451c2.03.069 3.511.516 4.304 1.307.485.485.731 1.121.731 1.89v5.631a.805.805 0 0 0 1.61 0v-5.63c0-1.196-.417-2.244-1.205-3.029"/><path fill="#C62032" d="M41.66 37.017l.122.004c2.068.071 3.593.539 4.408 1.354.517.515.78 1.189.78 2.002v5.63a.648.648 0 0 0 1.293 0v-5.63c0-1.153-.4-2.162-1.158-2.918-1.157-1.156-3.139-1.741-5.89-1.741-.304.006-.574.196-.653.46l-1.795 5.97-1.792-5.97a.65.65 0 0 0-.617-.459c-.51.008-1.101.02-1.632.07a.649.649 0 0 0-.582.708c.032.353.333.603.708.581.29-.027.593-.046.903-.056l.12-.004 2.273 7.566a.652.652 0 0 0 .62.461c.283 0 .538-.19.62-.46l2.273-7.568zm5.956 9.952a.962.962 0 0 1-.96-.961v-5.631c0-.727-.232-1.326-.687-1.78-.744-.742-2.152-1.176-4.077-1.257l-2.202 7.336a.97.97 0 0 1-.923.683.967.967 0 0 1-.92-.683l-2.203-7.336a14.42 14.42 0 0 0-.764.051c-.546.038-.999-.339-1.049-.865a.965.965 0 0 1 .866-1.05c.542-.051 1.14-.064 1.658-.071.422 0 .8.281.92.683l1.492 4.968 1.493-4.968c.12-.4.503-.676.952-.684 2.841 0 4.898.617 6.115 1.833.818.816 1.25 1.902 1.25 3.14v5.63c0 .53-.43.962-.96.962zM6.592 26.702a2.416 2.416 0 0 1 2.413-2.412h1.609a2.416 2.416 0 0 1 2.413 2.412v2.413a3.22 3.22 0 0 1-3.216 3.217 3.22 3.22 0 0 1-3.22-3.217v-2.413zm3.219 7.24a4.83 4.83 0 0 0 4.824-4.827v-2.413a4.026 4.026 0 0 0-4.021-4.022H9.005a4.026 4.026 0 0 0-4.021 4.022v2.413a4.831 4.831 0 0 0 4.827 4.826z"/><path fill="#C62032" d="M9.005 24.446a2.26 2.26 0 0 0-2.256 2.255v2.414a3.065 3.065 0 0 0 3.062 3.06 3.064 3.064 0 0 0 3.059-3.06V26.7a2.259 2.259 0 0 0-2.256-2.255H9.005zm.806 8.044a3.379 3.379 0 0 1-3.376-3.375V26.7a2.573 2.573 0 0 1 2.57-2.569h1.609a2.573 2.573 0 0 1 2.57 2.57v2.413a3.378 3.378 0 0 1-3.373 3.375zm-.806-9.653A3.87 3.87 0 0 0 5.141 26.7v2.414a4.675 4.675 0 0 0 4.67 4.67 4.674 4.674 0 0 0 4.667-4.67V26.7a3.868 3.868 0 0 0-3.864-3.864H9.005zm.806 11.262a4.99 4.99 0 0 1-4.984-4.984V26.7a4.183 4.183 0 0 1 4.178-4.178h1.609a4.183 4.183 0 0 1 4.178 4.178v2.414a4.99 4.99 0 0 1-4.981 4.984zm4.099 1.539a16.872 16.872 0 0 0-1.662-.078.827.827 0 0 0-.796.574l-1.642 5.47-1.642-5.47a.807.807 0 0 0-.77-.573c-2.85-.007-4.844.596-6.036 1.787-.788.786-1.205 1.833-1.205 3.028v5.631a.805.805 0 0 0 1.608 0v-5.631c0-.77.248-1.405.732-1.89.793-.79 2.273-1.239 4.304-1.307L9.04 44.63a.806.806 0 0 0 1.541 0l2.237-7.452c.326.011.638.032.932.06a.797.797 0 0 0 .88-.72.806.806 0 0 0-.72-.88"/><g transform="translate(0 34.757)"><mask id="b" fill="#fff"><use xlink:href="#a"/></mask><path fill="#C62032" d="M7.34.962c-2.738 0-4.712.585-5.868 1.74C.715 3.458.314 4.467.314 5.619v5.632a.648.648 0 0 0 1.294 0V5.619c0-.811.263-1.486.779-2.001.818-.815 2.342-1.283 4.409-1.352l.12-.004.035.115L9.19 9.828c.083.27.337.46.62.46s.54-.19.621-.46l2.273-7.568.12.005c.33.01.647.031.942.06a.64.64 0 0 0 .709-.578.648.648 0 0 0-.58-.71 16.86 16.86 0 0 0-1.646-.076.673.673 0 0 0-.645.46L9.81 7.393l-1.793-5.97a.644.644 0 0 0-.62-.461H7.34zM.96 12.212A.962.962 0 0 1 0 11.25V5.619c0-1.237.432-2.323 1.25-3.14C2.469 1.264 4.517.649 7.34.649h.059c.426 0 .795.275.918.683l1.493 4.97 1.492-4.97a.976.976 0 0 1 .945-.684c.595 0 1.16.026 1.679.077h.001a.964.964 0 0 1 .51 1.707.94.94 0 0 1-.705.207 13.62 13.62 0 0 0-.799-.055L10.731 9.92a.968.968 0 0 1-.921.683.968.968 0 0 1-.921-.683L6.685 2.584c-1.923.08-3.332.514-4.077 1.256-.455.455-.686 1.053-.686 1.78v5.63c0 .53-.43.962-.961.962z" mask="url(#b)"/></g></g></svg>