<svg width="38" height="59" xmlns="http://www.w3.org/2000/svg" xmlns:xlink="http://www.w3.org/1999/xlink"><defs><path id="a" d="M0 .008h37.411V54H0z"/><path id="c" d="M0 59.992h37.411V1H0z"/></defs><g fill="none" fill-rule="evenodd"><path fill="#FFF" d="M-324-1788h1920V8309H-324z"/><g transform="translate(0 -1)"><g transform="translate(0 .992)"><mask id="b" fill="#fff"><use xlink:href="#a"/></mask><path d="M2.079 54V2.087h33.254V54h2.079V1.047a1.04 1.04 0 0 0-1.04-1.039H1.039a1.04 1.04 0 0 0-1.04 1.039V54h2.08z" fill="#C60C30" mask="url(#b)"/></g><path d="M24.94 48.803H12.47a1.04 1.04 0 0 0-1.04 1.04v10.149h2.08v-9.11h4.157v9.11h2.078v-9.11H23.9v9.11h2.079v-10.15a1.04 1.04 0 0 0-1.04-1.04" fill="#C60C30"/><mask id="d" fill="#fff"><use xlink:href="#c"/></mask><path d="M6.235 11.392h4.157V7.235H6.235v4.157zM5.196 13.47h6.235a1.04 1.04 0 0 0 1.039-1.04V6.196a1.04 1.04 0 0 0-1.039-1.04H5.196a1.04 1.04 0 0 0-1.039 1.04v6.235c0 .574.465 1.04 1.039 1.04zm11.431-2.078h4.157V7.235h-4.157v4.157zm-1.039 2.079h6.235a1.04 1.04 0 0 0 1.039-1.04V6.196a1.04 1.04 0 0 0-1.039-1.04h-6.235a1.04 1.04 0 0 0-1.039 1.04v6.235c0 .574.465 1.04 1.039 1.04zm11.431-2.079h4.157V7.235h-4.157v4.157zM25.98 13.47h6.235a1.04 1.04 0 0 0 1.039-1.04V6.196a1.04 1.04 0 0 0-1.039-1.04H25.98a1.04 1.04 0 0 0-1.039 1.04v6.235c0 .574.465 1.04 1.039 1.04zM6.235 21.784h4.157v-4.157H6.235v4.157zm-1.039 2.079h6.235a1.04 1.04 0 0 0 1.039-1.04v-6.235a1.04 1.04 0 0 0-1.039-1.04H5.196a1.04 1.04 0 0 0-1.039 1.04v6.235c0 .574.465 1.04 1.039 1.04zm11.431-2.079h4.157v-4.157h-4.157v4.157zm-1.039 2.079h6.235a1.04 1.04 0 0 0 1.039-1.04v-6.235a1.04 1.04 0 0 0-1.039-1.04h-6.235a1.04 1.04 0 0 0-1.039 1.04v6.235c0 .574.465 1.04 1.039 1.04zm11.431-2.079h4.157v-4.157h-4.157v4.157zm-1.039 2.079h6.235a1.04 1.04 0 0 0 1.039-1.04v-6.235a1.04 1.04 0 0 0-1.039-1.04H25.98a1.04 1.04 0 0 0-1.039 1.04v6.235c0 .574.465 1.04 1.039 1.04zM6.235 32.176h4.157v-4.157H6.235v4.157zm-1.039 2.078h6.235c.574 0 1.039-.465 1.039-1.04V26.98a1.04 1.04 0 0 0-1.039-1.04H5.196a1.04 1.04 0 0 0-1.039 1.04v6.235c0 .574.465 1.039 1.039 1.039zm11.431-2.078h4.157v-4.157h-4.157v4.157zm-1.039 2.078h6.235c.574 0 1.039-.465 1.039-1.04V26.98a1.04 1.04 0 0 0-1.039-1.04h-6.235a1.04 1.04 0 0 0-1.039 1.04v6.235c0 .574.465 1.039 1.039 1.039zm11.431-2.078h4.157v-4.157h-4.157v4.157zm-1.039 2.078h6.235c.574 0 1.039-.465 1.039-1.04V26.98a1.04 1.04 0 0 0-1.039-1.04H25.98a1.04 1.04 0 0 0-1.039 1.04v6.235c0 .574.465 1.039 1.039 1.039zM6.235 42.568h4.157V38.41H6.235v4.157zm-1.039 2.079h6.235a1.04 1.04 0 0 0 1.039-1.04v-6.235a1.04 1.04 0 0 0-1.039-1.04H5.196a1.04 1.04 0 0 0-1.039 1.04v6.235c0 .574.465 1.04 1.039 1.04zm11.431-2.079h4.157V38.41h-4.157v4.157zm-1.039 2.079h6.235a1.04 1.04 0 0 0 1.039-1.04v-6.235a1.04 1.04 0 0 0-1.039-1.04h-6.235a1.04 1.04 0 0 0-1.039 1.04v6.235c0 .574.465 1.04 1.039 1.04zm11.431-2.079h4.157V38.41h-4.157v4.157zm-1.039 2.079h6.235a1.04 1.04 0 0 0 1.039-1.04v-6.235a1.04 1.04 0 0 0-1.039-1.04H25.98a1.04 1.04 0 0 0-1.039 1.04v6.235c0 .574.465 1.04 1.039 1.04z" fill="#C60C30" mask="url(#d)"/></g></g></svg>