<svg width="201" height="60" xmlns="http://www.w3.org/2000/svg" xmlns:xlink="http://www.w3.org/1999/xlink"><defs><path id="a" d="M0 .519h39.466V59H0z"/></defs><g fill="none" fill-rule="evenodd"><path d="M41.94 1.11v58.478h18.827c13.09 0 15.839-8.579 15.839-15.776 0-6.142-1.047-12.516-7.84-14.619 4.487-1.847 8.01-6.333 8.01-12.625 0-13.856-9.52-15.459-15.941-15.459H41.94zM59.206 11.2c3.01 0 4.21 2.791 4.21 6.635 0 4.898-1.52 6.637-3.666 6.637h-4.176V11.2h3.632zm-.338 23.363c4.259 0 5.092 2.246 5.092 7.507 0 7.427-3.303 7.427-5.363 7.427h-3.023V34.563h3.294zM80.432 1.11v58.478h18.826c13.09 0 15.838-8.579 15.838-15.776 0-6.144-1.048-12.517-7.84-14.62 4.487-1.847 8.01-6.332 8.01-12.625 0-13.856-9.52-15.458-15.942-15.458H80.432zM97.695 11.2c3.01 0 4.21 2.791 4.21 6.635 0 4.898-1.521 6.636-3.666 6.636h-4.176V11.2h3.632zm-.338 23.363c4.26 0 5.092 2.246 5.092 7.507 0 7.426-3.303 7.426-5.363 7.426h-3.023V34.563h3.294zM139.732 1.11s-5.11 19.84-6.269 23.432c-1.096-3.607-5.826-23.433-5.826-23.433h-12.7s11.497 37.941 11.562 38.13v20.35h13.64V39.245c.075-.202 11.556-38.137 11.556-38.137h-11.963zm38.22 0s-5.108 19.84-6.269 23.432c-1.096-3.607-5.826-23.433-5.826-23.433h-12.7s11.498 37.941 11.564 38.13v20.35h13.64V39.245c.074-.202 11.555-38.137 11.555-38.137h-11.964z" fill="#FFF"/><g transform="translate(0 .588)"><mask id="b" fill="#fff"><use xlink:href="#a"/></mask><path d="M27.817 59h11.649L27.655.519H11.81L0 58.999h11.65l2.515-12.451h11.137L27.817 59zM16.206 36.44l3.527-17.465L23.26 36.44h-7.054z" fill="#FFF" mask="url(#b)"/></g><path d="M195.873 5.084h.929c.676 0 .799-.386.799-.695 0-.522-.359-.66-.878-.66h-.85v1.355zm-.802-1.95h1.921c.457 0 1.428.125 1.428 1.255 0 .296-.086.73-.734.992v.024c.557.112.592.61.625 1.045.032.67 0 .794.173 1.028h-.839c-.144-.173-.134-.273-.157-.993-.01-.395-.039-.806-.954-.806h-.661v1.8h-.802V3.133zm1.588 5.897c1.969 0 3.524-1.652 3.524-3.687 0-2.049-1.565-3.688-3.524-3.688-1.968 0-3.527 1.64-3.527 3.688 0 2.035 1.551 3.687 3.527 3.687zm0-8.03A4.324 4.324 0 0 1 201 5.343a4.323 4.323 0 0 1-4.341 4.343 4.33 4.33 0 0 1-4.352-4.343A4.33 4.33 0 0 1 196.659 1z" fill="#FFF"/></g></svg>