<svg xmlns="http://www.w3.org/2000/svg" xmlns:xlink="http://www.w3.org/1999/xlink" width="34" height="34"><defs><path id="a" d="M.46.364h9.453v32.982H.46z"/><path id="c" d="M0 .234h9.453v17.42H0z"/></defs><g fill="none" fill-rule="evenodd"><path fill="#FFF" d="M15.517 8.51c-.869 0-1.575.686-1.575 1.528v20.704c0 .842.706 1.528 1.575 1.528h3.491c.87 0 1.576-.686 1.576-1.528V10.038c0-.842-.707-1.528-1.576-1.528h-3.491zm3.491 25.125h-3.491c-1.644 0-2.981-1.297-2.981-2.893V10.038c0-1.596 1.337-2.893 2.981-2.893h3.491c1.644 0 2.982 1.297 2.982 2.893v20.704c0 1.596-1.338 2.893-2.982 2.893z"/><g transform="translate(23.755 .29)"><mask id="b" fill="#fff"><use xlink:href="#a"/></mask><path fill="#FFF" d="M3.44 1.73c-.868 0-1.574.685-1.574 1.528v27.194c0 .843.706 1.53 1.574 1.53h3.491c.87 0 1.576-.687 1.576-1.53V3.258c0-.843-.707-1.528-1.576-1.528h-3.49zm3.491 31.616h-3.49c-1.643 0-2.981-1.298-2.981-2.894V3.258C.46 1.662 1.798.364 3.44.364h3.491c1.644 0 2.982 1.298 2.982 2.894v27.194c0 1.596-1.338 2.894-2.982 2.894z" mask="url(#b)"/></g><g transform="translate(.857 15.982)"><mask id="d" fill="#fff"><use xlink:href="#c"/></mask><path fill="#FFF" d="M2.981 1.598c-.868 0-1.575.686-1.575 1.529V14.76c0 .842.707 1.529 1.575 1.529h3.492c.868 0 1.574-.687 1.574-1.529V3.127c0-.843-.706-1.529-1.574-1.529H2.98zm3.492 16.056H2.98C1.337 17.654 0 16.356 0 14.76V3.127C0 1.531 1.337.234 2.98.234h3.492c1.643 0 2.98 1.297 2.98 2.893V14.76c0 1.596-1.337 2.894-2.98 2.894z" mask="url(#d)"/></g></g></svg>