<svg xmlns="http://www.w3.org/2000/svg" width="40" height="38"><g fill="none" fill-rule="evenodd"><path fill="#FFF" d="M30.985 35.22l-3.835-3.286-4.033-6.63a.639.639 0 0 0-.346-.274l-1.735-.574 1.532-1.52v-.001l2.266-2.249 1.532-1.52.578 1.722a.64.64 0 0 0 .278.344l6.584 3.923 3.39 3.884c.945 1.08.887 2.78-.128 3.787l-2.27 2.253c-1.016 1.009-2.726 1.071-3.813.14m4.719.76l2.27-2.254c1.48-1.47 1.566-3.945.192-5.52l-3.459-3.959a.61.61 0 0 0-.154-.129l-6.468-3.855-.831-2.475a.643.643 0 0 0-1.06-.249l-6.797 6.746a.634.634 0 0 0 .251 1.053l2.494.826 3.964 6.515c.035.057.078.11.13.152l3.912 3.352c1.584 1.357 4.076 1.265 5.556-.203"/><path stroke="#FFF" stroke-width=".1" d="M30.985 35.22l-3.835-3.286-4.033-6.63a.639.639 0 0 0-.346-.274l-1.735-.574 1.532-1.52v-.001l2.266-2.249 1.532-1.52.578 1.722a.64.64 0 0 0 .278.344l6.584 3.923 3.39 3.884c.945 1.08.887 2.78-.128 3.787l-2.27 2.253c-1.016 1.009-2.726 1.071-3.813.14zm4.719.759l2.27-2.254c1.48-1.47 1.566-3.945.192-5.52l-3.459-3.959a.61.61 0 0 0-.154-.129l-6.468-3.855-.831-2.475a.643.643 0 0 0-1.06-.249l-6.797 6.746a.634.634 0 0 0 .251 1.053l2.494.826 3.964 6.515c.035.057.078.11.13.152l3.912 3.352c1.584 1.357 4.076 1.265 5.556-.203z"/><path fill="#FFF" d="M6.034 34.08l3.746-3.63a.605.605 0 0 0 0-.875L6.176 26.08a.649.649 0 0 0-.901 0l-3.747 3.632c-.37-1.8.2-3.69 1.57-5.017 1.614-1.564 4.029-2.052 6.152-1.246.236.09.504.036.683-.137l14.115-13.68a.61.61 0 0 0 .143-.663c-.833-2.059-.328-4.4 1.285-5.963 1.37-1.327 3.318-1.88 5.176-1.521l-3.747 3.63a.604.604 0 0 0 0 .874l3.605 3.494a.65.65 0 0 0 .901 0l3.747-3.632a5.45 5.45 0 0 1-1.57 5.017c-1.614 1.563-4.028 2.053-6.153 1.245a.652.652 0 0 0-.683.139l-14.114 13.68a.604.604 0 0 0-.143.662c.832 2.059.328 4.4-1.285 5.962-1.37 1.328-3.318 1.88-5.176 1.523zm3.14-24.126a.625.625 0 0 0-.139-.102L5.118 7.729l-1.51-2.925L5.212 3.25l3.019 1.462 2.19 3.797c.028.05.065.095.106.135l6.369 6.173-1.352 1.31-6.37-6.173zm2.938 23.477c1.87-1.813 2.521-4.482 1.712-6.9l13.544-13.129c2.495.785 5.25.154 7.12-1.66 1.972-1.91 2.588-4.77 1.571-7.286a.633.633 0 0 0-.463-.38.65.65 0 0 0-.581.169L30.96 8.174l-2.703-2.62 4.054-3.93a.61.61 0 0 0-.217-1.012c-2.597-.986-5.548-.389-7.52 1.522-1.87 1.814-2.521 4.483-1.712 6.901l-5.065 4.909L11.49 7.83 9.247 3.943a.624.624 0 0 0-.271-.25L5.372 1.944a.655.655 0 0 0-.736.115L2.383 4.245a.607.607 0 0 0-.12.712l1.803 3.494a.63.63 0 0 0 .258.263l4.012 2.174 6.307 6.113-5.326 5.161c-2.495-.784-5.249-.153-7.12 1.66A6.692 6.692 0 0 0 .143 28.63c0 .833.158 1.674.484 2.479a.63.63 0 0 0 .463.38.65.65 0 0 0 .581-.168l4.054-3.93 2.704 2.62-4.054 3.93a.607.607 0 0 0 .218 1.012c2.596.986 5.547.388 7.519-1.522z"/><path stroke="#FFF" stroke-width=".1" d="M6.034 34.08l3.746-3.63a.605.605 0 0 0 0-.875L6.176 26.08a.649.649 0 0 0-.901 0l-3.747 3.632c-.37-1.8.2-3.69 1.57-5.017 1.614-1.564 4.029-2.052 6.152-1.246.236.09.504.036.683-.137l14.115-13.68a.61.61 0 0 0 .143-.663c-.833-2.059-.328-4.4 1.285-5.963 1.37-1.327 3.318-1.88 5.176-1.521l-3.747 3.63a.604.604 0 0 0 0 .874l3.605 3.494a.65.65 0 0 0 .901 0l3.747-3.632a5.45 5.45 0 0 1-1.57 5.017c-1.614 1.563-4.028 2.053-6.153 1.245a.652.652 0 0 0-.683.139l-14.114 13.68a.604.604 0 0 0-.143.662c.832 2.059.328 4.4-1.285 5.962-1.37 1.328-3.318 1.88-5.176 1.523zm3.14-24.126a.625.625 0 0 0-.139-.102L5.118 7.729l-1.51-2.925L5.212 3.25l3.019 1.462 2.19 3.797c.028.05.065.095.106.135l6.369 6.173-1.352 1.31-6.37-6.173zm2.938 23.477c1.87-1.813 2.521-4.482 1.712-6.9l13.544-13.129c2.495.785 5.25.154 7.12-1.66 1.972-1.91 2.588-4.77 1.571-7.286a.633.633 0 0 0-.463-.38.65.65 0 0 0-.581.169L30.96 8.174l-2.703-2.62 4.054-3.93a.61.61 0 0 0-.217-1.012c-2.597-.986-5.548-.389-7.52 1.522-1.87 1.814-2.521 4.483-1.712 6.901l-5.065 4.909L11.49 7.83 9.247 3.943a.624.624 0 0 0-.271-.25L5.372 1.944a.655.655 0 0 0-.736.115L2.383 4.245a.607.607 0 0 0-.12.712l1.803 3.494a.63.63 0 0 0 .258.263l4.012 2.174 6.307 6.113-5.326 5.161c-2.495-.784-5.249-.153-7.12 1.66A6.692 6.692 0 0 0 .143 28.63c0 .833.158 1.674.484 2.479a.63.63 0 0 0 .463.38.65.65 0 0 0 .581-.168l4.054-3.93 2.704 2.62-4.054 3.93a.607.607 0 0 0 .218 1.012c2.596.986 5.547.388 7.519-1.522z"/></g></svg>