<svg xmlns="http://www.w3.org/2000/svg" xmlns:xlink="http://www.w3.org/1999/xlink" width="38" height="38"><defs><path id="a" d="M0 .646h37.354V38H0z"/></defs><g fill="none" fill-rule="evenodd"><path fill="#FFF" d="M12.802 23.749a.792.792 0 0 0-1.159-.068.896.896 0 0 0-.064 1.22c2.022 2.379 4.937 3.742 7.996 3.742 3.06 0 5.974-1.364 7.995-3.742a.897.897 0 0 0-.064-1.22.792.792 0 0 0-1.158.068c-1.712 2.013-4.18 3.167-6.773 3.167s-5.062-1.154-6.773-3.167"/><g transform="translate(.143 .143)"><mask id="b" fill="#fff"><use xlink:href="#a"/></mask><path fill="#FFF" d="M18.677 2.27c9.404 0 17.053 7.65 17.053 17.053s-7.649 17.052-17.053 17.052S1.624 28.726 1.624 19.323c0-9.404 7.65-17.053 17.053-17.053m0 35.73c10.298 0 18.677-8.379 18.677-18.677C37.354 9.024 28.975.646 18.677.646 8.378.646.001 9.024.001 19.323 0 29.621 8.378 38 18.677 38" mask="url(#b)"/></g><path fill="#FFF" d="M22.511 19.143c.43 0 .777-.387.777-.864 0-1.429 1.047-2.59 2.332-2.59 1.286 0 2.332 1.161 2.332 2.59 0 .477.348.864.777.864.429 0 .777-.387.777-.864 0-2.381-1.743-4.318-3.886-4.318s-3.886 1.937-3.886 4.318c0 .477.348.864.777.864m-12.954 0c.429 0 .777-.387.777-.864 0-1.429 1.046-2.59 2.331-2.59 1.286 0 2.332 1.161 2.332 2.59 0 .477.348.864.778.864.428 0 .777-.387.777-.864 0-2.381-1.744-4.318-3.887-4.318S8.78 15.898 8.78 18.279c0 .477.348.864.778.864"/></g></svg>