<svg xmlns="http://www.w3.org/2000/svg" width="25" height="39"><path fill="#FFF" fill-rule="evenodd" d="M20.082 22.246c-1.78 2.531-2.752 5.359-2.823 8.197H15.03l.752-11.476 1.918-4.15c.144-.313.12-.679-.062-.97a.994.994 0 0 0-.842-.468H8.202a.994.994 0 0 0-.84.468 1.02 1.02 0 0 0-.063.97l1.918 4.15.752 11.475H7.74c-.07-2.837-1.042-5.665-2.822-8.196-1.831-2.605-2.925-5.916-2.925-8.857C1.993 7.2 6.707 2.162 12.5 2.162c5.793 0 10.507 5.036 10.507 11.227 0 2.941-1.094 6.252-2.925 8.857zm-8.888-3.602a1 1 0 0 0-.092-.36l-1.333-2.886h5.462l-1.333 2.886a1 1 0 0 0-.092.36l-.773 11.799h-1.066l-.773-11.799zm6.06 18.48H7.746v-1.321H12.5c.55 0 .997-.453.997-1.01 0-.558-.447-1.01-.997-1.01H7.745v-1.32h9.51l.001 4.66h-.001zM12.5.142C5.608.143 0 6.086 0 13.389c0 3.396 1.2 7.05 3.294 10.029 1.608 2.286 2.458 4.83 2.458 7.356v6.35c0 1.113.894 2.019 1.993 2.019h9.51c1.1 0 1.993-.906 1.993-2.02v-6.349c0-2.527.85-5.07 2.458-7.356C23.8 20.44 25 16.785 25 13.389 25 6.086 19.392.143 12.5.143z"/></svg>