<svg xmlns="http://www.w3.org/2000/svg" xmlns:xlink="http://www.w3.org/1999/xlink" width="35" height="36"><defs><path id="a" d="M0 0h34v35H0z"/></defs><g fill="none" fill-rule="evenodd" transform="translate(.857 .286)"><mask id="b" fill="#fff"><use xlink:href="#a"/></mask><path fill="#FFF" d="M31.107 22.938a.983.983 0 0 0-.131 1.194c0 .007.3.519.336 1.222.051.96-.41 1.808-1.375 2.532a.998.998 0 0 0-.337 1.127c0 .008.315.974-.196 1.888-.491.879-1.58 1.508-3.234 1.86-1.323.285-3.123.336-5.331.16h-.103c-4.703.103-9.458-.512-9.508-.52h-.008l-.738-.087c.043-.204.065-.424.065-.644v-11.9a3.09 3.09 0 0 0-.139-.908c.132-.49.498-1.581 1.36-2.51 3.285-2.607 6.496-11.397 6.635-11.777a.936.936 0 0 0 .044-.49c-.125-.82-.081-1.823.095-2.123.387.007 1.433.117 2.062.988.746 1.032.716 2.876-.088 5.32-1.228 3.726-1.331 5.688-.358 6.551.483.432 1.126.454 1.595.286.446-.103.87-.19 1.272-.256.03-.008.066-.015.095-.022 2.246-.49 6.269-.79 7.666.483 1.185 1.083.343 2.518.248 2.672a.978.978 0 0 0 .176 1.273c.007.007.775.731.811 1.706.03.65-.278 1.317-.914 1.975zm-28.064 9.8a1.07 1.07 0 0 1-1.068-1.068v-11.9c0-.593.483-1.07 1.068-1.07h4.461a1.07 1.07 0 0 1 1.069 1.07v11.892a1.07 1.07 0 0 1-1.069 1.07H3.043v.006zm29.936-8.944c.717-.914 1.061-1.895 1.017-2.905-.044-1.112-.54-1.983-.95-2.517.475-1.186.658-3.053-.93-4.502-1.163-1.062-3.137-1.537-5.873-1.406a22.843 22.843 0 0 0-3.598.462h-.007c-.366.066-.754.146-1.149.234-.029-.469.051-1.632.914-4.252 1.024-3.118.966-5.504-.19-7.1C20.999.133 19.061 0 18.49 0a1.84 1.84 0 0 0-1.412.644c-.811.945-.716 2.686-.614 3.492-.965 2.59-3.672 8.944-5.96 10.707a.773.773 0 0 0-.117.103 7.842 7.842 0 0 0-1.434 2.152 3.01 3.01 0 0 0-1.449-.366H3.043A3.046 3.046 0 0 0 0 19.777V31.67a3.046 3.046 0 0 0 3.043 3.045h4.461c.651 0 1.259-.205 1.756-.557l1.718.205c.264.037 4.945.63 9.75.534.87.067 1.69.103 2.451.103 1.31 0 2.45-.103 3.4-.308 2.239-.475 3.768-1.426 4.543-2.824.592-1.07.592-2.13.497-2.803 1.456-1.318 1.712-2.775 1.66-3.8a4.942 4.942 0 0 0-.3-1.47z" mask="url(#b)"/></g></svg>