<svg xmlns="http://www.w3.org/2000/svg" xmlns:xlink="http://www.w3.org/1999/xlink" width="38" height="34"><defs><path id="a" d="M0 0h38v33H0z"/></defs><g fill="none" fill-rule="evenodd" transform="translate(.143 .714)"><mask id="b" fill="#fff"><use xlink:href="#a"/></mask><path fill="#FFF" d="M33.384 16.25L18.988 30.412 4.624 16.225a8.142 8.142 0 0 1-2.449-5.833c0-2.204.862-4.272 2.44-5.824a8.334 8.334 0 0 1 5.89-2.412c2.231 0 4.334.86 5.913 2.42l1.82 1.798a1.094 1.094 0 0 0 1.54 0l1.804-1.782a8.36 8.36 0 0 1 5.905-2.42c2.223 0 4.318.86 5.897 2.411a8.137 8.137 0 0 1 2.441 5.833 8.105 8.105 0 0 1-2.44 5.833M34.93 3.064a10.5 10.5 0 0 0-7.436-3.04 10.524 10.524 0 0 0-7.444 3.047l-1.039 1.027-1.055-1.043A10.55 10.55 0 0 0 10.505 0a10.512 10.512 0 0 0-7.427 3.04C1.088 5.006-.008 7.615 0 10.392c0 2.777 1.104 5.38 3.093 7.345l15.13 14.944a1.1 1.1 0 0 0 .765.319c.274 0 .556-.104.766-.31l15.16-14.921A10.265 10.265 0 0 0 38 10.416a10.216 10.216 0 0 0-3.069-7.352" mask="url(#b)"/></g></svg>