<svg xmlns="http://www.w3.org/2000/svg" width="228" height="414" viewBox="0 0 228 414">
    <g fill="none" fill-rule="evenodd">
        <path fill="#C60C30" d="M203.913 101.011c-1.325.197-2.601.52-3.826.947l-10.564-52.461a3.814 3.814 0 0 0-5.25-2.748l-10.235 4.414-8.73-31.607a2.696 2.696 0 0 0-4.091-1.528l-29.198 19.413L78.76 11.073a2.854 2.854 0 0 0-4.077 2.063l-7.277 41.429-4.012.808C21.411 63.823-5.495 106.08 3.3 149.757c6.11 30.342 27.843 53.381 54.617 61.792-20.41 28.47-32.774 62.406-35.284 98.168-.31 15.397 10.765 26.576 22.16 24.856 4.4-.653 8.275-2.651 11.401-5.517l-3.024 63.16c-.14 11.528 9.847 20.576 21.307 19.306l20.965-2.324c9.963-1.105 17.398-9.69 17.067-19.708l-1.024-30.921s1.541-20.157 23.28-22.568c21.74-2.41 25.315 16.128 25.315 16.128l9.523 32.838c2.6 8.964 11.272 14.757 20.55 13.729l17.268-1.914c11.46-1.272 19.222-12.288 16.559-23.505l-38.994-141.573c23.869-29.95 38.348-66.805 41.086-105.837.31-15.396-10.764-26.576-22.159-24.856"/>
        <path fill="#FFF" d="M225.562 372.84l-39.194-142.302c-.814.77-1.86 1.283-2.983 1.528l38.999 141.59a17.544 17.544 0 0 1-2.73 14.158 17.557 17.557 0 0 1-12.413 7.336l-17.27 1.914a17.52 17.52 0 0 1-18.793-12.554l-9.49-32.69c-.037-.198-4.126-19.995-27.104-17.448-22.826 2.532-24.718 23.858-24.737 24.25l1.022 30.925c.304 9.1-6.552 17.014-15.608 18.02l-20.963 2.324a17.567 17.567 0 0 1-13.722-4.438c-3.727-3.378-5.828-8.192-5.766-13.16l3.083-64.406c-.882 1-2.041 1.704-3.378 1.955l-2.985 62.351a20.833 20.833 0 0 0 23.13 20.957l20.963-2.324c10.747-1.192 18.886-10.586 18.522-21.388l-1.024-30.74c.06-.768 1.74-18.839 21.825-21.065 19.918-2.209 23.386 14.115 23.56 14.956l9.525 32.837a20.791 20.791 0 0 0 22.302 14.899l17.27-1.915a20.843 20.843 0 0 0 14.733-8.705c3.437-4.877 4.617-11.003 3.226-16.865"/>
        <path fill="#FFF" d="M90.405 218.8a1.643 1.643 0 0 0-2.27.48c-17.819 27.392-26.575 58.972-25.319 91.22-.279 11.295-8.13 20.948-18.266 22.449-4.349.702-8.802-.768-12.513-4.023-5.09-4.47-7.918-11.457-7.766-19.093 2.492-35.5 14.555-68.945 35.034-97.418-1.203-.075-2.28-.386-3.37-.921-20.403 28.754-32.434 62.417-34.942 98.19-.175 8.686 3.063 16.597 8.88 21.705 4.258 3.737 9.374 5.462 14.479 4.896.226-.026.454-.058.683-.09 11.69-1.734 20.742-12.745 21.06-25.717-1.23-31.671 7.344-62.589 24.791-89.408a1.646 1.646 0 0 0-.48-2.27"/>
        <path fill="#FFF" d="M64.52 306.63a1.64 1.64 0 0 1-1.756-1.19c-1.54-5.506-3.284-8.151-9.047-8.296a1.64 1.64 0 0 1-1.598-1.68c.022-.907.786-1.662 1.68-1.597 7.663.187 10.32 4.231 12.123 10.694a1.634 1.634 0 0 1-1.401 2.07M141.335 240.818l-31.716 3.74 1.204 10.208c.838 7.099 5.666 8.04 9.57 7.58 3.33-.392 6.72-1.368 7.426-5.185 1.29 2.314 3.948 3.937 7.36 3.535 7.515-.886 7.775-6.15 7.365-9.632l-1.209-10.246zm-4.368 10.007c.193 1.632-1.244 2.462-3.33 2.707-2.656.314-3.697-.4-3.833-1.563l-.267-2.265 7.198-.848.232 1.969zm-12.693 1.311c.272 2.309-.892 2.905-3.746 3.24-4.028.476-4.239-1.315-4.37-2.433l-.194-1.638 8.1-.955.21 1.786zM143.797 261.69l-31.716 3.74 1.204 10.208c.838 7.099 5.666 8.04 9.57 7.579 3.332-.393 6.72-1.368 7.427-5.185 1.288 2.314 3.947 3.938 7.36 3.535 7.514-.886 7.774-6.15 7.364-9.633l-1.209-10.244zm-4.368 10.006c.192 1.633-1.245 2.461-3.33 2.707-2.657.314-3.696-.4-3.833-1.563l-.267-2.265 7.198-.848.232 1.97zm-12.694 1.311c.273 2.31-.891 2.905-3.745 3.24-4.027.476-4.238-1.315-4.37-2.432l-.193-1.639 8.098-.955.21 1.786zM147.59 293.846s-11.088-1.503-13.11-1.901c1.886-.825 12.336-4.658 12.336-4.658l-.812-6.887s-19.842 8.66-19.94 8.709l-11.036 1.3.872 7.397 11.032-1.3c.114.027 21.423 3.826 21.423 3.826l-.765-6.486zM150.034 314.57s-11.087-1.501-13.11-1.9c1.887-.825 12.337-4.659 12.337-4.659l-.812-6.886s-19.842 8.661-19.94 8.71l-11.037 1.3.873 7.396 11.032-1.3c.114.027 21.422 3.826 21.422 3.826l-.765-6.487zM108.716 236.9l.745 6.316 30.962-10.144-1.014-8.592-32.472-2.665.745 6.318 6.914.567.712 6.04-6.592 2.16zm11.493-7.74l9.697.796-9.246 3.03-.451-3.825zM173.642 190.814c.709-2.4 1.983-4.383 3.062-6.414-9.679 8.979-21.746 15.448-35.45 18.206l-46.333 9.328c-41 8.258-81.407-19.782-90.014-62.5-8.6-42.72 17.781-84.195 58.81-92.454l3.347-.673a7.104 7.104 0 0 1-.405-3.264l-3.588.722C20.266 62.38-7.267 105.588 1.69 150.08c8.494 42.17 46.767 70.592 87.184 66.11a76.389 76.389 0 0 0 6.692-1.04l46.334-9.328c11.859-2.387 22.543-7.434 31.606-14.423a5.51 5.51 0 0 1 .135-.585"/>
        <path fill="#FFF" d="M134.472 36.826L79.49 9.603a4.433 4.433 0 0 0-4.022.017 4.449 4.449 0 0 0-2.397 3.232L59.92 87.702a1.638 1.638 0 0 0 1.795 1.913 1.639 1.639 0 0 0 1.434-1.347l13.15-74.848c.068-.38.303-.7.648-.874.351-.176.739-.174 1.086-.004l53.714 26.594c.636-1.058 1.607-1.838 2.725-2.31"/>
        <path fill="#FFF" d="M175.964 51.97l-9.072-32.853a4.298 4.298 0 0 0-2.666-2.906 4.3 4.3 0 0 0-3.918.451l-43.817 29.133a1.64 1.64 0 0 0 1.818 2.731l43.817-29.132c.279-.189.625-.231.952-.108.322.118.56.376.649.706l8.996 32.575a6.909 6.909 0 0 1 3.241-.597"/>
        <path fill="#FFF" d="M201.3 102.24c.167-.026.337-.04.506-.047l-10.675-53.018a5.435 5.435 0 0 0-2.812-3.754 5.435 5.435 0 0 0-4.697-.178l-38.424 16.573a1.644 1.644 0 0 0-.857 2.157 1.638 1.638 0 0 0 2.158.854l38.42-16.573a2.157 2.157 0 0 1 1.876.073c.581.304.99.848 1.12 1.493l10.753 53.405a6.69 6.69 0 0 1 2.632-.986"/>
        <path fill="#C60C30" d="M88.727 8.468c3.766 6.53 1.523 14.876-5.009 18.641-6.532 3.765-14.88 1.522-18.645-5.008-3.765-6.532-1.523-14.877 5.01-18.642 6.532-3.765 14.88-1.522 18.644 5.009"/>
        <path fill="#FFF" d="M75.56 3.351c-1.596.176-3.18.678-4.66 1.53a11.938 11.938 0 0 0-5.6 7.288 11.916 11.916 0 0 0 1.195 9.113c3.305 5.734 10.655 7.707 16.404 4.407 5.738-3.308 7.714-10.666 4.408-16.404-2.458-4.257-7.15-6.444-11.747-5.934m3.047 27.127c-5.86.648-11.828-2.135-14.954-7.559a15.193 15.193 0 0 1-1.523-11.601 15.197 15.197 0 0 1 7.134-9.279C76.563-2.169 85.935.346 90.149 7.648v.001c4.211 7.303 1.691 16.672-5.614 20.882a15.196 15.196 0 0 1-5.928 1.947M75.226 137.053a8.582 8.582 0 0 1-6.723 10.11 8.584 8.584 0 1 1-3.389-16.831c4.648-.935 9.177 2.078 10.112 6.72M148.172 122.37a8.583 8.583 0 0 1-6.722 10.11 8.585 8.585 0 1 1 6.722-10.11M112.322 187.578c-7.223.802-14.803-.2-22.706-3.01a1.641 1.641 0 0 1 1.102-3.09c17.562 6.25 32.81 3.179 46.591-9.378a1.64 1.64 0 1 1 2.21 2.424c-8.359 7.617-17.453 11.974-27.197 13.054"/>
        <path fill="#C60C30" d="M156.224 63.683c1.1 5.468-2.44 10.793-7.909 11.894-5.468 1.1-10.794-2.44-11.895-7.908-1.101-5.468 2.44-10.792 7.908-11.892 5.469-1.101 10.795 2.439 11.896 7.906"/>
        <path fill="#FFF" d="M145.402 57.267a9.071 9.071 0 0 0-.75.117 8.405 8.405 0 0 0-5.374 3.609 8.407 8.407 0 0 0-1.249 6.351 8.408 8.408 0 0 0 3.607 5.376 8.425 8.425 0 0 0 6.357 1.248 8.398 8.398 0 0 0 5.373-3.608 8.401 8.401 0 0 0 1.25-6.352v-.002a8.402 8.402 0 0 0-3.611-5.374 8.4 8.4 0 0 0-5.603-1.365m2.195 20.08a11.663 11.663 0 0 1-7.775-1.895 11.664 11.664 0 0 1-5.01-7.46 11.655 11.655 0 0 1 1.732-8.814 11.672 11.672 0 0 1 7.46-5.01 11.667 11.667 0 0 1 8.82 1.733 11.66 11.66 0 0 1 5.007 7.457 11.658 11.658 0 0 1-1.73 8.818 11.665 11.665 0 0 1-7.461 5.008c-.347.071-.696.124-1.043.162M85.568 164.687c-5.746 13.157-39.46 23.159-52.946 12.896-4.36-3.317-8.787-11.143-11.116-16.268-2.328-5.124-5.862-15.837-5.184-21.09.678-5.251 4.97-6.69 4.97-6.69 10.947-6.95 44.898-14.05 58.14-10.801 15.453 3.793 10.56 31.824 6.136 41.953m97.386-18.803c-12.43 10.171-37.695 13.677-47.01 6.276-8.654-6.877-26.111-29.35-14.235-39.94 10.176-9.073 43.498-18.7 56.425-17.687 0 0 4.467-.74 7.526 3.583 1.518 2.145 2.75 5.963 3.648 9.952 1.191-1.906 3.019-2.747 4.873-2.801.109-1.078 3.59-3.033 3.868-3.79 1.406-3.82.51-3.843.788-4.965.279-1.123-1.406-7.647-1.857-8.714-.452-1.065-.613-.963-2.349-.965-13.478-.016-61.834 9.273-77.545 19.78-3.344 2.235-5.012 5.771-5.597 6.91-1.303.912-3.576 1.758-11.047 3.44-7.39 2.013-9.794 2.331-11.371 2.134-1.05-.73-4.182-3.074-8.183-3.483C62.085 113.69 15.01 128.132 3.11 134.46c-1.533.815-1.724.8-1.623 1.953.1 1.152 1.669 7.706 2.441 8.568.773.862 3.386.646 6.417 3.363 5.435 4.871 10.45 26.215 22.457 33.932 12.436 7.992 49.827-.9 56.458-17.312 4.38-10.84 5.14-21.875 6.272-32.594 1.61-2.756 3.434-3.396 5.069-4.05a20.483 20.483 0 0 1 2.465-.807c.545-.13 1.469-.326 2.556-.442 1.751-.188 3.664-.478 6.376 1.203 6.022 8.941 11.865 18.335 20.813 25.86 10.84 9.115 36.813 4.757 50.478-3.948a7.164 7.164 0 0 1-.122-.67 26.589 26.589 0 0 1-.213-3.63z"/>
        <path fill="#FFF" d="M183.856 234.976a1.64 1.64 0 0 1-1.453-2.666c24.734-30.337 39.27-67.184 42.034-106.557.152-7.637-2.677-14.625-7.766-19.092-3.707-3.255-8.098-4.685-12.512-4.028-10.14 1.504-17.992 11.155-18.27 22.453 1.256 32.246-7.5 63.825-25.319 91.22a1.645 1.645 0 0 1-2.27.48 1.644 1.644 0 0 1-.481-2.27c17.446-26.822 26.021-57.738 24.79-89.407.32-12.974 9.375-23.987 21.064-25.72 5.37-.82 10.716.902 15.162 4.807 5.817 5.107 9.055 13.017 8.88 21.704-2.817 40.135-17.605 77.62-42.768 108.48-.284.348-.677.55-1.091.596"/>
        <path fill="#FFF" d="M192.342 127.607c-2.21.245-4.63-.176-7.336-.948a1.642 1.642 0 0 1 .901-3.155c5.487 1.57 8.661 1.473 11.805-3.37a1.64 1.64 0 1 1 2.751 1.784c-2.42 3.734-5.067 5.351-8.121 5.69"/>
    </g>
</svg>
