<?xml version="1.0" encoding="UTF-8"?>
<svg width="816px" height="264px" viewBox="0 0 816 264" version="1.1" xmlns="http://www.w3.org/2000/svg" xmlns:xlink="http://www.w3.org/1999/xlink">
    <!-- Generator: sketchtool 51 (57462) - http://www.bohemiancoding.com/sketch -->
    <title>F6773CFF-9062-4573-BB15-202B7980AF2D</title>
    <desc>Created with sketchtool.</desc>
    <defs>
        <polygon id="path-1" points="0 0.21 354.5438 0.21 354.5438 262 0 262"></polygon>
        <polygon id="path-3" points="0.5437 0.136 253.5607 0.136 253.5607 262.9999 0.5437 262.9999"></polygon>
        <polygon id="path-5" points="0.6259 0.2101 229.4679 0.2101 229.4679 262 0.6259 262"></polygon>
    </defs>
    <g id="Symbols" stroke="none" stroke-width="1" fill="none" fill-rule="evenodd">
        <g id="way">
            <g id="Group-10">
                <g id="Group-3" transform="translate(0.000000, 1.864000)">
                    <mask id="mask-2" fill="white">
                        <use xlink:href="#path-1"></use>
                    </mask>
                    <g id="Clip-2"></g>
                    <path d="M287.9328,262 L224.7238,262 L189.2688,124.48 C187.9538,119.586 185.7158,109.469 182.5538,94.129 C179.3898,78.791 177.5688,68.495 177.0928,63.24 C176.3768,69.687 174.5858,80.044 171.7208,94.308 C168.8558,108.574 166.6458,118.75 165.0958,124.838 L129.8198,262 L66.7908,262 L-0.0002,0.21 L54.6138,0.21 L88.0988,143.102 C93.9458,169.486 98.1848,192.344 100.8118,211.683 C101.5288,204.879 103.1678,194.345 105.7358,180.079 C108.3018,165.815 110.7198,154.741 112.9888,146.863 L151.1288,0.21 L203.5938,0.21 L241.7348,146.863 C243.4048,153.429 245.4948,163.457 248.0018,176.945 C250.5088,190.437 252.4168,202.014 253.7318,211.683 C254.9238,202.372 256.8348,190.764 259.4618,176.856 C262.0868,162.95 264.4748,151.697 266.6248,143.102 L299.9298,0.21 L354.5438,0.21 L287.9328,262 Z" id="Fill-1" fill="#FFFFFF" mask="url(#mask-2)"></path>
                </g>
                <g id="Group-6" transform="translate(354.000000, 0.864000)">
                    <mask id="mask-4" fill="white">
                        <use xlink:href="#path-3"></use>
                    </mask>
                    <g id="Clip-5"></g>
                    <path d="M161.5217,154.1299 C143.9737,97.6659 134.0937,65.7339 131.8867,58.3309 C129.6767,50.9309 128.0957,45.0809 127.1417,40.7829 C123.2017,56.0649 111.9217,93.8479 93.2987,154.1299 L161.5217,154.1299 Z M193.7527,262.9999 L174.7717,200.6859 L79.3317,200.6859 L60.3517,262.9999 L0.5437,262.9999 L92.9397,0.1359 L113.0747,0.1359 C141.6767,0.1359 167.1707,18.1739 176.6877,45.1469 L253.5607,262.9999 L193.7527,262.9999 Z" id="Fill-4" fill="#FFFFFF" mask="url(#mask-4)"></path>
                </g>
                <g id="Group-9" transform="translate(586.000000, 1.864000)">
                    <mask id="mask-6" fill="white">
                        <use xlink:href="#path-5"></use>
                    </mask>
                    <g id="Clip-8"></g>
                    <polygon id="Fill-7" fill="#FFFFFF" mask="url(#mask-6)" points="115.0469 108.0061 169.6619 0.2101 229.4679 0.2101 142.6229 160.1131 142.6229 262.0001 87.4719 262.0001 87.4719 161.9041 0.6259 0.2101 60.7919 0.2101"></polygon>
                </g>
            </g>
        </g>
    </g>
</svg>