<?xml version="1.0" encoding="UTF-8"?>
<svg width="361px" height="391px" viewBox="0 0 361 391" version="1.1" xmlns="http://www.w3.org/2000/svg" xmlns:xlink="http://www.w3.org/1999/xlink">
    <!-- Generator: sketchtool 51 (57462) - http://www.bohemiancoding.com/sketch -->
    <title>31BABDAC-9EE9-4A0F-9C64-9D5017EAA541</title>
    <desc>Created with sketchtool.</desc>
    <defs>
        <polygon id="path-1" points="0.1937 0.9577 265.297 0.9577 265.297 169.896 0.1937 169.896"></polygon>
        <polygon id="path-3" points="0.976638035 0.7409326 268.297 0.7409326 268.297 171.896 0.976638035 171.896"></polygon>
        <polygon id="path-5" points="0.228250853 0.3772 61.601911 0.3772 61.601911 111.896 0.228250853 111.896"></polygon>
        <polygon id="path-7" points="0.966017094 0.160883296 66.8039641 0.160883296 66.8039641 113.896 0.966017094 113.896"></polygon>
        <polygon id="path-9" points="0.5727 0.0115 47.5497 0.0115 47.5497 13.896 0.5727 13.896"></polygon>
    </defs>
    <g id="Page-1" stroke="none" stroke-width="1" fill="none" fill-rule="evenodd">
        <g id="1920" transform="translate(-1390.000000, -582.000000)">
            <g id="HEADER" transform="translate(-5.000000, 0.000000)">
                <g id="abbyy-man1" transform="translate(1395.000000, 582.000000)">
                    <g id="Group-62">
                        <g id="Group-3" transform="translate(116.000000, 221.105000)">
                            <mask id="mask-2" fill="white">
                                <use xlink:href="#path-1"></use>
                            </mask>
                            <g id="Clip-2"></g>
                            <path d="M261.1517,258.4967 L239.4227,267.3757 C227.7497,272.1467 214.3367,267.8267 207.6407,257.1407 L183.1107,217.9907 C183.1107,217.9907 171.6027,195.2207 144.2487,206.3997 C116.8937,217.5787 122.3527,244.3437 122.3527,244.3437 L135.1297,284.1497 C139.2687,297.0457 132.7867,310.9547 120.2497,316.0777 L93.8707,326.8577 C79.4497,332.7507 63.1247,324.6877 59.0397,309.6547 L0.1937,57.9677 L139.6977,0.9577 L273.9657,221.8227 C281.5787,235.4147 275.5727,252.6037 261.1517,258.4967" id="Fill-1" fill="#C60C30" mask="url(#mask-2)"></path>
                        </g>
                        <g id="Group-6" transform="translate(113.000000, 219.105000)">
                            <mask id="mask-4" fill="white">
                                <use xlink:href="#path-3"></use>
                            </mask>
                            <g id="Clip-5"></g>
                            <path d="M5.7821,61.3041 L64.1971,311.1501 C65.9591,317.6261 70.4721,323.1101 76.5601,326.1171 C82.6501,329.1241 89.7461,329.3761 96.0331,326.8061 L122.4121,316.0251 C133.8031,311.3711 139.7811,298.5451 136.0191,286.8271 L123.2421,247.0221 C123.1231,246.5011 117.6871,218.0871 146.4101,206.3491 C175.3201,194.5281 187.9641,218.7451 188.0891,218.9911 L212.5191,257.9631 C218.6581,267.7611 230.8771,271.7011 241.5851,267.3241 L263.3131,258.4451 L264.1511,260.4971 L263.3131,258.4451 C269.5991,255.8761 274.4891,250.7261 276.7291,244.3161 C278.9691,237.9051 278.3511,230.8301 275.0321,224.9041 L141.7871,5.7251 L5.7821,61.3041 Z M89.6811,332.8781 C84.5441,333.3571 79.3161,332.4211 74.5971,330.0911 C67.3711,326.5221 62.0141,320.0141 59.9001,312.2361 L1.0351,60.4721 C0.7871,59.4121 1.3471,58.3281 2.3551,57.9161 L141.8601,0.9061 C142.8681,0.4931 144.0271,0.8771 144.5921,1.8071 L278.8591,222.6701 C282.8391,229.7711 283.5721,238.1691 280.9131,245.7781 C278.2551,253.3871 272.4511,259.4991 264.9901,262.5491 L243.2621,271.4281 C230.5551,276.6171 216.0481,271.9461 208.7631,260.3161 L184.2321,221.1671 C183.6981,220.1421 173.1571,200.2081 148.0871,210.4511 C122.8171,220.7781 127.3211,244.8851 127.5251,245.9061 L140.2401,285.4721 C144.7041,299.3801 137.6101,314.6031 124.0881,320.1301 L97.7101,330.9101 C95.1191,331.9681 92.4121,332.6231 89.6811,332.8781 Z" id="Fill-4" fill="#FFFFFF" mask="url(#mask-4)"></path>
                        </g>
                        <g id="Group-9" transform="translate(99.000000, 279.105000)">
                            <mask id="mask-6" fill="white">
                                <use xlink:href="#path-5"></use>
                            </mask>
                            <g id="Clip-8"></g>
                            <path d="M59.5682,14.6242 C46.5272,56.9202 47.3302,101.1902 60.4672,141.3332 C64.3682,156.4342 58.0642,173.3992 43.8152,179.8452 C29.6472,186.2972 11.1172,175.8682 5.8212,155.7442 C-5.2668,103.0602 0.2832,48.8002 21.1222,0.3772" id="Fill-7" fill="#C60C30" mask="url(#mask-6)"></path>
                        </g>
                        <g id="Group-12" transform="translate(96.000000, 277.105000)">
                            <mask id="mask-8" fill="white">
                                <use xlink:href="#path-7"></use>
                            </mask>
                            <g id="Clip-11"></g>
                            <path d="M40.183,185.8705 C35.617,186.2965 30.851,185.4125 26.25,183.2295 C16.8,178.7445 9.666,169.6615 6.678,158.3075 C-4.521,105.1125 0.816,50.9265 22.087,1.5015 C22.571,0.3775 23.873,-0.1415 24.999,0.3415 C26.123,0.8255 26.642,2.1295 26.159,3.2535 C5.25,51.8345 0.005,105.0985 10.99,157.2875 C13.619,167.2665 19.883,175.3015 28.15,179.2245 C34.175,182.0825 40.475,182.2965 45.897,179.8275 C58.511,174.1215 65.141,158.6715 61.322,143.8885 C47.755,102.4475 47.44,58.1685 60.45,15.9715 C60.811,14.8005 62.05,14.1455 63.222,14.5065 C64.391,14.8665 65.047,16.1075 64.686,17.2775 C51.948,58.5935 52.253,101.9445 65.574,142.6445 C69.964,159.6215 62.275,177.2835 47.728,183.8635 C45.323,184.9595 42.786,185.6275 40.183,185.8705" id="Fill-10" fill="#FFFFFF" mask="url(#mask-8)"></path>
                        </g>
                        <path d="M233.5492,301.3768 L193.7232,317.9758 L199.0672,330.7958 C202.7832,339.7108 209.4052,339.1478 214.3072,337.1048 C218.4892,335.3618 222.5332,332.8388 222.0372,327.6158 C224.5692,330.1478 228.6232,331.2738 232.9082,329.4878 C242.3442,325.5548 240.7342,318.6168 238.9112,314.2438 L233.5492,301.3768 Z M231.5772,315.9978 C232.4322,318.0478 230.8712,319.6578 228.2532,320.7488 C224.9182,322.1388 223.3022,321.5968 222.6932,320.1358 L221.5072,317.2918 L230.5472,313.5238 L231.5772,315.9978 Z M215.5702,322.3988 C216.7792,325.2998 215.4862,326.5038 211.9032,327.9968 C206.8452,330.1048 205.9082,327.8568 205.3232,326.4528 L204.4652,324.3948 L214.6352,320.1558 L215.5702,322.3988 Z" id="Fill-13" fill="#FFFFFF"></path>
                        <path d="M244.474,327.5896 L204.649,344.1886 L209.992,357.0086 C213.708,365.9236 220.33,365.3596 225.232,363.3166 C229.416,361.5726 233.458,359.0506 232.963,353.8286 C235.495,356.3596 239.549,357.4866 243.834,355.7006 C253.27,351.7676 251.659,344.8286 249.836,340.4556 L244.474,327.5896 Z M242.502,342.2096 C243.357,344.2606 241.796,345.8696 239.178,346.9606 C235.842,348.3506 234.227,347.8086 233.619,346.3476 L232.433,343.5036 L241.472,339.7366 L242.502,342.2096 Z M226.495,348.6106 C227.704,351.5116 226.412,352.7166 222.828,354.2096 C217.771,356.3176 216.833,354.0686 216.249,352.6646 L215.391,350.6066 L225.56,346.3686 L226.495,348.6106 Z" id="Fill-15" fill="#FFFFFF"></path>
                        <path d="M261.3055,367.9743 C261.3055,367.9743 246.3435,370.1263 243.5685,370.3563 C245.7135,368.5863 257.8725,359.7373 257.8725,359.7373 L254.2675,351.0873 C254.2675,351.0873 231.6925,369.6873 231.5825,369.7853 L217.7245,375.5603 L221.5965,384.8503 L235.4495,379.0763 C235.6085,379.0703 264.7015,376.1213 264.7015,376.1213 L261.3055,367.9743 Z" id="Fill-17" fill="#FFFFFF"></path>
                        <g id="Group-21" transform="translate(228.000000, 377.105000)">
                            <mask id="mask-10" fill="white">
                                <use xlink:href="#path-9"></use>
                            </mask>
                            <g id="Clip-20"></g>
                            <path d="M44.1537,16.8975 C44.1537,16.8975 29.1927,19.0505 26.4167,19.2795 C28.5617,17.5095 40.7207,8.6605 40.7207,8.6605 L37.1157,0.0115 C37.1157,0.0115 14.5417,18.6115 14.4307,18.7095 L0.5727,24.4855 L4.4447,33.7745 L18.2977,28.0005 C18.4567,27.9945 47.5497,25.0445 47.5497,25.0445 L44.1537,16.8975 Z" id="Fill-19" fill="#FFFFFF" mask="url(#mask-10)"></path>
                        </g>
                        <path d="M189.7147,308.3564 L193.0217,316.2894 L229.4957,291.6474 L224.9987,280.8574 L181.8197,289.4124 L185.1267,297.3464 L194.3197,295.5244 L197.4807,303.1094 L189.7147,308.3564 Z M201.7827,294.0454 L214.6777,291.4904 L203.7847,298.8494 L201.7827,294.0454 Z" id="Fill-22" fill="#FFFFFF"></path>
                        <path d="M203.1859,264.4209 L142.5709,284.4959 C87.6459,302.6869 27.7759,271.1039 8.8479,213.9539 L8.8479,213.9529 C-10.0801,156.8029 19.1019,95.7269 74.0279,77.5359 L134.6429,57.4609 C189.5679,39.2699 249.4379,70.8529 268.3659,128.0029 L268.3659,128.0039 C287.2929,185.1539 258.1109,246.2299 203.1859,264.4209" id="Fill-24" fill="#C60C30"></path>
                        <path d="M172.6239,54.7502 C160.2949,53.9682 147.6839,55.4762 135.3389,59.5642 L74.7259,79.6402 C48.7389,88.2462 27.7909,106.8732 15.7429,132.0902 C3.6809,157.3372 1.9789,186.1622 10.9519,213.2562 C19.9259,240.3512 38.4969,262.4622 63.2449,275.5172 C87.9629,288.5572 115.8859,290.9982 141.8739,282.3922 L202.4879,262.3172 C256.1659,244.5402 284.7749,184.5992 266.2629,128.7002 C252.0069,85.6572 213.9039,57.3682 172.6239,54.7502 M104.1559,291.6762 C89.4179,290.7412 74.8289,286.6392 61.1759,279.4372 C35.4109,265.8452 16.0799,242.8372 6.7459,214.6502 C-12.5371,156.4312 17.3339,93.9782 73.3319,75.4322 L133.9449,55.3572 C161.0899,46.3682 190.2429,48.9112 216.0379,62.5192 C241.8029,76.1112 261.1339,99.1202 270.4699,127.3072 C279.8049,155.4932 278.0289,185.4922 265.4699,211.7772 C252.8969,238.0922 231.0249,257.5352 203.8819,266.5252 L203.1859,264.4212 L203.8819,266.5252 L143.2689,286.6002 C130.4909,290.8312 117.2639,292.5072 104.1559,291.6762" id="Fill-26" fill="#FFFFFF"></path>
                        <path d="M76.8592,121.5834 L82.2702,19.0384 C82.4062,16.4684 84.9732,14.7504 87.4012,15.6054 L180.5482,48.4124" id="Fill-28" fill="#C60C30"></path>
                        <path d="M76.7186,123.7953 C75.5086,123.7183 74.5816,122.6813 74.6456,121.4663 L80.0566,18.9213 C80.1586,16.9923 81.1386,15.2693 82.7426,14.1953 C84.3496,13.1213 86.3146,12.8743 88.1376,13.5153 L181.2846,46.3213 C182.4386,46.7283 183.0446,47.9933 182.6386,49.1483 C182.2326,50.3033 180.9686,50.9103 179.8116,50.5033 L86.6646,17.6953 C86.1706,17.5213 85.6406,17.5893 85.2086,17.8793 C84.7746,18.1693 84.5106,18.6343 84.4836,19.1553 L79.0726,121.7003 C79.0076,122.9233 77.9646,123.8613 76.7426,123.7963 C76.7336,123.7963 76.7266,123.7953 76.7186,123.7953" id="Fill-30" fill="#FFFFFF"></path>
                        <path d="M232.1239,79.0796 L204.8559,12.8526 C203.9119,10.5596 201.0029,9.8596 199.1189,11.4726 L145.1129,57.7026" id="Fill-32" fill="#C60C30"></path>
                        <path d="M231.9842,81.2923 C231.1662,81.2403 230.4072,80.7333 230.0742,79.9233 L202.8062,13.6963 C202.6302,13.2683 202.2722,12.9613 201.8212,12.8523 C201.3762,12.7453 200.9122,12.8543 200.5592,13.1563 L146.5542,59.3873 C145.6262,60.1833 144.2252,60.0753 143.4302,59.1443 C142.6332,58.2143 142.7412,56.8153 143.6712,56.0193 L197.6772,9.7883 C199.1232,8.5523 201.0092,8.0993 202.8592,8.5433 C204.7072,8.9883 206.1812,10.2513 206.9062,12.0093 L234.1732,78.2363 C234.6392,79.3683 234.1002,80.6633 232.9672,81.1293 C232.6462,81.2613 232.3102,81.3133 231.9842,81.2923" id="Fill-34" fill="#FFFFFF"></path>
                        <path d="M185.9046,74.7374 L234.7306,46.2314 C237.5596,44.5794 241.1906,45.9514 242.2206,49.0614 L268.9576,129.7894" id="Fill-36" fill="#C60C30"></path>
                        <path d="M268.8187,132.002 C267.9427,131.946 267.1467,131.371 266.8547,130.486 L240.1177,49.757 C239.8377,48.913 239.1997,48.248 238.3667,47.934 C237.5357,47.62 236.6177,47.696 235.8477,48.145 L187.0217,76.651 C185.9647,77.269 184.6087,76.911 183.9907,75.855 C183.3737,74.797 183.7307,73.44 184.7877,72.824 L233.6137,44.317 C235.5427,43.191 237.8467,43 239.9337,43.787 C242.0217,44.576 243.6227,46.244 244.3237,48.364 L271.0607,129.093 C271.4457,130.255 270.8167,131.509 269.6547,131.893 C269.3767,131.985 269.0937,132.019 268.8187,132.002" id="Fill-38" fill="#FFFFFF"></path>
                        <path d="M100.3411,10.484 C106.4571,18.629 104.8131,30.191 96.6671,36.307 C88.5221,42.423 76.9611,40.778 70.8441,32.633 C64.7281,24.488 66.3731,12.926 74.5181,6.81 C82.6631,0.694 94.2251,2.339 100.3411,10.484" id="Fill-40" fill="#C60C30"></path>
                        <path d="M86.6068,5.3704 C82.8828,5.1344 79.0598,6.1704 75.8498,8.5824 C68.6948,13.9554 67.2438,24.1474 72.6168,31.3024 C75.2198,34.7684 79.0158,37.0134 83.3078,37.6244 C87.5868,38.2344 91.8708,37.1374 95.3368,34.5344 C98.8028,31.9314 101.0478,28.1344 101.6588,23.8444 C102.2688,19.5524 101.1718,15.2804 98.5688,11.8144 L98.5698,11.8144 C95.6068,7.8704 91.1818,5.6604 86.6068,5.3704 M84.3188,42.1804 C83.7738,42.1454 83.2298,42.0894 82.6838,42.0124 C77.2188,41.2344 72.3848,38.3764 69.0718,33.9634 C62.2318,24.8544 64.0788,11.8784 73.1878,5.0374 C82.2958,-1.8026 95.2728,0.0434 102.1128,9.1534 L102.1148,9.1534 C105.4278,13.5664 106.8248,19.0044 106.0458,24.4684 C105.2698,29.9314 102.4118,34.7654 97.9988,38.0784 C94.0268,41.0614 89.2228,42.4914 84.3188,42.1804" id="Fill-42" fill="#FFFFFF"></path>
                        <path d="M104.929,189.4239 C107.651,195.2289 105.149,202.1319 99.35,204.8509 C93.552,207.5689 86.646,205.0769 83.924,199.2709 C81.207,193.4759 83.705,186.5639 89.503,183.8459 C95.302,181.1269 102.212,183.6289 104.929,189.4239" id="Fill-44" fill="#FFFFFF"></path>
                        <path d="M195.9515,146.7514 C198.6725,152.5564 196.1715,159.4594 190.3725,162.1784 C184.5745,164.8964 177.6675,162.4044 174.9465,156.5984 C172.2295,150.8034 174.7265,143.8914 180.5245,141.1734 C186.3235,138.4544 193.2345,140.9564 195.9515,146.7514" id="Fill-46" fill="#FFFFFF"></path>
                        <path d="M142.6561,248.3561 C138.6431,248.1011 134.5241,247.5011 130.2951,246.5531 C129.1011,246.2851 128.3501,245.1001 128.6181,243.9051 C128.8851,242.7111 130.0781,241.9601 131.2661,242.2281 C155.8431,247.7371 175.7841,241.1371 192.2161,222.0421 C193.0141,221.1141 194.4121,221.0091 195.3421,221.8071 C196.2691,222.6061 196.3751,224.0051 195.5761,224.9331 C181.0481,241.8171 163.2871,249.6641 142.6561,248.3561" id="Fill-48" fill="#FFFFFF"></path>
                        <path d="M199.8788,73.5273 C202.2488,80.6813 198.3698,88.4023 191.2148,90.7713 C184.0608,93.1413 176.3398,89.2623 173.9708,82.1083 C171.6008,74.9533 175.4798,67.2333 182.6338,64.8633 C189.7888,62.4943 197.5088,66.3733 199.8788,73.5273" id="Fill-50" fill="#C60C30"></path>
                        <path d="M187.6341,66.4098 C186.2161,66.3198 184.7591,66.4938 183.3311,66.9678 C180.4321,67.9268 178.0821,69.9578 176.7111,72.6868 C175.3411,75.4148 175.1151,78.5128 176.0741,81.4108 C178.0561,87.3938 184.5331,90.6478 190.5171,88.6678 C196.5011,86.6868 199.7561,80.2068 197.7751,74.2238 L197.7761,74.2238 C196.2671,69.6698 192.1521,66.6958 187.6341,66.4098 M185.9401,93.6498 C179.6711,93.2518 173.9601,89.1248 171.8671,82.8048 C170.5351,78.7828 170.8491,74.4818 172.7501,70.6958 C174.6531,66.9108 177.9151,64.0918 181.9371,62.7598 C190.2421,60.0118 199.2331,64.5278 201.9821,72.8298 C201.9821,72.8308 201.9841,72.8308 201.9841,72.8308 C204.7331,81.1338 200.2141,90.1268 191.9121,92.8758 C189.9291,93.5318 187.9071,93.7738 185.9401,93.6498" id="Fill-52" fill="#FFFFFF"></path>
                        <path d="M32.3353,195.2828 C45.0053,183.1848 88.1133,164.8118 106.5173,165.6228 C127.9943,166.5698 128.9113,205.0078 125.7243,219.5998 C121.5853,238.5518 79.5563,260.7068 58.9773,250.6668 C52.3253,247.4218 44.3933,238.2188 39.9543,232.0428 C35.5163,225.8668 28.0053,212.6008 27.5173,205.4618 C27.0283,198.3228 32.3353,195.2828 32.3353,195.2828 M229.8503,102.1928 C229.8503,102.1928 235.5723,100.0348 240.7683,104.9558 C245.9623,109.8758 251.4143,124.1128 253.3523,131.4668 C255.2913,138.8208 257.3403,150.7968 255.6103,157.9928 C250.2553,180.2558 206.4163,198.5698 189.1643,189.6998 C175.8813,182.8708 146.8173,157.6978 159.7573,140.5298 C170.8453,125.8198 212.4553,104.2648 229.8503,102.1928 M118.3283,158.2578 C116.7433,157.5658 111.9763,155.2888 106.5663,155.8028 C81.1463,158.2168 22.5853,189.7818 8.4883,201.3078 C6.6723,202.7928 6.4163,202.8228 6.8543,204.3248 C7.2923,205.8258 11.1003,214.0958 12.3513,215.0338 C13.6023,215.9728 17.0063,214.9968 21.7413,217.7978 C30.2293,222.8178 42.5073,249.7788 60.4563,256.8368 C79.0423,264.1448 126.2363,242.4908 130.6893,218.9908 C133.6303,203.4688 131.7243,188.6438 130.3943,174.1398 C131.7973,170.0628 134.0463,168.7338 136.0413,167.4338 C137.2773,166.6278 138.4123,166.0438 139.0943,165.7158 C139.7813,165.3978 140.9543,164.8948 142.3633,164.4538 C144.6343,163.7428 147.0923,162.8548 151.1293,164.3668 C161.4693,174.6248 171.6903,185.5308 185.5343,193.1418 C206.4943,204.6648 253.2333,182.0478 259.4273,163.0598 C265.4083,144.7248 252.4283,118.0938 253.9583,108.3528 C254.8113,102.9178 257.7313,100.9128 257.8033,99.3508 C257.8763,97.7888 253.9213,89.5878 253.0423,88.2948 C252.1623,87.0008 251.9763,87.1788 249.6743,87.6348 C231.8133,91.1718 170.1943,116.2478 152.1523,134.3178 C148.3123,138.1628 147.0343,143.2898 146.5603,144.9518 C145.0763,146.5058 142.2863,148.2258 132.8313,152.4278 C123.5723,157.0458 120.4703,158.1018 118.3283,158.2578" id="Fill-54" fill="#FFFFFF"></path>
                        <path d="M247.3504,261.7463 C260.3924,219.4503 259.5884,175.1803 246.4514,135.0373 C242.5504,119.9363 248.8544,102.9713 263.1034,96.5253 C277.2724,90.0733 295.8014,100.5033 301.0974,120.6263 C312.1854,173.3103 306.6354,227.5703 285.7964,275.9933" id="Fill-56" fill="#C60C30"></path>
                        <path d="M286.0003,278.2004 C285.6443,278.2334 285.2733,278.1804 284.9203,278.0284 C283.7953,277.5444 283.2763,276.2414 283.7603,275.1164 C304.6673,226.5364 309.9133,173.2724 298.9283,121.0834 C296.2993,111.1034 290.0353,103.0684 281.7693,99.1464 C275.7463,96.2874 269.4423,96.0734 264.0213,98.5424 C251.4073,104.2484 244.7783,119.6984 248.5973,134.4824 C262.1643,175.9254 262.4783,220.2044 249.4683,262.3994 C249.1053,263.5694 247.8663,264.2244 246.6963,263.8644 C245.5273,263.5034 244.8713,262.2624 245.2313,261.0934 C257.9723,219.7794 257.6653,176.4284 244.3453,135.7264 C239.9563,118.7494 247.6443,101.0864 262.1893,94.5064 C268.8163,91.4894 276.4473,91.7144 283.6693,95.1414 C293.1193,99.6254 300.2523,108.7094 303.2403,120.0634 C314.4393,173.2594 309.1033,227.4444 287.8323,276.8694 C287.5003,277.6414 286.7813,278.1274 286.0003,278.2004" id="Fill-58" fill="#FFFFFF"></path>
                        <path d="M252.0736,136.6891 C250.7966,136.8081 249.4486,136.8561 248.0326,136.8551 C246.8076,136.8551 245.8166,135.8611 245.8176,134.6371 C245.8186,133.4141 246.8026,132.4241 248.0346,132.4231 C255.7646,132.4291 259.8396,131.1181 262.1236,123.6711 C262.4826,122.5021 263.7256,121.8431 264.8926,122.2031 C266.0626,122.5621 266.7196,123.8011 266.3616,124.9711 C263.7976,133.3271 258.9656,136.0461 252.0736,136.6891" id="Fill-60" fill="#FFFFFF"></path>
                    </g>
                </g>
            </g>
        </g>
    </g>
</svg>