<?xml version="1.0" encoding="UTF-8"?>
<svg width="391px" height="390px" viewBox="0 0 391 390" version="1.1" xmlns="http://www.w3.org/2000/svg" xmlns:xlink="http://www.w3.org/1999/xlink">
    <!-- Generator: sketchtool 51 (57462) - http://www.bohemiancoding.com/sketch -->
    <title>6412B3E9-5526-4052-B0F2-F21784ED3002</title>
    <desc>Created with sketchtool.</desc>
    <defs>
        <polygon id="path-1" points="0.3188 0.1465 223.098408 0.1465 223.098408 121.235 0.3188 121.235"></polygon>
        <polygon id="path-3" points="0.2403 0.067321339 227.181683 0.067321339 227.181683 123.235 0.2403 123.235"></polygon>
        <polygon id="path-5" points="0.985701388 0.5852 123.5798 0.5852 123.5798 99.235 0.985701388 99.235"></polygon>
        <polygon id="path-7" points="0.888985764 0.511716879 108.752426 0.511716879 108.752426 101.235 0.888985764 101.235"></polygon>
        <polygon id="path-9" points="0.6289 0.6509 42.8727715 0.6509 42.8727715 24.235 0.6289 24.235"></polygon>
        <polygon id="path-11" points="0.5 393 391 393 391 0.001 0.5 0.001"></polygon>
    </defs>
    <g id="Symbols" stroke="none" stroke-width="1" fill="none" fill-rule="evenodd">
        <g id="abbyy-man3">
            <g id="Group-71">
                <g id="Group-63">
                    <g id="Group-3" transform="translate(105.000000, 243.000000)">
                        <mask id="mask-2" fill="white">
                            <use xlink:href="#path-1"></use>
                        </mask>
                        <g id="Clip-2"></g>
                        <path d="M189.6448,244.5825 L167.8608,247.7275 C156.1568,249.4175 149.9798,177.8695 98.3948,190.3825 C71.4668,196.9145 69.8598,219.9325 69.8598,219.9325 L72.4978,260.2595 C73.3358,272.9315 67.1178,280.6095 54.5488,282.4245 L28.1028,286.2425 C13.6438,288.3305 0.6218,277.2885 0.3188,262.6835 L3.9248,20.3405 L143.7878,0.1465 C158.0018,36.9525 142.0418,66.6405 168.7338,109.4605 C196.7118,154.3435 227.7848,198.3655 222.5078,219.9125 C226.3478,234.0065 204.1028,242.4945 189.6448,244.5825" id="Fill-1" fill="#C60C30" mask="url(#mask-2)"></path>
                    </g>
                    <g id="Group-6" transform="translate(103.000000, 241.000000)">
                        <mask id="mask-4" fill="white">
                            <use xlink:href="#path-3"></use>
                        </mask>
                        <g id="Clip-5"></g>
                        <path d="M7.9753,24.1436 L4.3973,264.7136 C4.5293,271.0046 7.3903,277.0186 12.2463,281.1406 C17.1043,285.2546 23.5053,287.1006 29.8053,286.1856 L56.2513,282.3666 C67.7493,280.7096 73.1893,273.9896 72.4233,262.3976 L69.7863,222.0656 C69.8053,221.5416 71.8243,197.1746 99.9053,190.3616 C136.7583,181.4206 151.6883,213.9016 160.6173,233.3006 C163.6283,239.8446 167.3643,248.0486 169.5633,247.6716 L191.3483,244.5236 C202.3053,242.9456 216.3013,237.8856 221.1423,230.5096 C222.8323,227.9326 223.2763,225.3006 222.5023,222.4596 C222.4103,222.1186 222.4053,221.7596 222.4903,221.4166 C226.8083,203.7826 204.5273,168.6856 180.9393,131.5286 C176.9623,125.2646 172.9353,118.9216 168.9703,112.5636 C153.0753,87.0606 152.0333,66.1196 151.0233,45.8656 C150.3323,31.9656 149.6783,18.8066 144.4293,4.4426 L7.9753,24.1436 Z M24.4663,290.4826 C19.0223,290.0346 13.7973,287.9026 9.5583,284.3086 C3.7943,279.4196 0.3983,272.2816 0.2403,264.7266 L3.8463,22.3096 C3.8623,21.2886 4.6173,20.4306 5.6273,20.2856 L145.4893,0.0906 C146.4523,-0.0544 147.3753,0.4896 147.7253,1.3986 C153.7493,16.9906 154.4743,31.5656 155.1763,45.6566 C156.1583,65.3836 157.1743,85.7776 172.4983,110.3616 C176.4563,116.7146 180.4763,123.0486 184.4473,129.3006 C209.3483,168.5236 230.8823,202.4486 226.6463,221.8886 C227.5443,225.7016 226.8623,229.3676 224.6153,232.7906 C218.2433,242.5006 201.0793,247.3206 191.9423,248.6376 L170.1583,251.7856 C164.8783,252.5966 161.6923,245.5786 156.8413,235.0386 C147.9013,215.6186 134.3993,186.2806 100.8843,194.4016 C75.8323,200.4766 73.9993,221.2026 73.9333,222.0806 L76.5703,262.1236 C77.4813,275.8616 70.4753,284.5136 56.8453,286.4796 L30.3993,290.2986 C28.4193,290.5836 26.4283,290.6446 24.4663,290.4826 Z" id="Fill-4" fill="#FFFFFF" mask="url(#mask-4)"></path>
                    </g>
                    <g id="Group-9" transform="translate(11.000000, 265.000000)">
                        <mask id="mask-6" fill="white">
                            <use xlink:href="#path-5"></use>
                        </mask>
                        <g id="Clip-8"></g>
                        <path d="M123.5798,32.9272 C89.9718,57.2782 65.6278,90.9112 52.8528,128.4012 C47.2668,141.9172 32.9828,151.0792 18.6708,147.8812 C4.4158,144.7332 -3.5942,126.4752 3.7758,108.4082 C25.1528,62.6742 59.8878,25.1342 102.7928,0.5852" id="Fill-7" fill="#C60C30" mask="url(#mask-6)"></path>
                    </g>
                    <g id="Group-12" transform="translate(9.000000, 263.000000)">
                        <mask id="mask-8" fill="white">
                            <use xlink:href="#path-7"></use>
                        </mask>
                        <g id="Clip-11"></g>
                        <path d="M24.0098,152.4873 C22.7418,152.3833 21.4768,152.1933 20.2168,151.9103 C13.5488,150.4373 7.9588,145.9663 4.4748,139.3263 C-0.0782,130.6393 -0.3052,119.8163 3.8498,109.6223 C25.4388,63.4393 59.9728,25.8363 103.7608,0.7833 C104.7608,0.2183 106.0298,0.5633 106.5968,1.5543 C107.1668,2.5503 106.8218,3.8213 105.8268,4.3913 C62.7838,29.0163 28.8378,65.9793 7.6578,111.2883 C4.0068,120.2483 4.1718,129.8003 8.1568,137.3973 C11.0608,142.9353 15.6628,146.6493 21.1188,147.8553 C33.7978,150.6653 47.4638,142.8383 52.9318,129.6083 C65.4378,92.8923 73.2098,76.3823 105.3238,48.9153 C106.1978,48.1733 107.5088,48.2723 108.2538,49.1403 C108.9998,50.0163 108.8968,51.3273 108.0248,52.0703 C76.7018,78.8643 69.1058,95.0153 56.8188,131.0723 C51.0828,144.9603 37.4638,153.5943 24.0098,152.4873" id="Fill-10" fill="#FFFFFF" mask="url(#mask-8)"></path>
                    </g>
                    <path d="M232.6184,280.5386 C273.9864,290.2086 310.2884,312.3096 337.1974,342.6346 C347.8244,353.1786 364.9364,356.1676 377.1784,347.4806 C389.3854,338.8616 389.7134,318.4556 375.5994,304.3216 C337.3054,269.6236 289.6474,247.9516 239.4254,241.7776" id="Fill-13" fill="#C60C30"></path>
                    <path d="M358.0493,354.4917 C350.0113,353.8307 341.9713,350.2977 335.7343,344.1117 C310.3973,315.5637 290.5343,302.7337 250.6263,289.1067 C249.5383,288.7357 248.9593,287.5557 249.3303,286.4707 C249.7003,285.3857 250.8753,284.7897 251.9673,285.1767 C292.6723,299.0737 312.9483,312.1777 338.7523,341.2567 C349.0793,351.4977 365.1223,353.4897 375.9763,345.7847 C380.6633,342.4767 383.5443,337.1347 384.0923,330.7447 C384.8433,321.9817 381.2143,312.8857 374.1293,305.7907 C336.2603,271.4797 289.5673,250.0327 239.1733,243.8427 C238.0343,243.6997 237.2233,242.6637 237.3643,241.5227 C237.5033,240.3817 238.5303,239.5787 239.6793,239.7137 C290.9303,246.0147 338.4123,267.8247 376.9953,302.7847 C385.0203,310.8167 389.0913,321.1127 388.2333,331.0977 C387.5793,338.7327 384.0773,345.1527 378.3763,349.1797 C372.4773,353.3657 365.2643,355.0857 358.0493,354.4917" id="Fill-15" fill="#FFFFFF"></path>
                    <path d="M333.9263,340.9656 C333.2463,340.9096 332.6103,340.5236 332.2643,339.8756 C328.1593,332.2316 327.0153,326.0816 333.9973,319.0406 C334.8093,318.2316 336.1213,318.2216 336.9363,319.0296 C337.7513,319.8386 337.7573,321.1536 336.9483,321.9716 C331.6623,327.2986 332.4053,331.3596 335.9243,337.9126 C336.4683,338.9226 336.0883,340.1826 335.0783,340.7266 C334.7123,340.9206 334.3123,340.9976 333.9263,340.9656" id="Fill-17" fill="#FFFFFF"></path>
                    <path d="M206.4827,314.342 L166.5117,320.597 L168.5257,333.465 C169.9257,342.413 176.0837,343.373 181.0037,342.603 C185.2017,341.946 189.4457,340.549 190.1567,335.681 C191.8987,338.551 195.3417,340.479 199.6427,339.806 C209.1127,338.323 209.1907,331.645 208.5037,327.256 L206.4827,314.342 Z M201.4327,327.222 C201.7547,329.279 199.9747,330.398 197.3477,330.809 C193.9997,331.333 192.6487,330.48 192.4187,329.013 L191.9717,326.158 L201.0447,324.739 L201.4327,327.222 Z M185.4267,329.49 C185.8827,332.401 184.4367,333.21 180.8407,333.772 C175.7637,334.567 175.4107,332.31 175.1907,330.901 L174.8677,328.835 L185.0747,327.238 L185.4267,329.49 Z" id="Fill-19" fill="#FFFFFF"></path>
                    <g id="Group-23" transform="translate(170.000000, 340.000000)">
                        <mask id="mask-10" fill="white">
                            <use xlink:href="#path-9"></use>
                        </mask>
                        <g id="Clip-22"></g>
                        <path d="M40.5999,0.6509 L0.6289,6.9059 L2.6429,19.7739 C4.0429,28.7219 10.2009,29.6819 15.1199,28.9119 C19.3199,28.2549 23.5629,26.8569 24.2739,21.9899 C26.0169,24.8589 29.4589,26.7879 33.7599,26.1149 C43.2309,24.6319 43.3079,17.9529 42.6209,13.5639 L40.5999,0.6509 Z M35.5499,13.5299 C35.8719,15.5869 34.0919,16.7059 31.4649,17.1169 C28.1169,17.6409 26.7659,16.7869 26.5369,15.3209 L26.0899,12.4669 L35.1619,11.0469 L35.5499,13.5299 Z M19.5439,15.7969 C19.9999,18.7089 18.5539,19.5179 14.9579,20.0809 C9.8819,20.8749 9.5289,18.6179 9.3079,17.2099 L8.9849,15.1439 L19.1919,13.5469 L19.5439,15.7969 Z" id="Fill-21" fill="#FFFFFF" mask="url(#mask-10)"></path>
                    </g>
                    <g id="Group-26" transform="translate(175.000000, 364.000000)" fill="#FFFFFF">
                        <path d="M41.9431,17.1833 C41.9431,17.1833 27.8351,15.8133 25.2561,15.4053 C27.6041,14.2703 40.6491,8.9163 40.6491,8.9163 L39.2911,0.2353 C39.2911,0.2353 14.5881,12.1523 14.4651,12.2163 L0.5571,14.3933 L2.0161,23.7173 L15.9201,21.5413 C16.0661,21.5703 43.2231,25.3603 43.2231,25.3603 L41.9431,17.1833 Z" id="Fill-24"></path>
                    </g>
                    <path d="M165.0007,310.9431 L166.2467,318.9051 L204.9557,304.5771 L203.2607,293.7471 L162.0257,291.9301 L163.2717,299.8921 L172.0517,300.2801 L173.2427,307.8921 L165.0007,310.9431 Z M179.1787,300.5931 L191.4937,301.1361 L179.9337,305.4151 L179.1787,300.5931 Z" id="Fill-27" fill="#FFFFFF"></path>
                    <path d="M194.5574,270.1555 L135.4254,279.5505 C81.8424,288.0635 31.2244,249.7685 22.3664,194.0155 C13.5084,138.2625 49.7644,86.1655 103.3474,77.6515 L162.4794,68.2565 C216.0614,59.7435 266.6794,98.0385 275.5374,153.7915 C284.3964,209.5445 248.1404,261.6425 194.5574,270.1555" id="Fill-29" fill="#C60C30"></path>
                    <path d="M185.0962,69.4531 C177.7342,68.8471 170.2662,69.1251 162.8062,70.3071 L103.6732,79.7011 C51.3072,88.0221 15.7542,139.1561 24.4202,193.6881 C33.0822,248.2201 82.7372,285.7941 135.0982,277.5011 L194.2322,268.1031 C246.5972,259.7821 282.1492,208.6481 273.4842,154.1201 C269.2852,127.6851 255.4512,104.4131 234.5282,88.5801 C219.7782,77.4211 202.7492,70.9051 185.0962,69.4531 M112.6482,282.4841 C67.2082,278.7451 28.0502,243.0291 20.3142,194.3441 C11.2902,137.5471 48.3922,84.2791 103.0212,75.5991 L162.1542,66.2051 C188.6442,61.9951 215.2262,68.7671 237.0342,85.2671 C258.8182,101.7491 273.2222,125.9691 277.5902,153.4641 C286.6142,210.2611 249.5132,263.5251 194.8842,272.2051 L135.7512,281.6031 C127.9562,282.8431 120.2122,283.1061 112.6482,282.4841" id="Fill-31" fill="#FFFFFF"></path>
                    <path d="M103.2856,122.8318 L116.6606,27.4758 C116.9956,25.0858 119.5336,23.6888 121.7316,24.6848 L206.0856,62.8898" id="Fill-33" fill="#C60C30"></path>
                    <path d="M103.1169,124.9011 C103.0759,124.8981 103.0359,124.8941 102.9959,124.8871 C101.8609,124.7281 101.0669,123.6781 101.2279,122.5421 L114.6029,27.1881 C114.8549,25.3921 115.9089,23.8621 117.4959,22.9911 C119.0769,22.1111 120.9339,22.0361 122.5889,22.7911 L206.9449,60.9951 C207.9899,61.4681 208.4539,62.7001 207.9789,63.7441 C207.5079,64.7931 206.2829,65.2541 205.2289,64.7801 L120.8739,26.5761 C120.4269,26.3721 119.9279,26.3921 119.4989,26.6301 C119.0709,26.8671 118.7859,27.2791 118.7179,27.7631 L105.3429,123.1171 C105.1889,124.2161 104.2069,124.9911 103.1169,124.9011" id="Fill-35" fill="#FFFFFF"></path>
                    <path d="M253.5474,94.926 L225.4024,33.949 C224.4284,31.838 221.6754,31.297 219.9734,32.881 L171.1904,78.312" id="Fill-37" fill="#C60C30"></path>
                    <path d="M253.3796,96.9973 C252.6576,96.9373 251.9866,96.5043 251.6616,95.7973 L223.5176,34.8203 C223.3336,34.4263 222.9856,34.1533 222.5606,34.0693 C222.1326,33.9813 221.7066,34.1093 221.3876,34.4003 L172.6066,79.8323 C171.7706,80.6193 170.4566,80.5723 169.6696,79.7253 C168.8866,78.8873 168.9336,77.5713 169.7746,76.7893 L218.5566,31.3573 C219.8646,30.1413 221.6076,29.6413 223.3646,29.9893 C225.1126,30.3333 226.5426,31.4613 227.2896,33.0783 L255.4336,94.0553 C255.9166,95.0963 255.4606,96.3333 254.4186,96.8143 C254.0826,96.9693 253.7256,97.0253 253.3796,96.9973" id="Fill-39" fill="#FFFFFF"></path>
                    <path d="M207.2991,92.009 L256.8001,73.026 C259.6681,71.926 262.8201,73.746 263.3021,76.779 L275.8151,155.534" id="Fill-41" fill="#C60C30"></path>
                    <path d="M275.6433,157.6042 C274.7113,157.5272 273.9173,156.8232 273.7623,155.8612 L261.2493,77.1062 C261.1193,76.2812 260.6303,75.5692 259.9073,75.1512 C259.1893,74.7422 258.3283,74.6672 257.5443,74.9652 L208.0443,93.9482 C206.9733,94.3642 205.7693,93.8222 205.3583,92.7532 C204.9483,91.6812 205.4843,90.4792 206.5543,90.0702 L256.0543,71.0872 C258.0103,70.3322 260.1733,70.5062 261.9843,71.5552 C263.7983,72.6002 265.0263,74.3872 265.3543,76.4552 L277.8683,155.2052 C278.0483,156.3402 277.2743,157.4042 276.1423,157.5842 C275.9723,157.6112 275.8073,157.6182 275.6433,157.6042" id="Fill-43" fill="#FFFFFF"></path>
                    <path d="M134.2356,20.9502 C139.2886,29.0552 136.8136,39.7222 128.7086,44.7752 C120.6026,49.8282 109.9366,47.3532 104.8836,39.2482 C99.8306,31.1432 102.3056,20.4762 110.4106,15.4232 C118.5156,10.3702 129.1826,12.8452 134.2356,20.9502" id="Fill-45" fill="#C60C30"></path>
                    <path d="M120.7756,14.9282 C117.5396,14.6622 114.3156,15.4392 111.5096,17.1882 C108.0606,19.3352 105.6556,22.7012 104.7376,26.6612 C103.8176,30.6212 104.4956,34.7012 106.6476,38.1482 C111.0856,45.2702 120.4886,47.4522 127.6096,43.0132 C134.7276,38.5732 136.9106,29.1692 132.4706,22.0522 C130.3226,18.6012 126.9566,16.1982 122.9986,15.2782 C122.2596,15.1072 121.5176,14.9892 120.7756,14.9282 M117.9966,49.4022 C112.0946,48.9162 106.4866,45.7472 103.1186,40.3502 C100.3826,35.9592 99.5186,30.7652 100.6896,25.7212 C101.8576,20.6822 104.9206,16.3972 109.3116,13.6592 C118.3816,8.0072 130.3486,10.7962 135.9996,19.8502 C141.6496,28.9162 138.8726,40.8892 129.8076,46.5412 C126.1446,48.8262 122.0016,49.7312 117.9966,49.4022" id="Fill-47" fill="#FFFFFF"></path>
                    <path d="M123.4097,181.3367 C124.9157,187.1577 121.4177,193.0867 115.6037,194.5907 C109.7907,196.0947 103.8557,192.6047 102.3497,186.7847 C100.8467,180.9737 104.3427,175.0347 110.1557,173.5307 C115.9697,172.0267 121.9067,175.5267 123.4097,181.3367" id="Fill-49" fill="#FFFFFF"></path>
                    <path d="M230.9324,149.0452 C232.4384,154.8662 228.9404,160.7952 223.1264,162.2992 C217.3134,163.8032 211.3784,160.3132 209.8724,154.4932 C208.3694,148.6822 211.8654,142.7432 217.6784,141.2392 C223.4924,139.7352 229.4294,143.2352 230.9324,149.0452" id="Fill-51" fill="#FFFFFF"></path>
                    <path d="M160.3083,254.0862 C148.1973,253.0902 137.0993,248.2142 126.4723,239.3702 C125.5903,238.6382 125.4703,237.3242 126.2043,236.4442 C126.9363,235.5642 128.2473,235.4392 129.1303,236.1762 C146.8713,250.9402 165.2333,253.8762 188.6733,245.7052 C189.7573,245.3172 190.9423,245.8952 191.3193,246.9812 C191.6963,248.0672 191.1243,249.2502 190.0403,249.6292 C179.3803,253.3462 169.5473,254.8462 160.3083,254.0862" id="Fill-53" fill="#FFFFFF"></path>
                    <path d="M220.4138,93.0059 C221.5228,99.9849 216.7638,106.5419 209.7848,107.6509 C202.8048,108.7599 196.2478,104.0009 195.1388,97.0219 C194.0298,90.0419 198.7888,83.4849 205.7688,82.3769 C212.7478,81.2679 219.3048,86.0269 220.4138,93.0059" id="Fill-55" fill="#C60C30"></path>
                    <path d="M208.6763,84.3315 C207.8273,84.2615 206.9613,84.2925 206.0943,84.4285 C203.2673,84.8805 200.7843,86.4025 199.1013,88.7195 C197.4203,91.0335 196.7433,93.8655 197.1933,96.6915 C197.6403,99.5225 199.1643,102.0055 201.4823,103.6865 C203.7973,105.3725 206.6273,106.0485 209.4573,105.6015 C215.2923,104.6725 219.2883,99.1695 218.3613,93.3345 C217.9123,90.5035 216.3893,88.0205 214.0723,86.3395 C212.4643,85.1725 210.6083,84.4905 208.6763,84.3315 M206.5303,109.8405 C203.8493,109.6205 201.2713,108.6705 199.0393,107.0495 C195.8243,104.7165 193.7103,101.2725 193.0873,97.3435 C192.4623,93.4235 193.4053,89.4935 195.7383,86.2765 C198.0723,83.0605 201.5183,80.9485 205.4423,80.3265 C209.3733,79.6975 213.2993,80.6395 216.5133,82.9765 C219.7283,85.3095 221.8433,88.7585 222.4673,92.6785 L222.4673,92.6825 C223.7523,100.7785 218.2103,108.4145 210.1103,109.7035 C208.9113,109.8935 207.7103,109.9375 206.5303,109.8405" id="Fill-57" fill="#FFFFFF"></path>
                    <path d="M46.8481,177.2412 C60.6911,168.3982 103.6761,159.2802 120.4631,163.3512 C140.0541,168.1022 133.9531,203.6372 128.3841,216.4872 C121.1521,233.1772 78.4781,245.9702 61.3561,233.0142 C55.8221,228.8272 50.1861,218.9262 47.2181,212.4412 C44.2501,205.9562 39.7351,192.3932 40.5761,185.7372 C41.4151,179.0802 46.8481,177.2412 46.8481,177.2412 M245.4031,127.2692 C245.4031,127.2692 251.0591,126.3162 254.9501,131.7832 C258.8411,137.2492 261.2851,151.3332 261.7401,158.4502 C262.1951,165.5672 261.9181,176.9562 259.0251,183.2652 C250.0771,202.7822 206.4311,211.7142 192.1591,200.4362 C181.1711,191.7532 158.9761,163.3402 173.9841,149.8812 C186.8441,138.3482 229.0231,126.0322 245.4031,127.2692 M132.6611,158.7082 C131.3281,157.7862 127.3531,154.8292 122.2821,154.3242 C98.4561,151.9532 38.8711,170.4182 23.8181,178.4762 C21.8781,179.5152 21.6371,179.4972 21.7681,180.9572 C21.9001,182.4182 23.9101,190.7152 24.8921,191.8042 C25.8731,192.8942 29.1821,192.6112 33.0331,196.0442 C39.9351,202.1962 46.3621,229.2222 61.6021,238.9592 C77.3841,249.0412 124.7201,237.6422 133.0631,216.8242 C138.5741,203.0732 139.4981,189.0872 140.8941,175.5012 C142.9221,172.0042 145.2321,171.1872 147.3011,170.3522 C148.5851,169.8332 149.7341,169.5002 150.4211,169.3222 C151.1111,169.1542 152.2811,168.9032 153.6571,168.7522 C155.8751,168.5082 158.2971,168.1352 161.7391,170.2552 C169.3991,181.5622 176.8341,193.4432 188.1971,202.9472 C205.4011,217.3362 252.4941,204.9692 261.6221,188.6172 C270.4381,172.8272 263.3061,145.9782 266.4731,137.2922 C268.2401,132.4452 271.2891,131.1272 271.6381,129.7032 C271.9871,128.2792 269.8291,120.0192 269.2541,118.6702 C268.6791,117.3212 268.4741,117.4512 266.2751,117.4552 C249.2001,117.4832 187.9731,129.4242 168.1081,142.7912 C163.8801,145.6362 161.7791,150.1222 161.0411,151.5652 C159.3951,152.7272 156.5181,153.8052 147.0591,155.9642 C137.7061,158.5402 134.6611,158.9522 132.6611,158.7082" id="Fill-59" fill="#FFFFFF"></path>
                    <mask id="mask-12" fill="white">
                        <use xlink:href="#path-11"></use>
                    </mask>
                    <g id="Clip-62"></g>
                    <polygon id="Fill-61" fill="#F2F2F2" mask="url(#mask-12)" points="-561 1189 1363 1189 1363 304 -561 304"></polygon>
                </g>
                <g id="Group-70" transform="translate(249.000000, 252.000000)">
                    <path d="M43.9226,53.4172 C60.4936,63.6632 75.4066,76.2202 88.1976,90.6342 C98.8246,101.1792 115.9366,104.1682 128.1776,95.4802 C140.3856,86.8612 140.7136,66.4552 126.5996,52.3222 C101.4216,29.5082 83.2516,16.7452 59.4846,8.9232" id="Fill-64" fill="#C60C30"></path>
                    <path d="M127.9946,50.7852 C103.5396,28.6262 75.5066,11.7592 45.2076,0.7672 C44.6676,2.0612 43.9466,3.2802 43.0896,4.4202 C73.1446,15.2162 100.9396,31.8742 125.1286,53.7912 C132.2136,60.8862 135.8436,69.9812 135.0926,78.7452 C134.5436,85.1342 131.6626,90.4772 126.9756,93.7852 C116.1216,101.4892 100.0786,99.4972 89.7526,89.2562 C64.0516,60.2932 43.8276,47.1782 3.4466,33.3432 C2.4736,34.2862 1.4706,35.2022 0.4696,36.1182 C0.7086,36.5662 1.1066,36.9302 1.6256,37.1062 C41.5346,50.7342 61.3976,63.5642 86.7346,92.1112 C92.9716,98.2982 101.0116,101.8302 109.0496,102.4922 C116.2636,103.0852 123.4776,101.3652 129.3766,97.1792 C135.0776,93.1522 138.5786,86.7332 139.2336,79.0972 C140.0916,69.1132 136.0206,58.8162 127.9946,50.7852" id="Fill-66" fill="#FFFFFF"></path>
                    <path d="M84.9263,88.9656 C84.2463,88.9096 83.6103,88.5236 83.2643,87.8756 C79.1593,80.2316 78.0153,74.0816 84.9973,67.0406 C85.8093,66.2316 87.1213,66.2216 87.9363,67.0296 C88.7513,67.8386 88.7573,69.1536 87.9483,69.9716 C82.6623,75.2986 83.4053,79.3596 86.9243,85.9126 C87.4683,86.9226 87.0883,88.1826 86.0783,88.7266 C85.7123,88.9206 85.3123,88.9976 84.9263,88.9656" id="Fill-68" fill="#FFFFFF"></path>
                </g>
            </g>
        </g>
    </g>
</svg>