<?xml version="1.0" encoding="UTF-8"?>
<svg width="93px" height="79px" viewBox="0 0 108 92" version="1.1" xmlns="http://www.w3.org/2000/svg" xmlns:xlink="http://www.w3.org/1999/xlink">
    <!-- Generator: sketchtool 51 (57462) - http://www.bohemiancoding.com/sketch -->
    <title>DEBE00AE-941A-4C94-B819-C55C0AED34F4</title>
    <desc>Created with sketchtool.</desc>
    <defs>
        <polygon id="path-1" points="0 0.0002 107.172 0.0002 107.172 91.2512 0 91.2512"></polygon>
    </defs>
    <g id="Page-1" stroke="none" stroke-width="1" fill="none" fill-rule="evenodd">
        <g id="1920" transform="translate(-369.000000, -2311.000000)">
            <rect fill="#FFFFFF" x="0" y="0" width="1920" height="10097"></rect>
            <g id="history" transform="translate(-33.000000, 2053.000000)">
                <g id="icon-history2" transform="translate(323.000000, 173.000000)">
                    <g id="icon-history" transform="translate(79.000000, 85.000000)">
                        <g id="Group-3">
                            <mask id="mask-2" fill="white">
                                <use xlink:href="#path-1"></use>
                            </mask>
                            <g id="Clip-2"></g>
                            <path d="M31.7653,35.7072 L75.4073,35.7072 L75.4073,60.2692 L71.4403,62.2532 L71.4403,45.6262 C71.4403,39.0122 59.5373,39.0122 59.5373,45.6262 L59.5373,68.3692 L51.6023,73.6592 L51.6023,45.6262 L51.6023,45.6602 C51.7203,39.0252 39.7003,38.9882 39.7003,45.6262 L39.7003,45.5902 L39.1013,80.6702 L31.7653,85.5612 L31.7653,35.7072 Z M29.7813,31.7392 C28.6853,31.7392 27.7973,32.6292 27.7973,33.7232 L27.7973,89.2682 C27.7973,90.3642 28.6873,91.2512 29.7813,91.2512 C30.1723,91.2512 30.5563,91.1352 30.8823,90.9182 L42.1663,83.3942 C42.7083,83.0332 43.0373,82.4292 43.0493,81.7782 L43.6673,45.6582 L43.6673,45.6262 C43.6673,44.3242 47.6583,44.2872 47.6353,45.5902 L47.6353,77.3652 C47.6353,78.4622 48.5223,79.3492 49.6193,79.3492 C50.0103,79.3492 50.3933,79.2322 50.7193,79.0162 L62.6213,71.0812 C63.1733,70.7132 63.5053,70.0932 63.5053,69.4302 L63.5053,45.6262 C63.5053,44.3012 67.4723,44.3012 67.4723,45.6262 L67.4723,65.4632 C67.4723,66.5592 68.3613,67.4472 69.4583,67.4472 C69.7643,67.4472 70.0683,67.3752 70.3433,67.2352 L78.2783,63.2682 C78.9503,62.9332 79.3753,62.2472 79.3753,61.4952 L79.3753,33.7232 C79.3753,32.6272 78.4873,31.7392 77.3913,31.7392 L29.7813,31.7392 Z M7.9603,3.9672 L99.2123,3.9672 L99.2123,5.1302 L92.4393,11.9022 L14.7333,11.9022 L7.9603,5.1302 L7.9603,3.9672 Z M5.9763,0.0002 C4.8803,0.0002 3.9933,0.8892 3.9933,1.9832 L3.9933,5.9512 C3.9933,6.4782 4.2023,6.9812 4.5743,7.3532 L12.5093,15.2882 C12.8813,15.6602 13.3843,15.8702 13.9113,15.8702 L93.2613,15.8702 C93.7873,15.8702 94.2913,15.6602 94.6633,15.2882 L102.5983,7.3532 C102.9703,6.9812 103.1793,6.4782 103.1793,5.9512 L103.1793,1.9832 C103.1793,0.8892 102.2903,0.0002 101.1963,0.0002 L5.9763,0.0002 Z M13.4463,19.8462 C5.6953,20.4642 -0.6687,27.2552 0.0563,35.2282 C0.6783,42.0752 6.7303,47.6932 13.8143,46.9412 C19.7543,46.3112 24.6263,40.9922 23.8383,34.7982 C23.1963,29.7672 18.6013,25.6332 13.2943,26.4782 C9.1713,27.1332 5.7633,31.0282 6.7053,35.4612 C7.0463,37.0672 7.9683,38.4602 9.2793,39.4052 C10.5933,40.3502 12.4243,40.8132 14.2063,40.2462 C15.3743,39.8742 16.3063,39.1282 16.9393,38.0552 C17.5713,36.9812 17.7763,35.3102 16.9303,33.9832 C16.2503,32.9132 15.6243,32.7002 14.6433,32.5352 C14.1513,32.4542 13.4653,32.4232 12.7373,32.8982 C12.0073,33.3732 11.6203,34.3542 11.6203,35.0482 C11.6143,35.5792 11.8173,36.0902 12.1913,36.4662 C11.9963,36.4122 11.8023,36.3332 11.5983,36.1862 C11.1203,35.8402 10.7073,35.2152 10.5853,34.6382 C10.1653,32.6552 11.8663,30.7222 13.9153,30.3952 C16.8313,29.9322 19.5273,32.3592 19.9013,35.2982 C20.3893,39.1362 17.2263,42.5882 13.3943,42.9952 C8.6443,43.4992 4.4383,39.5952 4.0083,34.8682 C3.4933,29.2092 8.1403,24.2502 13.7623,23.8022 C13.8113,23.7992 13.8613,23.7952 13.9113,23.7932 L93.2613,23.7932 C93.3113,23.7972 93.3613,23.7992 93.4103,23.8022 C99.0323,24.2502 103.6793,29.2092 103.1643,34.8702 C102.7343,39.5952 98.5283,43.4992 93.7783,42.9952 C89.9463,42.5882 86.7823,39.1362 87.2713,35.3002 C87.6453,32.3612 90.3413,29.9322 93.2573,30.3972 C95.3063,30.7222 97.0073,32.6552 96.5873,34.6382 C96.4653,35.2172 96.0523,35.8422 95.5743,36.1862 C95.3683,36.3332 95.1763,36.4122 94.9833,36.4682 C95.3553,36.0902 95.5583,35.5792 95.5523,35.0502 C95.5523,34.3542 95.1653,33.3742 94.4373,32.8982 C93.7063,32.4232 93.0203,32.4542 92.5303,32.5372 C91.5483,32.7022 90.9223,32.9132 90.2403,33.9852 C89.3963,35.3122 89.6013,36.9832 90.2343,38.0552 C90.8663,39.1282 91.7983,39.8742 92.9663,40.2462 C94.7503,40.8132 96.5793,40.3502 97.8933,39.4052 C99.2043,38.4602 100.1263,37.0672 100.4673,35.4612 C101.4083,31.0302 97.9993,27.1352 93.8793,26.4782 C88.5713,25.6332 83.9753,29.7692 83.3343,34.8002 C82.5463,40.9942 87.4203,46.3112 93.3593,46.9412 C100.4423,47.6932 106.4943,42.0772 107.1163,35.2302 C107.8403,27.2552 101.4763,20.4642 93.7253,19.8462 C93.5653,19.8232 93.4153,19.8332 93.2613,19.8292 L13.9113,19.8292 C13.7583,19.8202 13.5963,19.8372 13.4463,19.8482 L13.4463,19.8462 Z" id="Fill-1" fill="#C60C30" mask="url(#mask-2)"></path>
                        </g>
                    </g>
                </g>
            </g>
        </g>
    </g>
</svg>