<svg xmlns="http://www.w3.org/2000/svg" xmlns:xlink="http://www.w3.org/1999/xlink" width="55" height="46" viewBox="0 0 55 46">
    <defs>
        <path id="a" d="M0 0h55v46H0z"/>
    </defs>
    <g fill="none" fill-rule="evenodd">
        <path fill="#FFF" d="M-464-1705h1920v8229H-464z"/>
        <g>
            <mask id="b" fill="#fff">
                <use xlink:href="#a"/>
            </mask>
            <path fill="#C62032" d="M35.718 35.903l-3.263-3.262.125-.121 9.611-9.61 3.262 3.261-9.735 9.732zM28.724 32.2a3.51 3.51 0 0 1-2.501-1.036l-.146-.145a.984.984 0 0 0-1.355 0l-5.437 5.437-8.507-8.506L9.55 26.72l4.936-4.935a.96.96 0 0 0 0-1.357 3.872 3.872 0 0 1-.811-1.187 3.365 3.365 0 0 0 2.22-.988 3.4 3.4 0 0 0 .96-1.921c.226.047.456.07.687.07.908 0 1.762-.354 2.403-.995a3.362 3.362 0 0 0 .93-1.747c.309.09.63.136.959.136a3.398 3.398 0 0 0 2.922-5.127c.521-.16.998-.445 1.39-.835.132-.01.266-.028.397-.05l1.822-.323a.986.986 0 0 0 .75-.304l3.414-3.414c.3-.3.7-.465 1.125-.465.423 0 .823.165 1.124.465.62.62.62 1.63 0 2.249l-.661.66a.96.96 0 0 0 0 1.356.96.96 0 0 0 1.359-.003 1.593 1.593 0 0 1 2.244.003c.3.3.466.699.466 1.123 0 .425-.165.823-.466 1.124l-.936.936a.962.962 0 0 0 .001 1.356.96.96 0 0 0 1.36-.004 1.575 1.575 0 0 1 1.12-.461c.425 0 .824.165 1.123.464.62.62.62 1.629.001 2.248l-.69.688a.96.96 0 0 0 .678 1.637.95.95 0 0 0 .677-.28c.302-.3.702-.465 1.126-.465.424 0 .822.165 1.123.464.62.62.62 1.629 0 2.248l-12.08 12.076a3.509 3.509 0 0 1-2.5 1.036zM12.446 16.9l-1.262-1.261a1.476 1.476 0 0 1-.433-1.047 1.474 1.474 0 0 1 1.479-1.479c.379 0 .757.144 1.045.432l1.264 1.262c.28.28.433.65.433 1.046 0 .395-.154.767-.433 1.047a1.483 1.483 0 0 1-2.093 0zm1.62-7.369a1.482 1.482 0 0 1 2.093-.001l2.43 2.43a1.484 1.484 0 0 1 0 2.093c-.558.559-1.535.559-2.093 0l-2.43-2.43a1.467 1.467 0 0 1-.432-1.046c0-.395.153-.767.432-1.046zm2.694-4.202a1.483 1.483 0 0 1 2.093 0l4.027 4.026a1.48 1.48 0 0 1 0 2.091c-.56.56-1.533.56-2.093 0l-.795-.796-3.232-3.23a1.48 1.48 0 0 1 0-2.091zm3.92-2.976c.175-.174.388-.302.621-.371a1.867 1.867 0 0 0-.183 1.152l.14.874c.088.559.274 1.085.547 1.56L20.677 4.44a1.482 1.482 0 0 1 .004-2.088zm8.49-.338a.854.854 0 0 1 .877.45l.364.689-2.437 2.435-1.76.308a2.622 2.622 0 0 1-1.99-.453 2.619 2.619 0 0 1-1.073-1.736l-.132-.837 6.151-.856zm25.55 27.473l-4.134-4.133a3.035 3.035 0 0 0-2.159-.895c-.549 0-1.083.146-1.55.424l-3.33-3.33 1.112-1.11a3.513 3.513 0 0 0-.001-4.96 3.515 3.515 0 0 0-1.985-.992 3.509 3.509 0 0 0-2.743-4.263c.115-.35.174-.72.174-1.096 0-.938-.365-1.818-1.027-2.48a3.519 3.519 0 0 0-2.008-.994 3.51 3.51 0 0 0-.935-3.268 3.485 3.485 0 0 0-2.48-1.029c-.626 0-1.235.164-1.768.478l-.142-.268A2.797 2.797 0 0 0 28.905.114l-4.979.695A3.383 3.383 0 0 0 21.728 0a3.393 3.393 0 0 0-3.374 3.022 3.382 3.382 0 0 0-2.95.95 3.386 3.386 0 0 0-.882 3.26 3.364 3.364 0 0 0-1.811.942 3.416 3.416 0 0 0-.931 3.052 3.405 3.405 0 0 0-1.952.963 3.403 3.403 0 0 0 0 4.804l1.261 1.261c.128.127.265.244.412.35.142.88.49 1.72 1.007 2.447l-4.383 4.383a3.065 3.065 0 0 0-3.708.47L.282 30.038a.944.944 0 0 0-.207 1.042.947.947 0 0 0 .886.593c.256 0 .497-.1.677-.28l4.134-4.133c.428-.428 1.177-.427 1.605 0l2.572 2.571.003.003 8.794 8.793a1.136 1.136 0 0 1 0 1.604l-4.135 4.134a.952.952 0 0 0-.28.677.952.952 0 0 0 .959.958c.256 0 .497-.1.678-.28l4.133-4.133a3.068 3.068 0 0 0 .471-3.71l4.863-4.862a5.381 5.381 0 0 0 3.287 1.102 5.44 5.44 0 0 0 2.085-.412l3.623 3.621a3.05 3.05 0 0 0-.423 1.552c0 .816.318 1.582.894 2.158l4.134 4.134c.36.36.993.362 1.355 0a.953.953 0 0 0 0-1.355l-4.133-4.134a1.125 1.125 0 0 1-.332-.803c0-.303.117-.587.332-.801L47.626 26.71c.429-.43 1.177-.428 1.604 0l4.133 4.133a.96.96 0 0 0 1.357-1.356z" mask="url(#b)"/>
        </g>
    </g>
</svg>
