<?xml version="1.0" encoding="UTF-8"?>
<svg width="38px" height="59px" viewBox="0 0 38 59" version="1.1" xmlns="http://www.w3.org/2000/svg" xmlns:xlink="http://www.w3.org/1999/xlink">
    <!-- Generator: sketchtool 51 (57462) - http://www.bohemiancoding.com/sketch -->
    <title>B3BBFF73-FA9E-4A15-8499-F943727EF689</title>
    <desc>Created with sketchtool.</desc>
    <defs>
        <polygon id="path-1" points="0 0.008 37.411 0.008 37.411 54 0 54"></polygon>
        <polygon id="path-3" points="0 59.9917 37.411 59.9917 37.411 0.9997 0 0.9997"></polygon>
    </defs>
    <g id="Page-1" stroke="none" stroke-width="1" fill="none" fill-rule="evenodd">
        <g id="1920" transform="translate(-324.000000, -1788.000000)">
            <rect fill="#FFFFFF" x="0" y="0" width="1920" height="10097"></rect>
            <g id="what-is-abbyy" transform="translate(280.000000, 972.000000)">
                <g id="Group-3" transform="translate(0.000000, 804.000000)">
                    <g id="Group-2" transform="translate(23.000000, 0.000000)">
                        <g id="Group">
                            <g id="icon-city" transform="translate(21.000000, 11.000000)">
                                <g id="Group-19">
                                    <g id="Group-3" transform="translate(0.000000, 0.991700)">
                                        <mask id="mask-2" fill="white">
                                            <use xlink:href="#path-1"></use>
                                        </mask>
                                        <g id="Clip-2"></g>
                                        <path d="M2.0786,54 L2.0786,2.087 L35.3326,2.087 L35.3326,54 L37.4116,54 L37.4116,1.047 C37.4116,0.474 36.9456,0.008 36.3716,0.008 L1.0386,0.008 C0.4656,0.008 -0.0004,0.474 -0.0004,1.047 L-0.0004,54 L2.0786,54 Z" id="Fill-1" fill="#C60C30" mask="url(#mask-2)"></path>
                                    </g>
                                    <path d="M24.9409,48.8027 L12.4699,48.8027 C11.8969,48.8027 11.4309,49.2677 11.4309,49.8427 L11.4309,59.9917 L13.5099,59.9917 L13.5099,50.8817 L17.6669,50.8817 L17.6669,59.9917 L19.7449,59.9917 L19.7449,50.8817 L23.9009,50.8817 L23.9009,59.9917 L25.9799,59.9917 L25.9799,49.8427 C25.9799,49.2677 25.5149,48.8027 24.9409,48.8027" id="Fill-4" fill="#C60C30"></path>
                                    <mask id="mask-4" fill="white">
                                        <use xlink:href="#path-3"></use>
                                    </mask>
                                    <g id="Clip-7"></g>
                                    <path d="M6.235,11.3917 L10.392,11.3917 L10.392,7.2347 L6.235,7.2347 L6.235,11.3917 Z M5.196,13.4707 L11.431,13.4707 C12.005,13.4707 12.47,13.0047 12.47,12.4307 L12.47,6.1957 C12.47,5.6217 12.005,5.1567 11.431,5.1567 L5.196,5.1567 C4.622,5.1567 4.157,5.6217 4.157,6.1957 L4.157,12.4307 C4.157,13.0047 4.622,13.4707 5.196,13.4707 Z" id="Fill-6" fill="#C60C30" mask="url(#mask-4)"></path>
                                    <path d="M16.627,11.3917 L20.784,11.3917 L20.784,7.2347 L16.627,7.2347 L16.627,11.3917 Z M15.588,13.4707 L21.823,13.4707 C22.397,13.4707 22.862,13.0047 22.862,12.4307 L22.862,6.1957 C22.862,5.6217 22.397,5.1567 21.823,5.1567 L15.588,5.1567 C15.014,5.1567 14.549,5.6217 14.549,6.1957 L14.549,12.4307 C14.549,13.0047 15.014,13.4707 15.588,13.4707 Z" id="Fill-8" fill="#C60C30" mask="url(#mask-4)"></path>
                                    <path d="M27.019,11.3917 L31.176,11.3917 L31.176,7.2347 L27.019,7.2347 L27.019,11.3917 Z M25.98,13.4707 L32.215,13.4707 C32.789,13.4707 33.254,13.0047 33.254,12.4307 L33.254,6.1957 C33.254,5.6217 32.789,5.1567 32.215,5.1567 L25.98,5.1567 C25.406,5.1567 24.941,5.6217 24.941,6.1957 L24.941,12.4307 C24.941,13.0047 25.406,13.4707 25.98,13.4707 Z" id="Fill-9" fill="#C60C30" mask="url(#mask-4)"></path>
                                    <path d="M6.235,21.7837 L10.392,21.7837 L10.392,17.6267 L6.235,17.6267 L6.235,21.7837 Z M5.196,23.8627 L11.431,23.8627 C12.005,23.8627 12.47,23.3967 12.47,22.8227 L12.47,16.5877 C12.47,16.0137 12.005,15.5487 11.431,15.5487 L5.196,15.5487 C4.622,15.5487 4.157,16.0137 4.157,16.5877 L4.157,22.8227 C4.157,23.3967 4.622,23.8627 5.196,23.8627 Z" id="Fill-10" fill="#C60C30" mask="url(#mask-4)"></path>
                                    <path d="M16.627,21.7837 L20.784,21.7837 L20.784,17.6267 L16.627,17.6267 L16.627,21.7837 Z M15.588,23.8627 L21.823,23.8627 C22.397,23.8627 22.862,23.3967 22.862,22.8227 L22.862,16.5877 C22.862,16.0137 22.397,15.5487 21.823,15.5487 L15.588,15.5487 C15.014,15.5487 14.549,16.0137 14.549,16.5877 L14.549,22.8227 C14.549,23.3967 15.014,23.8627 15.588,23.8627 Z" id="Fill-11" fill="#C60C30" mask="url(#mask-4)"></path>
                                    <path d="M27.019,21.7837 L31.176,21.7837 L31.176,17.6267 L27.019,17.6267 L27.019,21.7837 Z M25.98,23.8627 L32.215,23.8627 C32.789,23.8627 33.254,23.3967 33.254,22.8227 L33.254,16.5877 C33.254,16.0137 32.789,15.5487 32.215,15.5487 L25.98,15.5487 C25.406,15.5487 24.941,16.0137 24.941,16.5877 L24.941,22.8227 C24.941,23.3967 25.406,23.8627 25.98,23.8627 Z" id="Fill-12" fill="#C60C30" mask="url(#mask-4)"></path>
                                    <path d="M6.235,32.1757 L10.392,32.1757 L10.392,28.0187 L6.235,28.0187 L6.235,32.1757 Z M5.196,34.2537 L11.431,34.2537 C12.005,34.2537 12.47,33.7887 12.47,33.2147 L12.47,26.9797 C12.47,26.4057 12.005,25.9407 11.431,25.9407 L5.196,25.9407 C4.622,25.9407 4.157,26.4057 4.157,26.9797 L4.157,33.2147 C4.157,33.7887 4.622,34.2537 5.196,34.2537 Z" id="Fill-13" fill="#C60C30" mask="url(#mask-4)"></path>
                                    <path d="M16.627,32.1757 L20.784,32.1757 L20.784,28.0187 L16.627,28.0187 L16.627,32.1757 Z M15.588,34.2537 L21.823,34.2537 C22.397,34.2537 22.862,33.7887 22.862,33.2147 L22.862,26.9797 C22.862,26.4057 22.397,25.9407 21.823,25.9407 L15.588,25.9407 C15.014,25.9407 14.549,26.4057 14.549,26.9797 L14.549,33.2147 C14.549,33.7887 15.014,34.2537 15.588,34.2537 Z" id="Fill-14" fill="#C60C30" mask="url(#mask-4)"></path>
                                    <path d="M27.019,32.1757 L31.176,32.1757 L31.176,28.0187 L27.019,28.0187 L27.019,32.1757 Z M25.98,34.2537 L32.215,34.2537 C32.789,34.2537 33.254,33.7887 33.254,33.2147 L33.254,26.9797 C33.254,26.4057 32.789,25.9407 32.215,25.9407 L25.98,25.9407 C25.406,25.9407 24.941,26.4057 24.941,26.9797 L24.941,33.2147 C24.941,33.7887 25.406,34.2537 25.98,34.2537 Z" id="Fill-15" fill="#C60C30" mask="url(#mask-4)"></path>
                                    <path d="M6.235,42.5677 L10.392,42.5677 L10.392,38.4107 L6.235,38.4107 L6.235,42.5677 Z M5.196,44.6467 L11.431,44.6467 C12.005,44.6467 12.47,44.1807 12.47,43.6067 L12.47,37.3717 C12.47,36.7977 12.005,36.3327 11.431,36.3327 L5.196,36.3327 C4.622,36.3327 4.157,36.7977 4.157,37.3717 L4.157,43.6067 C4.157,44.1807 4.622,44.6467 5.196,44.6467 Z" id="Fill-16" fill="#C60C30" mask="url(#mask-4)"></path>
                                    <path d="M16.627,42.5677 L20.784,42.5677 L20.784,38.4107 L16.627,38.4107 L16.627,42.5677 Z M15.588,44.6467 L21.823,44.6467 C22.397,44.6467 22.862,44.1807 22.862,43.6067 L22.862,37.3717 C22.862,36.7977 22.397,36.3327 21.823,36.3327 L15.588,36.3327 C15.014,36.3327 14.549,36.7977 14.549,37.3717 L14.549,43.6067 C14.549,44.1807 15.014,44.6467 15.588,44.6467 Z" id="Fill-17" fill="#C60C30" mask="url(#mask-4)"></path>
                                    <path d="M27.019,42.5677 L31.176,42.5677 L31.176,38.4107 L27.019,38.4107 L27.019,42.5677 Z M25.98,44.6467 L32.215,44.6467 C32.789,44.6467 33.254,44.1807 33.254,43.6067 L33.254,37.3717 C33.254,36.7977 32.789,36.3327 32.215,36.3327 L25.98,36.3327 C25.406,36.3327 24.941,36.7977 24.941,37.3717 L24.941,43.6067 C24.941,44.1807 25.406,44.6467 25.98,44.6467 Z" id="Fill-18" fill="#C60C30" mask="url(#mask-4)"></path>
                                </g>
                            </g>
                        </g>
                    </g>
                </g>
            </g>
        </g>
    </g>
</svg>