<svg xmlns="http://www.w3.org/2000/svg" xmlns:xlink="http://www.w3.org/1999/xlink" width="47" height="47" viewBox="0 0 47 47">
    <defs>
        <path id="a" d="M0 47h47V0H0z"/>
    </defs>
    <g fill="none" fill-rule="evenodd">
        <path fill="#FFF" d="M-885-1705h1920v8229H-885z"/>
        <g>
            <path fill="#C62032" d="M33.882 43.519H12.248a.944.944 0 0 0-.933.952v1.577c0 .524.418.952.933.952a.944.944 0 0 0 .932-.952v-.625h20.702a.944.944 0 0 0 .933-.952.944.944 0 0 0-.933-.952"/>
            <mask id="b" fill="#fff">
                <use xlink:href="#a"/>
            </mask>
            <path fill="#C62032" d="M19.373 18.891h1.29v-2.966h-1.29v2.966zm-1.966 1c0 .55.44.998.983.998h3.257a.992.992 0 0 0 .983-.999v-4.964c0-.551-.44-1-.983-1H18.39a.992.992 0 0 0-.983 1v4.964zM11.315 10.512a.944.944 0 0 0-.948-.938H.947a.944.944 0 0 0-.947.938v15.532c0 .516.424.937.948.937a.944.944 0 0 0 .947-.937V11.45h8.472a.945.945 0 0 0 .948-.938M39.392 38.039h1.29v-2.967h-1.29v2.967zm-1.966.999c0 .55.44.999.983.999h3.256a.993.993 0 0 0 .983-.999v-4.965a.992.992 0 0 0-.983-.999H38.41a.991.991 0 0 0-.983 1v4.964zM6.017 38.21c0 1.209-.942 2.19-2.1 2.19-1.16 0-2.1-.981-2.1-2.19 0-4.114 1.08-8.464 2.1-8.464s2.1 4.35 2.1 8.464m-2.1-10.358c-1.63 0-2.782 1.745-3.428 5.19C.005 35.623 0 38.185 0 38.21c0 1.889 1.257 3.538 3.009 3.974v3.87c0 .522.407.946.908.946.5 0 .908-.424.908-.947v-3.87c1.751-.435 3.008-2.084 3.008-3.973 0-.026-.005-2.588-.489-5.167-.646-3.446-1.798-5.191-3.427-5.191M8.591 23.5H5.335a.992.992 0 0 0-.983.999v1.655c0 .55.441.999.983.999a.993.993 0 0 0 .983-.999v-.656h1.29v3.966c0 .552.442.999.983.999a.992.992 0 0 0 .983-1V24.5a.994.994 0 0 0-.983-.999M39.392 18.891h1.29v-2.966h-1.29v2.966zm-.983 1.998h3.256a.993.993 0 0 0 .983-.999v-4.964c0-.551-.441-1-.983-1H38.41a.992.992 0 0 0-.983 1v4.964c0 .55.44.999.983.999z" mask="url(#b)"/>
            <path fill="#C62032" d="M6.318 18.891h1.29v-2.966h-1.29v2.966zm2.273-4.965H5.335a.993.993 0 0 0-.983 1v4.964c0 .55.441.999.983.999H8.59a.992.992 0 0 0 .983-.999v-4.964a.995.995 0 0 0-.983-1zM27.206 18.891h1.292v-2.966h-1.292v2.966zm-1.965 1c0 .55.441.998.982.998h3.256a.993.993 0 0 0 .984-.999v-4.964c0-.551-.441-1-.984-1h-3.256a.993.993 0 0 0-.982 1v4.964zM43.275 44.089c.282.114.609.084.87-.08a.607.607 0 0 1 .624-.011.607.607 0 0 1 .336.523c0 .338-.28.613-.622.613h-6.28a.619.619 0 0 1-.623-.613.62.62 0 0 1 .96-.512.961.961 0 0 0 .87.08.93.93 0 0 0 .567-.654c.148-.63.71-1.073 1.366-1.073.656 0 1.217.442 1.366 1.073.07.297.282.54.566.654m2.777-34.515h-9.42a.941.941 0 0 0-.947.933c0 .516.426.934.948.934h8.472v30.685a2.455 2.455 0 0 0-.94-.064 3.305 3.305 0 0 0-2.822-1.567c-1.16 0-2.23.598-2.822 1.567a2.607 2.607 0 0 0-.317-.02c-1.389 0-2.519 1.112-2.519 2.479 0 1.368 1.13 2.479 2.519 2.479h6.279C45.87 47 47 45.889 47 44.52V10.508a.941.941 0 0 0-.948-.933M27.206 9.317h1.292V6.35h-1.292v2.967zm-.983 1.998h3.256a.993.993 0 0 0 .984-1V5.352c0-.552-.441-1-.984-1h-3.256a.993.993 0 0 0-.982 1v4.963c0 .551.441 1 .982 1zM27.206 28.465h1.292v-2.967h-1.292v2.967zm-1.965.999c0 .552.441.999.982.999h3.256a.992.992 0 0 0 .984-1V24.5a.992.992 0 0 0-.984-.999h-3.256a.992.992 0 0 0-.982.999v4.965zM19.373 9.317h1.29V6.35h-1.29v2.967zm-.983 1.998h3.257a.992.992 0 0 0 .983-1V5.352c0-.552-.44-1-.983-1H18.39a.992.992 0 0 0-.983 1v4.963c0 .551.44 1 .983 1zM19.373 28.465h1.29v-2.967h-1.29v2.967zm-1.966.999c0 .552.44.999.983.999h3.257a.991.991 0 0 0 .983-1V24.5a.991.991 0 0 0-.983-.999H18.39a.991.991 0 0 0-.983.999v4.965zM15.667 34.005a.93.93 0 0 0 .926.931h2.143v6.781a.93.93 0 0 0 .927.931.929.929 0 0 0 .926-.93v-6.782h5.82v6.781a.93.93 0 0 0 .927.931.929.929 0 0 0 .927-.93v-6.782h2.143a.93.93 0 0 0 0-1.862H16.593a.93.93 0 0 0-.926.931" mask="url(#b)"/>
            <path fill="#C62032" d="M39.392 28.465h1.29v-2.967h-1.29v2.967zm-1.966.999c0 .552.44.999.983.999h3.256a.992.992 0 0 0 .983-1V24.5a.992.992 0 0 0-.983-.999H38.41a.991.991 0 0 0-.983.999v4.965zM33.02 0H13.11a.936.936 0 0 0-.925.946v40.756c0 .521.414.946.925.946.51 0 .924-.425.924-.946V1.892h18.062v39.81c0 .521.415.946.924.946.51 0 .924-.425.924-.946V.946a.957.957 0 0 0-.27-.67A.913.913 0 0 0 33.02 0" mask="url(#b)"/>
        </g>
    </g>
</svg>
