<?xml version="1.0" encoding="UTF-8"?>
<svg width="201px" height="60px" viewBox="0 0 201 60" version="1.1" xmlns="http://www.w3.org/2000/svg" xmlns:xlink="http://www.w3.org/1999/xlink">
    <!-- Generator: sketchtool 51 (57462) - http://www.bohemiancoding.com/sketch -->
    <title>798BC536-3E3B-4697-935F-9B273613B0C4</title>
    <desc>Created with sketchtool.</desc>
    <defs>
        <polygon id="path-1" points="0 0.519 39.4657 0.519 39.4657 59 0 59"></polygon>
    </defs>
    <g id="Symbols" stroke="none" stroke-width="1" fill="none" fill-rule="evenodd">
        <g id="Logo">
            <g id="Group-14">
                <path d="M41.9409,1.1091 L41.9409,59.5881 L60.7669,59.5881 C73.8579,59.5881 76.6059,51.0091 76.6059,43.8121 C76.6059,37.6701 75.5589,31.2961 68.7659,29.1931 C73.2529,27.3461 76.7759,22.8601 76.7759,16.5681 C76.7759,2.7121 67.2559,1.1091 60.8349,1.1091 L41.9409,1.1091 Z M59.2049,11.1991 C62.2149,11.1991 63.4149,13.9911 63.4149,17.8351 C63.4149,22.7331 61.8949,24.4721 59.7489,24.4721 L55.5729,24.4721 L55.5729,11.1991 L59.2049,11.1991 Z M58.8669,34.5631 C63.1259,34.5631 63.9589,36.8091 63.9589,42.0701 C63.9589,49.4971 60.6559,49.4971 58.5959,49.4971 L55.5729,49.4971 L55.5729,34.5631 L58.8669,34.5631 Z" id="Fill-1" fill="#FFFFFF"></path>
                <path d="M80.4319,1.1091 L80.4319,59.5881 L99.2579,59.5881 C112.3489,59.5881 115.0959,51.0091 115.0959,43.8121 C115.0959,37.6681 114.0479,31.2951 107.2569,29.1921 C111.7429,27.3451 115.2669,22.8601 115.2669,16.5671 C115.2669,2.7111 105.7459,1.1091 99.3239,1.1091 L80.4319,1.1091 Z M97.6949,11.1991 C100.7049,11.1991 101.9049,13.9911 101.9049,17.8351 C101.9049,22.7331 100.3839,24.4711 98.2389,24.4711 L94.0629,24.4711 L94.0629,11.1991 L97.6949,11.1991 Z M97.3569,34.5631 C101.6169,34.5631 102.4489,36.8091 102.4489,42.0701 C102.4489,49.4961 99.1459,49.4961 97.0859,49.4961 L94.0629,49.4961 L94.0629,34.5631 L97.3569,34.5631 Z" id="Fill-3" fill="#FFFFFF"></path>
                <path d="M139.7324,1.1091 C139.7324,1.1091 134.6224,20.9491 133.4634,24.5421 C132.3674,20.9351 127.6374,1.1091 127.6374,1.1091 L114.9364,1.1091 C114.9364,1.1091 126.4344,39.0501 126.4994,39.2391 L126.4994,59.5881 L140.1394,59.5881 L140.1394,39.2461 C140.2144,39.0441 151.6954,1.1091 151.6954,1.1091 L139.7324,1.1091 Z" id="Fill-5" fill="#FFFFFF"></path>
                <path d="M177.9521,1.1091 C177.9521,1.1091 172.8441,20.9491 171.6831,24.5421 C170.5871,20.9351 165.8571,1.1091 165.8571,1.1091 L153.1561,1.1091 C153.1561,1.1091 164.6551,39.0501 164.7211,39.2391 L164.7211,59.5881 L178.3611,59.5881 L178.3611,39.2461 C178.4351,39.0441 189.9161,1.1091 189.9161,1.1091 L177.9521,1.1091 Z" id="Fill-7" fill="#FFFFFF"></path>
                <g id="Group-11" transform="translate(0.000000, 0.588400)">
                    <mask id="mask-2" fill="white">
                        <use xlink:href="#path-1"></use>
                    </mask>
                    <g id="Clip-10"></g>
                    <path d="M27.8167,59 L39.4657,59 L27.6547,0.519 L11.8107,0.519 L-0.0003,58.999 L11.6497,58.999 L14.1647,46.548 L25.3017,46.548 L27.8167,59 Z M16.2057,36.44 L19.7327,18.975 L23.2597,36.44 L16.2057,36.44 Z" id="Fill-9" fill="#FFFFFF" mask="url(#mask-2)"></path>
                </g>
                <path d="M195.873,5.0844 L196.802,5.0844 C197.478,5.0844 197.601,4.6984 197.601,4.3894 C197.601,3.8674 197.242,3.7294 196.723,3.7294 L195.873,3.7294 L195.873,5.0844 Z M195.071,3.1344 L196.992,3.1344 C197.449,3.1344 198.42,3.2594 198.42,4.3894 C198.42,4.6854 198.334,5.1194 197.686,5.3814 L197.686,5.4054 C198.243,5.5174 198.278,6.0144 198.311,6.4504 C198.343,7.1204 198.311,7.2444 198.484,7.4784 L197.645,7.4784 C197.501,7.3054 197.511,7.2054 197.488,6.4854 C197.478,6.0904 197.449,5.6794 196.534,5.6794 L195.873,5.6794 L195.873,7.4784 L195.071,7.4784 L195.071,3.1344 Z M196.659,9.0314 C198.628,9.0314 200.183,7.3794 200.183,5.3444 C200.183,3.2954 198.618,1.6564 196.659,1.6564 C194.691,1.6564 193.132,3.2954 193.132,5.3444 C193.132,7.3794 194.683,9.0314 196.659,9.0314 Z M196.659,1.0004 C199.091,1.0004 201,2.9504 201,5.3444 C201,7.7384 199.091,9.6874 196.659,9.6874 C194.222,9.6874 192.307,7.7384 192.307,5.3444 C192.307,2.9504 194.222,1.0004 196.659,1.0004 Z" id="Fill-12" fill="#FFFFFF"></path>
            </g>
        </g>
    </g>
</svg>