<svg xmlns="http://www.w3.org/2000/svg" xmlns:xlink="http://www.w3.org/1999/xlink" width="37" height="37" viewBox="0 0 37 37">
    <defs>
        <path id="a" d="M0 .39h36.61v36.746H0z"/>
    </defs>
    <g fill="none" fill-rule="evenodd">
        <g transform="translate(0 -.133)">
            <mask id="b" fill="#fff">
                <use xlink:href="#a"/>
            </mask>
            <path fill="#FFF" d="M29.76 30.269c-5.226 5.244-13.315 6.285-19.677 2.533a1.038 1.038 0 0 0-1.27.163.356.356 0 0 0-.085.061C6.631 34.658 4.572 35 3.208 35h-.006c1.57-1.15 2.561-2.858 3.142-4.187a1.07 1.07 0 0 0 .054-.676 1.09 1.09 0 0 0-.255-.591C.477 23.12.77 13.332 6.823 7.257 13.149.91 23.436.91 29.752 7.257c6.332 6.347 6.332 16.665.008 23.012m1.479-24.495C27.777 2.3 23.188.39 18.295.39 13.404.39 8.813 2.3 5.353 5.774-1.334 12.485-1.799 23.23 4.2 30.479c-.588 1.188-1.533 2.571-2.933 3.263a1.71 1.71 0 0 0-.937 1.802 1.72 1.72 0 0 0 1.432 1.445 9.39 9.39 0 0 0 1.447.109c1.618 0 4.002-.38 6.44-2.144a18.152 18.152 0 0 0 8.639 2.182 18.27 18.27 0 0 0 12.957-5.383 18.275 18.275 0 0 0 5.365-12.99 18.28 18.28 0 0 0-5.372-12.99" mask="url(#b)"/>
        </g>
        <path fill="#FFF" d="M19.681 16.92c0 .778-.629 1.41-1.404 1.41a1.407 1.407 0 0 1-1.405-1.41c0-.778.629-1.41 1.405-1.41.775 0 1.404.632 1.404 1.41M26.923 16.92c0 .778-.629 1.41-1.404 1.41a1.407 1.407 0 0 1-1.405-1.41c0-.778.629-1.41 1.405-1.41.775 0 1.404.632 1.404 1.41M12.439 16.92c0 .778-.629 1.41-1.405 1.41a1.407 1.407 0 0 1-1.404-1.41c0-.778.629-1.41 1.404-1.41.776 0 1.405.632 1.405 1.41"/>
    </g>
</svg>
