<svg xmlns="http://www.w3.org/2000/svg" xmlns:xlink="http://www.w3.org/1999/xlink" width="36" height="34" viewBox="0 0 36 34">
    <defs>
        <path id="a" d="M0 0h34.776v32.453H0z"/>
    </defs>
    <g fill="none" fill-rule="evenodd" transform="translate(.857 .857)">
        <mask id="b" fill="#fff">
            <use xlink:href="#a"/>
        </mask>
        <path fill="#FFF" d="M17.388 25.408c.147 0 .293.036.427.104l8.53 4.392-1.628-9.305a.891.891 0 0 1 .264-.798l6.9-6.59-9.536-1.357a.92.92 0 0 1-.692-.493l-4.265-8.467-4.265 8.467a.922.922 0 0 1-.692.493L2.895 13.21l6.9 6.59a.891.891 0 0 1 .264.798L8.43 29.904l8.53-4.392a.945.945 0 0 1 .428-.104m-10.18 7.043a.925.925 0 0 1-.539-.172.89.89 0 0 1-.365-.882l1.862-10.636-7.889-7.534a.89.89 0 0 1-.232-.923.914.914 0 0 1 .742-.614l10.901-1.552 4.876-9.68c.309-.611 1.34-.611 1.648 0l4.876 9.68 10.9 1.552c.347.05.635.286.743.614a.888.888 0 0 1-.233.923l-7.888 7.534 1.861 10.636a.89.89 0 0 1-.365.882.923.923 0 0 1-.968.069l-9.75-5.023-9.752 5.023a.92.92 0 0 1-.427.103" mask="url(#b)"/>
    </g>
</svg>
