<svg xmlns="http://www.w3.org/2000/svg" width="30" height="34" viewBox="0 0 30 34">
    <path fill="#FFF" fill-rule="evenodd" d="M2.345 27.383H27.53v-2.957H2.345v2.957zm12.593 4.132a2.291 2.291 0 0 1-2.287-2.215h4.574a2.291 2.291 0 0 1-2.287 2.215zm-8.727-15.69v-4.467c0-4.812 3.915-8.726 8.727-8.726s8.727 3.914 8.727 8.726v4.467c0 2.458.877 4.825 2.421 6.684H3.79a10.49 10.49 0 0 0 2.421-6.684zm23.237 7.158l-.392-.288a8.56 8.56 0 0 1-3.474-6.87v-4.467C25.582 5.49 20.807.714 14.938.714 9.068.714 4.294 5.49 4.294 11.358v4.467a8.559 8.559 0 0 1-3.475 6.87l-.39.288V29.3h10.306a4.209 4.209 0 0 0 4.203 4.132 4.21 4.21 0 0 0 4.203-4.132h10.307v-6.317z"/>
</svg>
